<?xml version="1.0" encoding="UTF-8" standalone="no"?>
<!-- Created with Inkscape (http://www.inkscape.org/) -->

<svg
   xmlns:dc="http://purl.org/dc/elements/1.1/"
   xmlns:cc="http://creativecommons.org/ns#"
   xmlns:rdf="http://www.w3.org/1999/02/22-rdf-syntax-ns#"
   xmlns:svg="http://www.w3.org/2000/svg"
   xmlns="http://www.w3.org/2000/svg"
   xmlns:sodipodi="http://sodipodi.sourceforge.net/DTD/sodipodi-0.dtd"
   xmlns:inkscape="http://www.inkscape.org/namespaces/inkscape"
   width="911"
   height="911"
   id="svg2"
   version="1.1"
   inkscape:version="0.91 r13725"
   sodipodi:docname="gnuicon.svg">
  <defs
     id="defs4" />
  <sodipodi:namedview
     id="base"
     pagecolor="#6a6a6a"
     bordercolor="#666666"
     borderopacity="1.0"
     inkscape:pageopacity="0"
     inkscape:pageshadow="2"
     inkscape:zoom="0.7"
     inkscape:cx="323.93481"
     inkscape:cy="526.58442"
     inkscape:document-units="px"
     inkscape:current-layer="layer1"
     showgrid="false"
     inkscape:window-width="1920"
     inkscape:window-height="1029"
     inkscape:window-x="0"
     inkscape:window-y="0"
     inkscape:window-maximized="1"
     width="744.09px"
     borderlayer="true" />
  <metadata
     id="metadata7">
    <rdf:RDF>
      <cc:Work
         rdf:about="">
        <dc:format>image/svg+xml</dc:format>
        <dc:type
           rdf:resource="http://purl.org/dc/dcmitype/StillImage" />
        <dc:title></dc:title>
      </cc:Work>
    </rdf:RDF>
  </metadata>
  <g
     inkscape:label="Calque 1"
     inkscape:groupmode="layer"
     id="layer1"
     transform="translate(0,-141.3611)">
    <path
       style="fill:#000000;fill-opacity:1;stroke:#000000;stroke-opacity:1"
       d="m 533.29112,998.1703 c -23.50341,-3.4411 -39.39063,-8.1939 -58,-17.3513 -32.04553,-15.7692 -56.43674,-38.22774 -70.1632,-64.60362 l -4.16321,-7.99975 -2.68414,5.6773 c -3.74663,7.92459 -4.60451,8.46656 -9.73925,6.15281 -6.54195,-2.94784 -14.7712,-11.80376 -19.44159,-20.92209 -5.01395,-9.78908 -8.34411,-20.20743 -11.88028,-37.16716 -3.09587,-14.84797 -4.01729,-17.71676 -5.52842,-17.21231 -0.59828,0.19972 -2.95801,3.95428 -5.24385,8.34348 -5.00351,9.60761 -6.67124,10.27166 -12.51594,4.9836 -9.05778,-8.19515 -14.12326,-20.69115 -17.2039,-42.44024 -2.78282,-19.64648 -2.8933,-20.1589 -4.3465,-20.1589 -0.72581,0 -2.79119,3.37994 -4.58972,7.51098 -1.79853,4.13104 -3.87631,7.51098 -4.61728,7.51098 -2.05855,0 -11.0578,-19.45521 -13.43394,-29.04246 -3.01823,-12.17788 -3.6935,-34.71209 -1.51553,-50.57393 0.90756,-6.60966 1.91436,-12.89356 2.23733,-13.96421 0.37392,-1.23957 -2.33279,0.49241 -7.45173,4.76823 -31.4008,26.22888 -86.43557,45.92026 -128.71885,46.05545 -18.75726,0.06 -28.22316,-3.00984 -31.18715,-10.11404 -2.32647,-5.57618 0.15307,-10.94955 10.72502,-23.24207 16.52029,-19.2089 27.05543,-36.89886 35.48569,-59.58534 3.12945,-8.42159 12.73903,-44.31493 14.81352,-55.33089 l 0.61292,-3.25476 -8.725,-0.0173 C 150.28498,616.14156 120.86209,609.62792 99.227083,599.19318 50.62046,575.7498 18.636857,528.90974 5.8203191,462.39872 -6.8580409,396.60477 1.6109981,341.6317 31.263758,297.24377 63.920481,248.35913 121.10766,215.31098 189.25706,205.94032 c 15.37043,-2.11346 45.01172,-2.06953 58.84504,0.0872 22.11885,3.44853 35.85641,8.8252 53.2887,20.85635 5.99518,4.13767 13.26863,8.71542 16.16323,10.17279 7.94679,4.00103 21.77613,8.31658 30.73709,9.59175 12.49395,1.77792 14.5,2.62981 14.5,6.15759 0,11.6569 -15.50308,19.59844 -44.80706,22.95265 -9.8909,1.13215 -18.96666,1.03621 -60.19294,-0.63626 -13.05126,-0.52946 -17.3967,-0.30514 -27.50575,1.41988 -30.36434,5.18141 -57.48759,19.33515 -79.97272,41.73223 -20.41671,20.33674 -33.5131,42.27743 -40.30561,67.52494 -2.2186,8.24645 -2.58507,11.68935 -2.61951,24.60975 -0.037,13.86149 0.17339,15.64087 2.72301,23.03367 12.07919,35.02442 47.60959,47.30098 84.18058,29.08629 17.14086,-8.53724 32.75314,-22.71307 48.04346,-43.62304 31.07083,-42.49035 48.59182,-60.1602 75.99956,-76.64526 48.88893,-29.40544 103.63512,-24.79908 148.26414,12.47497 5.5965,4.67419 6.51309,5.1172 8.13493,3.93175 1.00528,-0.73479 4.69206,-3.43509 8.19284,-6.00067 23.9255,-17.53396 53.6745,-25.19051 80.86507,-20.81236 16.47645,2.65299 38.66772,12.44433 55.5,24.48799 17.36436,12.42437 29.39061,24.84884 60.15776,62.1498 21.32989,25.85957 34.6642,38.02795 50.34224,45.94041 9.49869,4.79384 16.47929,6.82121 23.91449,6.94547 27.97755,0.46758 50.09733,-39.34508 50.08149,-90.14001 -0.009,-29.30696 -7.87878,-54.0157 -21.92613,-68.84268 -14.89615,-15.72286 -32.95563,-25.02025 -56.63143,-29.15502 -4.6219,-0.80717 -17.52382,-1.93245 -28.67094,-2.50063 -25.59792,-1.30476 -36.66258,-2.66815 -44.38705,-5.46936 -11.34306,-4.11345 -21.34685,-11.3607 -24.91615,-18.05047 -1.85148,-3.47015 -1.86511,-3.75477 -0.23741,-4.95606 1.09285,-0.80657 6.96726,-1.51138 16,-1.9197 27.73582,-1.25376 49.61737,-5.92357 87.77313,-18.73192 28.16857,-9.4558 36.66645,-10.95663 51.61849,-9.11644 23.79544,2.92857 44.68472,13.77609 65.7641,34.15041 37.39578,36.14499 60.70944,89.18873 62.29954,141.74529 0.99099,32.75442 -3.78465,49.86513 -26.70745,95.69043 -18.18374,36.35138 -34.42074,55.02923 -57.81638,66.50769 -12.94148,6.34941 -26.01987,9.89975 -48.4083,13.14122 -7.0125,1.01529 -12.75,2.22424 -12.75,2.68656 0,2.63107 12.8193,19.62286 20.98086,27.8098 10.88049,10.91435 18.70176,15.59562 31.51914,18.86518 8.05831,2.05559 12.5,5.169 12.5,8.76192 0,5.60662 -10.23411,13.79903 -23.12254,18.50962 -12.56128,4.59101 -24.14163,6.21953 -39.87746,5.60788 -31.16388,-1.21135 -58.24531,-13.75682 -82.5,-38.21814 -6.05,-6.10154 -12.125,-12.77248 -13.5,-14.82432 -1.375,-2.05184 -2.77089,-3.7337 -3.10198,-3.73747 -0.33109,-0.004 -0.87635,3.93643 -1.21169,8.75597 -0.33535,4.81955 -2.42035,16.18405 -4.63335,25.25446 l -4.02362,16.49164 3.23532,3.36037 c 11.63944,12.0893 28.55471,17.41611 44.69987,14.0765 7.99596,-1.65396 12.00667,-0.57777 18.01778,4.83464 8.76557,7.89255 13.34467,19.86024 13.34467,34.87696 0,17.69798 -5.0129,28.3147 -20.30032,42.99365 -16.69538,16.03086 -20.86764,20.63923 -23.52974,25.98918 -4.53464,9.11315 -2.94082,14.46767 6.89718,23.17136 8.19031,7.24598 9.77382,11.15009 7.22909,17.82314 -0.9205,2.41383 -3.26181,6.24691 -5.20289,8.51796 -4.25178,4.97451 -18.86924,14.95122 -26.61912,18.16806 l -5.60581,2.32688 2.86981,3.96746 c 6.58123,9.09843 8.74215,22.33494 5.45564,33.41803 -3.12418,10.53564 -13.62833,21.40494 -22.25149,23.02503 -2.50159,0.46999 -5.64142,0.0204 -10.25814,-1.46861 -7.79509,-2.51426 -13.1682,-2.70827 -18.90142,-0.68252 -6.34047,2.24032 -10.79276,6.20046 -13.72962,12.21198 -2.50806,5.1338 -2.65977,6.24676 -2.51277,18.43392 0.27032,22.41015 -3.98609,35.35455 -15.29217,46.50565 -11.09029,10.9384 -25.99124,16.3744 -46.57523,16.9912 -6.875,0.206 -13.85,0.177 -15.5,-0.064 z"
       id="path4541" />
    <path
       style="fill:#ffffff;fill-opacity:1;stroke:#000000;stroke-opacity:1"
       d="m 551.5765,960.964 c -9.06039,-17.84817 -9.83312,-30.04691 -2.85001,-44.99131 3.40756,-7.29244 11.52348,-16.01077 17.97092,-19.30482 10.48468,-5.35673 30.85123,-8.04523 61.09371,-8.06473 28.82094,-0.0186 37.39779,-3.1741 40.07453,-14.74386 1.16088,-5.01775 -1.04817,-12.63532 -5.07578,-17.50302 -1.7596,-2.12662 -5.9298,-5.1188 -9.77019,-7.01024 -6.5575,-3.22966 -6.97749,-3.29905 -19.7144,-3.25664 -13.00157,0.0433 -13.02867,0.0483 -28.01416,5.18712 -19.09364,6.54757 -25.75879,7.69929 -40.41075,6.98285 -13.9716,-0.68318 -20.44691,-2.34408 -33.58925,-8.61553 -23.70967,-11.31413 -45.88597,-34.11683 -53.50051,-55.01173 -2.54056,-6.97147 -3.38819,-11.46418 -3.10081,-16.43522 0.1932,-3.3419 1.94039,-1.71655 5.92096,5.50805 15.35452,27.8679 40.57993,50.5903 63.74008,57.41543 6.96613,2.05286 18.39899,2.25752 26.94028,0.48227 3.3,-0.68589 14.75385,-3.68725 25.45299,-6.6697 10.69914,-2.98244 23.29914,-6.17022 28,-7.08395 9.27684,-1.80319 28.01835,-2.29891 40.04701,-1.05927 13.30473,1.37115 21.61189,-3.52442 21.40464,-12.61415 -0.12199,-5.3504 -2.88923,-10.68578 -9.39056,-18.10547 -5.79774,-6.61672 -7.01408,-9.10823 -7.01408,-14.36747 0,-8.19271 6.71838,-16.02547 30.90694,-36.03353 14.14367,-11.69922 18.83968,-22.04317 17.85402,-39.32726 -0.59795,-10.48528 -3.42719,-17.588 -9.02233,-22.65028 l -4.02228,-3.6392 -6.60817,0.80136 c -3.6345,0.44076 -10.43318,0.8194 -15.10818,0.84143 -7.34535,0.0347 -9.29696,-0.34662 -14.36682,-2.80665 -15.69545,-7.61582 -30.98257,-28.47771 -40.10896,-54.73556 -5.05055,-14.53107 -11.5096,-26.31916 -25.41182,-46.3778 -17.67682,-25.50475 -18.86103,-28.23322 -15.62258,-35.99527 0.81941,-1.96398 1.78696,-7.44214 2.15013,-12.17368 0.36316,-4.73155 0.97661,-8.7986 1.36321,-9.03789 0.38661,-0.23928 1.78155,1.22914 3.09988,3.26314 3.78635,5.84186 5.53756,6.2793 16.1873,4.04353 13.30708,-2.79367 25.18402,-2.18283 33.20966,1.70802 3.3,1.59984 6.4039,3.1028 6.89755,3.33991 2.32908,1.11866 -0.55246,-13.57949 -5.77318,-29.44785 -3.09341,-9.40238 -5.62437,-18.31704 -5.62437,-19.81035 0,-6.19365 6.37139,-3.5525 14.05635,5.8268 9.08719,11.0907 12.20384,18.44077 19.54812,46.10073 8.55291,32.21193 15.07033,48.29309 24.85318,61.32299 8.43019,11.22829 13.21293,12.82713 20.27132,6.77656 2.24893,-1.92782 4.4946,-3.50512 4.99038,-3.50512 0.49578,0 5.38651,4.39392 10.86828,9.76427 15.29048,14.97968 25.82649,20.26432 41.91237,21.02234 6.97101,0.3285 9.45089,0.0837 11,-1.08593 1.95122,-1.47323 1.92683,-1.53696 -1,-2.61289 -10.30485,-3.78817 -20.04497,-12.97673 -30.56512,-28.83431 -7.99422,-12.05009 -22.03682,-40.1061 -29.95291,-59.84352 -10.16271,-25.339 -19.40433,-40.59526 -33.71157,-55.65173 -23.45943,-24.68793 -47.49972,-36.16646 -75.7704,-36.17812 -15.25583,-0.006 -22.07773,1.83118 -37.95507,10.22321 -15.38212,8.13029 -22.70204,10.87926 -31.04493,11.6588 -8.22923,0.76894 -14.62716,-1.08106 -38.23705,-11.05643 -38.84975,-16.41433 -57.22577,-20.9863 -84.76295,-21.08908 -18.59732,-0.0694 -21.6942,0.74545 -55.1526,14.51196 -13.28393,5.46569 -28.35893,11.0892 -33.5,12.49669 -35.78088,9.79587 -52.4242,18.68545 -71.86841,38.3866 -30.00648,30.40301 -45.8948,71.32689 -52.48168,135.17827 -2.37363,23.00938 -7.05561,35.5948 -23.71863,63.757 -3.58491,6.05886 -7.50343,12.966 -8.70784,15.34921 -5.9097,11.69381 1.70193,12.0833 24.48986,1.25315 19.95645,-9.48446 29.37168,-17.40224 42.331,-35.59839 11.44697,-16.07266 13.4877,-17.11514 18.53927,-9.47052 4.75812,7.20051 5.57575,5.98943 13.05814,-19.34167 5.0116,-16.96639 10.00878,-28.1173 12.83529,-28.64119 1.00343,-0.18598 2.65868,0.41796 3.67834,1.34209 1.12654,1.02101 2.63056,1.43339 3.83337,1.05108 3.3295,-1.05829 9.86071,-9.01312 13.75008,-16.74719 8.51672,-16.93565 11.12665,-27.82302 12.44275,-51.90519 1.09396,-20.01755 3.93686,-32.5037 10.37479,-45.56661 10.46687,-21.23784 31.1818,-35.47292 54.23626,-37.2706 8.8552,-0.69049 12.36001,0.0797 12.36001,2.71608 0,2.41247 -2.9265,4.40478 -10.10159,6.87698 -8.93001,3.07687 -13.16312,5.65185 -18.25704,11.10563 -9.0398,9.67843 -12.86744,21.66193 -15.20941,47.61729 -6.23795,69.13356 -7.43963,75.13525 -20.60427,102.90632 l -6.28745,13.26351 0.0866,11.51683 c 0.0959,12.75841 1.7806,19.52855 4.85955,19.52855 1.13927,0 3.32046,-2.53621 6.02896,-7.01025 5.14893,-8.50528 11.66708,-15.52269 14.41831,-15.52269 2.84149,0 3.60301,3.96956 2.21194,11.53022 -2.47059,13.42799 -0.59644,36.05929 5.40011,65.20925 4.07413,19.80502 9.208,36.42596 11.25119,36.42596 0.49442,0 2.53294,-3.26727 4.53004,-7.26061 6.48291,-12.96304 16.7152,-25.11478 19.62908,-23.31126 0.57419,0.35539 1.04398,2.13459 1.04398,3.95379 0,1.81919 1.57995,12.27042 3.511,23.22493 12.77734,72.48379 32.19499,117.43877 63.44077,146.87559 18.12983,17.08026 41.97178,29.12554 67.54823,34.12644 13.83972,2.706 17.9209,3.1555 17.28538,1.9035 z"
       id="path4539" />
    <path
       style="fill:#000000;fill-opacity:1;stroke:#000000;stroke-opacity:1"
       d="m 564.43156,750.6566 c -0.27189,-0.9639 -0.79,-3.65736 -1.15135,-5.98546 -0.82586,-5.32069 -4.23589,-10.47555 -7.74804,-11.71252 -2.28542,-0.80491 -3.38999,-0.45155 -7.23684,2.3151 -2.49688,1.79573 -5.95212,3.67063 -7.67833,4.16643 -10.10546,2.90245 -24.47627,-9.27285 -22.35599,-18.94055 2.1063,-9.60396 20.68513,-15.44944 32.30967,-10.16564 9.71465,4.41568 23.22044,23.53562 23.22044,32.87283 0,6.02148 -7.97252,12.36726 -9.35956,7.44981 z"
       id="path4537" />
    <path
       style="fill:#000000;fill-opacity:1;stroke:#000000;stroke-opacity:1"
       d="m 504.88603,743.69788 c -9.29025,-11.27984 -11.86756,-33.69157 -5.4531,-47.41903 7.72876,-16.54016 27.4746,-26.97035 48.58245,-25.6623 20.69496,1.28244 44.05561,13.64039 66.32378,35.08573 7.67245,7.38895 8.46272,8.50144 8.4576,11.90601 -0.0108,7.16845 -6.7187,10.1034 -12.62078,5.52203 -1.58667,-1.23162 -8.05986,-6.91411 -14.38486,-12.62778 -29.30815,-26.47535 -48.51455,-33.5241 -67.55702,-24.79341 -16.52712,7.57745 -24.00222,27.09715 -20.37591,53.20755 0.58689,4.22575 0.86374,7.88682 0.61522,8.13571 -0.24853,0.24888 -1.86284,-1.26065 -3.58738,-3.35451 z"
       id="path4535" />
    <path
       style="fill:#000000;fill-opacity:1;stroke:#000000;stroke-opacity:1"
       d="m 446.19357,590.27582 c -9.1931,-5.61407 -14.66525,-14.93089 -15.24327,-25.95303 -0.48675,-9.28175 1.52932,-14.89394 7.73844,-21.54171 5.3071,-5.68202 11.53865,-9.11054 20.33322,-11.18708 6.91712,-1.63323 23.13815,-1.9575 29.05919,-0.58092 3.31682,0.77114 3.96257,0.61186 5.17184,-1.27571 0.75999,-1.18629 1.92552,-4.97349 2.59007,-8.41602 0.72016,-3.7306 1.71788,-6.25915 2.46976,-6.25915 1.45515,0 1.89149,1.55348 3.50072,12.46347 0.81895,5.55217 1.89956,8.91 3.57561,11.11063 3.83662,5.03742 2.83158,11.60309 -2.06132,13.46608 -1.79872,0.68488 -4.16127,0.096 -10.1892,-2.53937 -9.04694,-3.95538 -14.40068,-4.40365 -17.34751,-1.4525 -4.09671,4.10271 -1.18685,12.01757 4.41821,12.01757 3.90461,0 5.7232,-1.10832 7.06585,-4.30622 l 1.26166,-3.00499 1.24041,3.76401 c 2.35061,7.13284 -0.71445,15.71871 -7.22424,20.2366 -3.49193,2.42346 -5.06582,2.83914 -10.74966,2.83914 -5.45101,0 -7.32875,-0.45411 -10.35257,-2.50366 -3.95992,-2.68404 -8.65966,-10.74447 -8.65966,-14.85203 0,-4.61879 2.33146,-10.21911 5.70065,-13.69333 3.15426,-3.25259 3.20877,-3.41742 0.83077,-2.51199 -8.33807,3.17477 -13.77003,8.48306 -15.58389,15.22908 -1.94698,7.2411 0.79998,16.93547 7.03141,24.81482 1.66158,2.10099 3.02106,4.31845 3.02106,4.9277 0,1.73045 -4.18118,1.29493 -7.59755,-0.79139 z"
       id="path4533" />
    <path
       style="fill:#ffffff;fill-opacity:1;stroke:#000000;stroke-opacity:1"
       d="m 650.77864,633.76854 c 0.51592,-1.35894 2.30478,-11.84925 3.97525,-23.31182 5.43553,-37.2978 3.70339,-53.69314 -6.56838,-62.1724 -3.03253,-2.50332 -8.96319,-5.41695 -6.97665,-3.4275 0.33856,0.33906 -0.74536,1.18953 -2.4087,1.88994 -7.54291,3.1762 -4.96815,13.98664 3.14371,13.19928 2.41078,-0.23399 3.87468,-1.20051 5.50818,-3.63663 l 2.22478,-3.31793 0.68015,3.63086 c 2.4024,12.82464 -5.81906,23.53502 -18.06586,23.53502 -10.49722,0 -18.5,-8.10805 -18.5,-18.74334 0,-8.85443 6.71297,-16.88354 15.13194,-18.09872 l 4.36806,-0.63048 -4.5,-0.71805 c -2.475,-0.39492 -8.1,-0.75075 -12.5,-0.79072 -9.08081,-0.0825 -14.02541,1.74204 -16.41391,6.05665 -2.66883,4.82102 0.40486,10.02327 14.19354,24.02266 14.0971,14.31254 16.47097,18.35985 22.25824,37.9491 5.76799,19.524 9.13016,27.03488 12.10189,27.03488 0.77536,0 1.83185,-1.11185 2.34776,-2.4708 z"
       id="path4531" />
    <path
       style="fill:#ffffff;fill-opacity:1;stroke:#000000;stroke-opacity:1"
       d="m 123.26863,563.38283 c -2.12352,-5.05331 -6.43359,-18.73129 -7.52983,-23.89587 -1.94908,-9.18245 -1.82322,-21.96871 0.23658,-24.03455 2.61716,-2.62484 6.16074,-0.54372 15.78438,9.27006 20.02518,20.42083 35.29636,27.92741 59.18936,29.09465 l 11.65799,0.56952 5.69437,-8.8399 c 28.97523,-44.98103 66.31361,-77.55079 104.98964,-91.58105 11.47462,-4.16258 16.18755,-6.55005 17.39679,-8.81284 1.38308,-2.5881 0.36934,-3.67195 -7.4253,-7.93884 -3.82282,-2.09266 -7.0884,-4.52153 -7.25685,-5.39749 -0.85041,-4.42228 23.76354,-10.11932 57.78536,-13.37476 18.34817,-1.75568 23.01295,-2.44343 22.97275,-3.38705 -0.015,-0.35181 -3.70929,-2.44228 -8.20957,-4.6455 -12.96111,-6.34543 -13.46725,-9.765 -1.95186,-13.18717 7.6564,-2.27535 29.26462,-2.23365 42.18868,0.0814 20.77436,3.72127 43.61785,13.34968 67.47227,28.43923 32.02525,20.25815 37.47522,23.03708 49.44145,25.21015 13.22922,2.40243 24.87783,-2.66869 41.49629,-18.06502 13.45179,-12.46254 20.86185,-16.50028 25.61051,-13.95516 1.51281,0.81081 1.97948,2.10114 1.97948,5.47319 0,2.43004 0.56156,4.77623 1.25,5.22244 0.6875,0.44561 8.17083,0.81021 16.62962,0.81021 16.46256,0 15.2892,-0.33499 17.88359,5.10563 0.41977,0.88028 3.90727,2.60849 7.75,3.84048 8.13193,2.60711 17.70126,7.31841 25.48679,12.54802 7.9336,5.32907 8.45875,5.60642 7.47424,3.94757 -15.98563,-26.93521 -47.57259,-63.26305 -68.97424,-79.32659 -10.35823,-7.77462 -28.04509,-16.87933 -37.5,-19.30397 -9.28722,-2.38163 -23.74527,-2.18043 -32,0.44531 -7.51864,2.3916 -17.465,8.03871 -20.8233,11.82257 -2.07471,2.3376 -2.16131,2.77994 -0.8093,4.13392 1.352,1.35398 2.2426,1.2594 8.3233,-0.88394 5.59081,-1.97066 8.77769,-2.40165 17.8093,-2.40851 17.82992,-0.0135 19.16637,2.03446 3.55012,5.44025 -17.13627,3.73728 -28.72735,11.24351 -35.27371,22.84276 -1.63203,2.89173 -3.1471,5.25769 -3.36683,5.25769 -0.21973,0 -3.14987,-2.21952 -6.51143,-4.93225 -31.94608,-25.78015 -64.72056,-42.75551 -95.25039,-49.33444 -8.21134,-1.76948 -13.29633,-2.17603 -26.64776,-2.13052 -15.14142,0.0516 -17.48806,0.31351 -28.5,3.18063 -15.64053,4.07225 -34.33887,13.2596 -47.97872,23.57413 -18.36564,13.88821 -36.46231,33.37385 -58.22467,62.69358 -19.97968,26.91799 -42.94655,44.8423 -68.34913,53.34255 -22.81611,7.63476 -43.42729,5.78841 -60.58245,-5.427 -10.12891,-6.6219 -12.75802,-7.85981 -16.69293,-7.85981 -4.27988,0 -5.32541,1.25145 -6.75045,8.08001 -0.62437,2.99187 -1.47609,5.80672 -1.89272,6.25524 -1.99872,2.15168 -10.983597,-11.645 -14.427707,-22.1544 -3.93953,-12.02115 -4.93754,-20.08872 -4.28983,-34.67742 1.60898,-36.23978 16.473657,-71.23206 45.730697,-107.65262 9.84002,-12.24931 26.45341,-28.20541 36.01033,-34.5856 10.82887,-7.22935 11.94758,-8.37837 11.94758,-12.2713 0,-2.79408 -0.94587,-4.26605 -5.5,-8.55914 -3.025,-2.85161 -5.5,-5.50547 -5.5,-5.89746 0,-1.19349 2.92131,-1.75821 17.5,-3.38288 7.7,-0.8581 25.7,-1.82606 40,-2.15102 27.78186,-0.63132 40.8346,0.16812 62.43611,3.82402 15.34995,2.59787 37.30604,2.26528 45.52245,-0.68957 l 4.95857,-1.78323 -8.3994,-2.22592 c -5.82329,-1.54322 -16.08505,-6.1025 -33.45856,-14.86557 -28.1036,-14.17525 -36.01438,-16.80463 -56.22596,-18.68825 -10.52954,-0.9813 -36.73656,0.12777 -38.22426,1.61765 -0.25002,0.25038 1.42319,2.06489 3.71823,4.03224 2.29505,1.96736 4.17282,4.38802 4.17282,5.37927 0,3.9339 -1.51185,4.26286 -32.35352,7.0396 -21.65254,1.94943 -48.9539,9.02757 -66.96459,17.3612 -13.268267,6.1393 -13.249387,6.35375 0.5159,5.86225 13.20995,-0.47167 21.5743,0.81259 24.19734,3.71527 1.49779,1.65746 1.48599,1.91629 -0.15508,3.40361 -0.97688,0.88536 -8.29302,3.92769 -16.2581,6.76074 -38.447647,13.67522 -56.185942,26.45912 -70.127103,50.54027 -12.496124,21.58507 -22.863206,61.95569 -22.848946,88.97642 0.01262,23.91628 6.892159,53.56427 19.207084,82.77466 3.868004,9.17471 9.704024,20.02808 10.770652,20.0304 0.284003,6.2e-4 0.362933,-4.73041 0.175401,-10.5134 -0.546209,-16.84357 3.474556,-32.32362 9.403375,-36.20324 3.51188,-2.29806 5.20923,0.17017 8.36558,12.16501 7.37091,28.01114 19.18047,51.48021 33.008717,65.59806 8.29789,8.47167 17.51789,13.96623 15.5408,9.26137 z"
       id="path4529" />
    <path
       style="fill:#ffffff;fill-opacity:1;stroke:#000000;stroke-opacity:1"
       d="m 812.14982,524.80386 c 7.33704,-3.48945 16.49717,-10.25863 22.54116,-16.65753 1.86992,-1.97973 7.60603,-8.88345 12.74691,-15.34159 9.81144,-12.32547 13.26157,-15.43053 15.9832,-14.38461 1.37278,0.52756 1.53854,1.58286 1.00041,6.36926 -0.35475,3.15531 -0.93344,8.66622 -1.28598,12.24645 l -0.64097,6.50952 2.29107,-2.00293 c 6.41115,-5.60482 20.71914,-32.61284 26.47921,-49.98264 5.93789,-17.906 7.85608,-31.90063 7.21895,-52.66742 -0.6082,-19.8234 -2.76836,-31.25097 -9.18287,-48.57865 -12.30502,-33.23991 -36.89682,-64.72338 -66.11126,-84.63848 -20.2375,-13.79563 -37.41727,-20.19823 -54.39853,-20.27338 -8.57727,-0.038 -10.37417,0.30305 -18.5,3.51082 -19.08082,7.53238 -42.54414,12.19154 -75,14.89291 l -15,1.24847 4.5,2.01192 c 3.97349,1.7765 7.60056,2.09755 31,2.744 27.16801,0.75055 35.78093,1.62346 49.18002,4.98429 18.60888,4.66759 39.56415,13.93716 55.59656,24.59318 10.29238,6.84088 24.17364,20.30419 30.19249,29.28343 8.58344,12.80524 16.03093,32.27538 16.03093,41.91 0,3.82574 -0.24859,4.27635 -2.35921,4.27635 -1.32837,0 -4.34478,-1.75033 -6.90345,-4.00585 -5.57533,-4.91479 -6.8917,-5.07776 -6.0668,-0.7511 0.84597,4.43721 8.27647,26.18155 12.91885,37.80527 3.53146,8.84215 3.80366,10.25637 3.85518,20.02928 0.0417,7.9013 -0.40017,11.69793 -1.77728,15.27232 -2.44846,6.3552 -4.54295,6.24091 -8.17722,-0.44623 -1.55528,-2.86174 -5.13977,-7.59366 -7.96553,-10.51537 -7.87207,-8.13936 -9.55741,-7.39746 -13.12135,5.77617 -1.40487,5.19291 -4.75999,14.09719 -7.45581,19.78729 -8.39981,17.72953 -21.38078,28.31948 -38.33062,31.27034 -12.34783,2.14967 -29.54992,-0.92548 -45.3754,-8.1116 l -6.69047,-3.03804 2.97456,3.13078 c 4.40829,4.63983 14.20921,11.80694 20.4679,14.96754 12.00634,6.06313 17.92706,7.26507 38.99583,7.91634 l 19.48918,0.60245 1.37921,2.88739 c 1.78314,3.73302 0.33836,9.06933 -4.43358,16.37539 -1.8832,2.88325 -3.42399,5.65908 -3.42399,6.1685 0,1.42007 9.35902,-1.36965 17.3587,-5.17424 z"
       id="path2996" />
  </g>
</svg>
