<?xml version="1.0" encoding="UTF-8" standalone="no"?>
<svg
   xmlns:dc="http://purl.org/dc/elements/1.1/"
   xmlns:cc="http://creativecommons.org/ns#"
   xmlns:rdf="http://www.w3.org/1999/02/22-rdf-syntax-ns#"
   xmlns:svg="http://www.w3.org/2000/svg"
   xmlns="http://www.w3.org/2000/svg"
   xmlns:xlink="http://www.w3.org/1999/xlink"
   xmlns:sodipodi="http://sodipodi.sourceforge.net/DTD/sodipodi-0.dtd"
   xmlns:inkscape="http://www.inkscape.org/namespaces/inkscape"
   version="1.1"
   x="0px"
   y="0px"
   width="480px"
   height="480px"
   viewBox="0 0 480 480"
   xml:space="preserve"
   id="svg2"
   inkscape:version="0.48.1 r9760"
   sodipodi:docname="ic_action_all_friends.svg"><metadata
   id="metadata11"><rdf:RDF><cc:Work
       rdf:about=""><dc:format>image/svg+xml</dc:format><dc:type
         rdf:resource="http://purl.org/dc/dcmitype/StillImage" /><dc:title /></cc:Work></rdf:RDF></metadata><defs
   id="defs9"><linearGradient
     id="linearGradient5475"><stop
       style="stop-color:#ff4c2f;stop-opacity:1;"
       offset="0"
       id="stop5477" /><stop
       style="stop-color:#d91b1c;stop-opacity:1;"
       offset="1"
       id="stop5479" /></linearGradient><filter
     id="filter5171"
     inkscape:label="Specular light"
     inkscape:menu="ABCs"
     inkscape:menu-tooltip="Basic specular bevel to use for building textures"
     color-interpolation-filters="sRGB"><feGaussianBlur
       id="feGaussianBlur5173"
       result="result0"
       in="SourceAlpha"
       stdDeviation="6" /><feSpecularLighting
       id="feSpecularLighting5175"
       specularExponent="25"
       specularConstant="1"
       surfaceScale="10"
       lighting-color="#ffffff"
       result="result1"
       in="result0"><feDistantLight
         id="feDistantLight5177"
         azimuth="235"
         elevation="45" /></feSpecularLighting><feComposite
       k4="0"
       k1="0"
       id="feComposite5179"
       in2="result1"
       k3="1"
       k2="1"
       operator="arithmetic"
       result="result4"
       in="SourceGraphic" /><feComposite
       id="feComposite5181"
       in2="SourceAlpha"
       operator="in"
       result="result2"
       in="result4" /></filter><filter
     color-interpolation-filters="sRGB"
     id="filter5439"
     inkscape:label="Drop shadow"
     width="1.5"
     height="1.5"
     x="-0.25"
     y="-0.25"><feGaussianBlur
       id="feGaussianBlur5441"
       in="SourceAlpha"
       stdDeviation="5"
       result="blur" /><feColorMatrix
       id="feColorMatrix5443"
       result="bluralpha"
       type="matrix"
       values="1 0 0 0 0 0 1 0 0 0 0 0 1 0 0 0 0 0 0.6 0 " /><feOffset
       id="feOffset5445"
       in="bluralpha"
       dx="0"
       dy="4"
       result="offsetBlur" /><feMerge
       id="feMerge5447"><feMergeNode
         id="feMergeNode5449"
         in="offsetBlur" /><feMergeNode
         id="feMergeNode5451"
         in="SourceGraphic" /></feMerge></filter><clipPath
     clipPathUnits="userSpaceOnUse"
     id="clipPath5372"><path
       sodipodi:type="arc"
       style="fill:none;stroke:#000000;stroke-width:1;stroke-linecap:square;stroke-linejoin:miter;stroke-miterlimit:4;stroke-opacity:1;stroke-dasharray:none"
       id="path5374"
       sodipodi:cx="280.07578"
       sodipodi:cy="779.51416"
       sodipodi:rx="63.24292"
       sodipodi:ry="63.24292"
       d="m 343.3187,779.51416 a 63.24292,63.24292 0 1 1 -126.48584,0 63.24292,63.24292 0 1 1 126.48584,0 z"
       transform="matrix(0.87727326,0,0,0.89258862,-5.3058282,167.15749)" /></clipPath><linearGradient
     id="linearGradient5467"><stop
       style="stop-color:#1a1a1a;stop-opacity:1;"
       offset="0"
       id="stop5469" /><stop
       style="stop-color:#000000;stop-opacity:1;"
       offset="1"
       id="stop5471" /></linearGradient><radialGradient
     inkscape:collect="always"
     xlink:href="#linearGradient5467"
     id="radialGradient4243"
     gradientUnits="userSpaceOnUse"
     gradientTransform="matrix(1.5669948,-0.00946795,0.00596864,0.98784039,-140.25196,12.878452)"
     cx="238.38947"
     cy="879.16357"
     fx="238.38947"
     fy="879.16357"
     r="64.877129" /><linearGradient
     id="linearGradient3892"><stop
       style="stop-color:#1a1a1a;stop-opacity:1;"
       offset="0"
       id="stop3894" /><stop
       style="stop-color:#000000;stop-opacity:1;"
       offset="1"
       id="stop3896" /></linearGradient><mask
     maskUnits="userSpaceOnUse"
     id="mask4163"><g
       id="g4165"><path
         style="fill:url(#linearGradient4173);fill-opacity:1;stroke:none"
         d="m 238.08477,888.17661 0,39.56144 c 5.4682,-8.60936 11.21021,-17.52954 13.94028,-27.69301 -2.18244,-3.64532 -7.10302,-7.91229 -13.94028,-11.86843 z"
         id="path4167"
         inkscape:connector-curvature="0"
         sodipodi:nodetypes="cccc" /><path
         style="fill:none;stroke:url(#linearGradient4175);stroke-width:1;stroke-linecap:butt;stroke-linejoin:round;stroke-miterlimit:4;stroke-opacity:1;stroke-dasharray:none"
         d="m 238.08477,885.53484 0,46.60614"
         id="path4169"
         inkscape:connector-curvature="0"
         sodipodi:nodetypes="cc"
         clip-path="url(#clipPath4051)" /><path
         sodipodi:nodetypes="cccc"
         inkscape:connector-curvature="0"
         id="path4171"
         d="m 238.08477,888.17661 0,39.56144 c -5.4682,-8.60936 -11.21021,-17.52954 -13.94028,-27.69301 2.18244,-3.64532 7.10302,-7.91229 13.94028,-11.86843 z"
         style="fill:url(#linearGradient4177);fill-opacity:1;stroke:none" /></g></mask><linearGradient
     inkscape:collect="always"
     xlink:href="#linearGradient4114"
     id="linearGradient4173"
     gradientUnits="userSpaceOnUse"
     x1="243.36093"
     y1="900.04309"
     x2="247.62825"
     y2="893.63629" /><linearGradient
     id="linearGradient4114"><stop
       style="stop-color:#000000;stop-opacity:1;"
       offset="0"
       id="stop4116" /><stop
       id="stop4199"
       offset="0.5"
       style="stop-color:#b67800;stop-opacity:1;" /><stop
       style="stop-color:#fcaf1c;stop-opacity:1;"
       offset="1"
       id="stop4118" /></linearGradient><linearGradient
     inkscape:collect="always"
     xlink:href="#linearGradient4059"
     id="linearGradient4175"
     gradientUnits="userSpaceOnUse"
     x1="237.83601"
     y1="888.36017"
     x2="237.95665"
     y2="927.42889" /><linearGradient
     id="linearGradient4059"><stop
       style="stop-color:#feb82c;stop-opacity:1;"
       offset="0"
       id="stop4061" /><stop
       style="stop-color:#f3b417;stop-opacity:1;"
       offset="1"
       id="stop4063" /></linearGradient><clipPath
     clipPathUnits="userSpaceOnUse"
     id="clipPath4051"><g
       id="g4053"
       style="fill:none;stroke:#ffffff"><path
         style="fill:none;stroke:#ffffff;stroke-width:0.53272158;stroke-linecap:butt;stroke-linejoin:round;stroke-miterlimit:4;stroke-opacity:1;stroke-dasharray:none"
         d="m 238.08477,888.17661 0,39.56144 c 5.4682,-8.60936 11.21021,-17.52954 13.94028,-27.69301 -2.18244,-3.64532 -7.10302,-7.91229 -13.94028,-11.86843 z"
         id="path4055"
         inkscape:connector-curvature="0"
         sodipodi:nodetypes="cccc" /><path
         sodipodi:nodetypes="cccc"
         inkscape:connector-curvature="0"
         id="path4057"
         d="m 238.08477,888.17661 0,39.56144 c -5.4682,-8.60936 -11.21021,-17.52954 -13.94028,-27.69301 2.18244,-3.64532 7.10302,-7.91229 13.94028,-11.86843 z"
         style="fill:none;stroke:#ffffff;stroke-width:0.53272158;stroke-linecap:butt;stroke-linejoin:round;stroke-miterlimit:4;stroke-opacity:1;stroke-dasharray:none" /></g></clipPath><linearGradient
     inkscape:collect="always"
     xlink:href="#linearGradient4122"
     id="linearGradient4177"
     gradientUnits="userSpaceOnUse"
     x1="231.30499"
     y1="899.91748"
     x2="228.28616"
     y2="892.88257" /><linearGradient
     id="linearGradient4122"><stop
       style="stop-color:#f3b417;stop-opacity:1;"
       offset="0"
       id="stop4124" /><stop
       style="stop-color:#fcaf1c;stop-opacity:1;"
       offset="1"
       id="stop4126" /></linearGradient><linearGradient
     inkscape:collect="always"
     xlink:href="#linearGradient4059"
     id="linearGradient4239"
     gradientUnits="userSpaceOnUse"
     x1="237.83601"
     y1="888.36017"
     x2="237.95665"
     y2="927.42889" /><linearGradient
     id="linearGradient3921"><stop
       style="stop-color:#feb82c;stop-opacity:1;"
       offset="0"
       id="stop3923" /><stop
       style="stop-color:#f3b417;stop-opacity:1;"
       offset="1"
       id="stop3925" /></linearGradient><clipPath
     clipPathUnits="userSpaceOnUse"
     id="clipPath3927"><g
       id="g3929"
       style="fill:none;stroke:#ffffff"><path
         style="fill:none;stroke:#ffffff;stroke-width:0.53272158;stroke-linecap:butt;stroke-linejoin:round;stroke-miterlimit:4;stroke-opacity:1;stroke-dasharray:none"
         d="m 238.08477,888.17661 0,39.56144 c 5.4682,-8.60936 11.21021,-17.52954 13.94028,-27.69301 -2.18244,-3.64532 -7.10302,-7.91229 -13.94028,-11.86843 z"
         id="path3931"
         inkscape:connector-curvature="0"
         sodipodi:nodetypes="cccc" /><path
         sodipodi:nodetypes="cccc"
         inkscape:connector-curvature="0"
         id="path3933"
         d="m 238.08477,888.17661 0,39.56144 c -5.4682,-8.60936 -11.21021,-17.52954 -13.94028,-27.69301 2.18244,-3.64532 7.10302,-7.91229 13.94028,-11.86843 z"
         style="fill:none;stroke:#ffffff;stroke-width:0.53272158;stroke-linecap:butt;stroke-linejoin:round;stroke-miterlimit:4;stroke-opacity:1;stroke-dasharray:none" /></g></clipPath><linearGradient
     id="linearGradient4201"><stop
       id="stop4203"
       offset="0"
       style="stop-color:#986400;stop-opacity:1;" /><stop
       style="stop-color:#b67800;stop-opacity:1;"
       offset="0.74023157"
       id="stop4205" /><stop
       id="stop4207"
       offset="1"
       style="stop-color:#fcaf1c;stop-opacity:1;" /></linearGradient><linearGradient
     id="linearGradient3941"><stop
       style="stop-color:#f3b417;stop-opacity:1;"
       offset="0"
       id="stop3943" /><stop
       style="stop-color:#fcaf1c;stop-opacity:1;"
       offset="1"
       id="stop3945" /></linearGradient><linearGradient
     id="linearGradient4293"><stop
       style="stop-color:#e4310d;stop-opacity:1;"
       offset="0"
       id="stop4295" /><stop
       style="stop-color:#c0290b;stop-opacity:0;"
       offset="1"
       id="stop4297" /></linearGradient><linearGradient
     id="linearGradient3952"><stop
       style="stop-color:#e4310d;stop-opacity:1;"
       offset="0"
       id="stop3954" /><stop
       style="stop-color:#c0290b;stop-opacity:0;"
       offset="1"
       id="stop3956" /></linearGradient><radialGradient
     inkscape:collect="always"
     xlink:href="#linearGradient4293"
     id="radialGradient4127"
     cx="254.4561"
     cy="157.43228"
     fx="254.4561"
     fy="157.43228"
     r="13.967531"
     gradientTransform="matrix(1.4766783,0.05396358,-0.03075353,0.84155025,-116.4521,13.097993)"
     gradientUnits="userSpaceOnUse" /><linearGradient
     id="linearGradient3959"><stop
       style="stop-color:#e4310d;stop-opacity:1;"
       offset="0"
       id="stop3961" /><stop
       style="stop-color:#c0290b;stop-opacity:0;"
       offset="1"
       id="stop3963" /></linearGradient></defs><sodipodi:namedview
   pagecolor="#ffffff"
   bordercolor="#666666"
   borderopacity="1"
   objecttolerance="10"
   gridtolerance="10"
   guidetolerance="10"
   inkscape:pageopacity="0"
   inkscape:pageshadow="2"
   inkscape:window-width="1366"
   inkscape:window-height="716"
   id="namedview7"
   showgrid="false"
   inkscape:zoom="0.86325953"
   inkscape:cx="133.11201"
   inkscape:cy="241.14995"
   inkscape:window-x="0"
   inkscape:window-y="26"
   inkscape:window-maximized="1"
   inkscape:current-layer="all_friends"
   showguides="true"
   inkscape:guide-bbox="true"><sodipodi:guide
     orientation="1,0"
     position="60,0"
     id="guide2983" /><sodipodi:guide
     orientation="0,1"
     position="480,420"
     id="guide2985" /><sodipodi:guide
     orientation="1,0"
     position="420,480"
     id="guide2987" /><sodipodi:guide
     orientation="0,1"
     position="0,60"
     id="guide2989" /></sodipodi:namedview>
  
<g
   id="all_friends"
   transform="translate(-0.007,0.002)">
  	
  	
  	
  <g
   id="all_friends-3"
   style="fill:#343434;fill-opacity:0.60000002">
  	<path
   id="path4145"
   d="m 185.161,285.818 c -9.453,-7.317 -17,-18.963 -20.438,-28.691 -0.406,-0.371 -0.949,-0.846 -1.373,-1.23 -5.297,-4.638 -15.156,-13.284 -15.156,-32.656 0,-9.143 1.748,-15.652 5.514,-20.48 0.518,-0.651 1.174,-1.407 1.984,-2.188 v -19.394 c 0,-23.428 16.861,-54.488 53.471,-65.856 -6.391,-14.644 -22.232,-30.543 -53.656,-30.543 -43.455,0 -57.205,30.422 -57.205,45.851 0,8.313 0,22.479 0,23.514 0,1.049 -6.188,-2.826 -6.188,11.153 0,15.946 10.752,17.047 12.658,23.061 3.375,10.691 13.877,22.314 20.826,22.314 0,0 0.531,2.209 0.531,6.278 0,3.296 -0.078,3.24 -2.402,3.24 -37.77,0 -63.721,39.909 -63.721,52.653 0,16.292 0,34.201 0,34.201 h 80.076 c 13.221,-9.901 28.723,-17.922 45.079,-21.227 z"
   inkscape:connector-curvature="0"
   style="fill:#343434;fill-opacity:0.60000002" />
  	<path
   id="path4147"
   d="m 356.256,220.19 c -2.312,0 -2.408,0.056 -2.408,-3.24 0,-4.069 0.531,-6.278 0.531,-6.278 6.955,0 17.469,-11.623 20.844,-22.314 1.906,-6.014 12.658,-7.114 12.658,-23.061 0,-13.979 -6.174,-10.104 -6.174,-11.153 0,-1.035 0,-15.2 0,-23.514 0,-15.429 -13.781,-45.851 -57.232,-45.851 -31.486,0 -47.342,15.985 -53.701,30.659 36.389,11.459 53.154,42.386 53.154,65.74 v 19.397 c 4.125,3.957 7.486,10.812 7.486,22.664 0,19.377 -9.859,28.022 -15.158,32.661 -0.439,0.384 -0.971,0.854 -1.375,1.229 -3.422,9.733 -10.986,21.37 -20.439,28.688 16.379,3.313 31.877,11.334 45.078,21.227 h 80.488 c 0,0 0,-17.909 0,-34.201 0,-12.743 -25.968,-52.653 -63.752,-52.653 z"
   inkscape:connector-curvature="0"
   style="fill:#343434;fill-opacity:0.60000002" />
  	<path
   id="path4149"
   d="m 278.368,298.86 c -2.814,0 -2.926,-8.948 -2.926,-12.952 0,-4.927 0.643,-7.619 0.643,-7.619 8.439,0 21.189,-14.091 25.283,-27.064 2.312,-7.296 15.355,-8.634 15.355,-27.984 0,-16.956 -7.498,-12.257 -7.498,-13.525 0,-1.26 0,-18.445 0,-28.536 0,-18.712 -16.703,-55.618 -69.422,-55.618 -52.705,0 -69.406,36.906 -69.406,55.618 0,10.091 0,27.276 0,28.536 0,1.269 -7.516,-3.431 -7.516,13.525 0,19.351 13.047,20.688 15.359,27.984 4.107,12.974 16.844,27.064 25.283,27.064 0,0 0.639,2.692 0.639,7.619 0,4.004 -0.096,12.952 -2.922,12.952 -45.811,0 -86.328,48.422 -86.328,63.89 0,19.765 0,32.467 0,32.467 h 124.891 124.893 c 0,0 0,-12.702 0,-32.467 0,-15.468 -40.518,-63.89 -86.328,-63.89 z"
   inkscape:connector-curvature="0"
   style="fill:#343434;fill-opacity:0.60000002" />
  </g></g></svg>