<?xml version="1.0" encoding="UTF-8" standalone="no"?>
<svg
   xmlns:dc="http://purl.org/dc/elements/1.1/"
   xmlns:cc="http://creativecommons.org/ns#"
   xmlns:rdf="http://www.w3.org/1999/02/22-rdf-syntax-ns#"
   xmlns:svg="http://www.w3.org/2000/svg"
   xmlns="http://www.w3.org/2000/svg"
   xmlns:xlink="http://www.w3.org/1999/xlink"
   xmlns:sodipodi="http://sodipodi.sourceforge.net/DTD/sodipodi-0.dtd"
   xmlns:inkscape="http://www.inkscape.org/namespaces/inkscape"
   version="1.1"
   x="0px"
   y="0px"
   width="480px"
   height="480px"
   viewBox="0 0 480 480"
   xml:space="preserve"
   id="svg2"
   inkscape:version="0.48.1 r9760"
   sodipodi:docname="ic_action_online_friends_dark.svg"><metadata
   id="metadata11"><rdf:RDF><cc:Work
       rdf:about=""><dc:format>image/svg+xml</dc:format><dc:type
         rdf:resource="http://purl.org/dc/dcmitype/StillImage" /><dc:title></dc:title></cc:Work></rdf:RDF></metadata><defs
   id="defs9"><linearGradient
     id="linearGradient5475"><stop
       style="stop-color:#ff4c2f;stop-opacity:1;"
       offset="0"
       id="stop5477" /><stop
       style="stop-color:#d91b1c;stop-opacity:1;"
       offset="1"
       id="stop5479" /></linearGradient><filter
     id="filter5171"
     inkscape:label="Specular light"
     inkscape:menu="ABCs"
     inkscape:menu-tooltip="Basic specular bevel to use for building textures"
     color-interpolation-filters="sRGB"><feGaussianBlur
       id="feGaussianBlur5173"
       result="result0"
       in="SourceAlpha"
       stdDeviation="6" /><feSpecularLighting
       id="feSpecularLighting5175"
       specularExponent="25"
       specularConstant="1"
       surfaceScale="10"
       lighting-color="#ffffff"
       result="result1"
       in="result0"><feDistantLight
         id="feDistantLight5177"
         azimuth="235"
         elevation="45" /></feSpecularLighting><feComposite
       k4="0"
       k1="0"
       id="feComposite5179"
       in2="result1"
       k3="1"
       k2="1"
       operator="arithmetic"
       result="result4"
       in="SourceGraphic" /><feComposite
       id="feComposite5181"
       in2="SourceAlpha"
       operator="in"
       result="result2"
       in="result4" /></filter><filter
     color-interpolation-filters="sRGB"
     id="filter5439"
     inkscape:label="Drop shadow"
     width="1.5"
     height="1.5"
     x="-0.25"
     y="-0.25"><feGaussianBlur
       id="feGaussianBlur5441"
       in="SourceAlpha"
       stdDeviation="5"
       result="blur" /><feColorMatrix
       id="feColorMatrix5443"
       result="bluralpha"
       type="matrix"
       values="1 0 0 0 0 0 1 0 0 0 0 0 1 0 0 0 0 0 0.6 0 " /><feOffset
       id="feOffset5445"
       in="bluralpha"
       dx="0"
       dy="4"
       result="offsetBlur" /><feMerge
       id="feMerge5447"><feMergeNode
         id="feMergeNode5449"
         in="offsetBlur" /><feMergeNode
         id="feMergeNode5451"
         in="SourceGraphic" /></feMerge></filter><clipPath
     clipPathUnits="userSpaceOnUse"
     id="clipPath5372"><path
       sodipodi:type="arc"
       style="fill:none;stroke:#000000;stroke-width:1;stroke-linecap:square;stroke-linejoin:miter;stroke-miterlimit:4;stroke-opacity:1;stroke-dasharray:none"
       id="path5374"
       sodipodi:cx="280.07578"
       sodipodi:cy="779.51416"
       sodipodi:rx="63.24292"
       sodipodi:ry="63.24292"
       d="m 343.3187,779.51416 a 63.24292,63.24292 0 1 1 -126.48584,0 63.24292,63.24292 0 1 1 126.48584,0 z"
       transform="matrix(0.87727326,0,0,0.89258862,-5.3058282,167.15749)" /></clipPath><linearGradient
     id="linearGradient5467"><stop
       style="stop-color:#1a1a1a;stop-opacity:1;"
       offset="0"
       id="stop5469" /><stop
       style="stop-color:#000000;stop-opacity:1;"
       offset="1"
       id="stop5471" /></linearGradient><radialGradient
     inkscape:collect="always"
     xlink:href="#linearGradient5467"
     id="radialGradient4243"
     gradientUnits="userSpaceOnUse"
     gradientTransform="matrix(1.5669948,-0.00946795,0.00596864,0.98784039,-140.25196,12.878452)"
     cx="238.38947"
     cy="879.16357"
     fx="238.38947"
     fy="879.16357"
     r="64.877129" /><linearGradient
     id="linearGradient3892"><stop
       style="stop-color:#1a1a1a;stop-opacity:1;"
       offset="0"
       id="stop3894" /><stop
       style="stop-color:#000000;stop-opacity:1;"
       offset="1"
       id="stop3896" /></linearGradient><mask
     maskUnits="userSpaceOnUse"
     id="mask4163"><g
       id="g4165"><path
         style="fill:url(#linearGradient4173);fill-opacity:1;stroke:none"
         d="m 238.08477,888.17661 0,39.56144 c 5.4682,-8.60936 11.21021,-17.52954 13.94028,-27.69301 -2.18244,-3.64532 -7.10302,-7.91229 -13.94028,-11.86843 z"
         id="path4167"
         inkscape:connector-curvature="0"
         sodipodi:nodetypes="cccc" /><path
         style="fill:none;stroke:url(#linearGradient4175);stroke-width:1;stroke-linecap:butt;stroke-linejoin:round;stroke-miterlimit:4;stroke-opacity:1;stroke-dasharray:none"
         d="m 238.08477,885.53484 0,46.60614"
         id="path4169"
         inkscape:connector-curvature="0"
         sodipodi:nodetypes="cc"
         clip-path="url(#clipPath4051)" /><path
         sodipodi:nodetypes="cccc"
         inkscape:connector-curvature="0"
         id="path4171"
         d="m 238.08477,888.17661 0,39.56144 c -5.4682,-8.60936 -11.21021,-17.52954 -13.94028,-27.69301 2.18244,-3.64532 7.10302,-7.91229 13.94028,-11.86843 z"
         style="fill:url(#linearGradient4177);fill-opacity:1;stroke:none" /></g></mask><linearGradient
     inkscape:collect="always"
     xlink:href="#linearGradient4114"
     id="linearGradient4173"
     gradientUnits="userSpaceOnUse"
     x1="243.36093"
     y1="900.04309"
     x2="247.62825"
     y2="893.63629" /><linearGradient
     id="linearGradient4114"><stop
       style="stop-color:#000000;stop-opacity:1;"
       offset="0"
       id="stop4116" /><stop
       id="stop4199"
       offset="0.5"
       style="stop-color:#b67800;stop-opacity:1;" /><stop
       style="stop-color:#fcaf1c;stop-opacity:1;"
       offset="1"
       id="stop4118" /></linearGradient><linearGradient
     inkscape:collect="always"
     xlink:href="#linearGradient4059"
     id="linearGradient4175"
     gradientUnits="userSpaceOnUse"
     x1="237.83601"
     y1="888.36017"
     x2="237.95665"
     y2="927.42889" /><linearGradient
     id="linearGradient4059"><stop
       style="stop-color:#feb82c;stop-opacity:1;"
       offset="0"
       id="stop4061" /><stop
       style="stop-color:#f3b417;stop-opacity:1;"
       offset="1"
       id="stop4063" /></linearGradient><clipPath
     clipPathUnits="userSpaceOnUse"
     id="clipPath4051"><g
       id="g4053"
       style="fill:none;stroke:#ffffff"><path
         style="fill:none;stroke:#ffffff;stroke-width:0.53272158;stroke-linecap:butt;stroke-linejoin:round;stroke-miterlimit:4;stroke-opacity:1;stroke-dasharray:none"
         d="m 238.08477,888.17661 0,39.56144 c 5.4682,-8.60936 11.21021,-17.52954 13.94028,-27.69301 -2.18244,-3.64532 -7.10302,-7.91229 -13.94028,-11.86843 z"
         id="path4055"
         inkscape:connector-curvature="0"
         sodipodi:nodetypes="cccc" /><path
         sodipodi:nodetypes="cccc"
         inkscape:connector-curvature="0"
         id="path4057"
         d="m 238.08477,888.17661 0,39.56144 c -5.4682,-8.60936 -11.21021,-17.52954 -13.94028,-27.69301 2.18244,-3.64532 7.10302,-7.91229 13.94028,-11.86843 z"
         style="fill:none;stroke:#ffffff;stroke-width:0.53272158;stroke-linecap:butt;stroke-linejoin:round;stroke-miterlimit:4;stroke-opacity:1;stroke-dasharray:none" /></g></clipPath><linearGradient
     inkscape:collect="always"
     xlink:href="#linearGradient4122"
     id="linearGradient4177"
     gradientUnits="userSpaceOnUse"
     x1="231.30499"
     y1="899.91748"
     x2="228.28616"
     y2="892.88257" /><linearGradient
     id="linearGradient4122"><stop
       style="stop-color:#f3b417;stop-opacity:1;"
       offset="0"
       id="stop4124" /><stop
       style="stop-color:#fcaf1c;stop-opacity:1;"
       offset="1"
       id="stop4126" /></linearGradient><linearGradient
     inkscape:collect="always"
     xlink:href="#linearGradient4059"
     id="linearGradient4239"
     gradientUnits="userSpaceOnUse"
     x1="237.83601"
     y1="888.36017"
     x2="237.95665"
     y2="927.42889" /><linearGradient
     id="linearGradient3921"><stop
       style="stop-color:#feb82c;stop-opacity:1;"
       offset="0"
       id="stop3923" /><stop
       style="stop-color:#f3b417;stop-opacity:1;"
       offset="1"
       id="stop3925" /></linearGradient><clipPath
     clipPathUnits="userSpaceOnUse"
     id="clipPath3927"><g
       id="g3929"
       style="fill:none;stroke:#ffffff"><path
         style="fill:none;stroke:#ffffff;stroke-width:0.53272158;stroke-linecap:butt;stroke-linejoin:round;stroke-miterlimit:4;stroke-opacity:1;stroke-dasharray:none"
         d="m 238.08477,888.17661 0,39.56144 c 5.4682,-8.60936 11.21021,-17.52954 13.94028,-27.69301 -2.18244,-3.64532 -7.10302,-7.91229 -13.94028,-11.86843 z"
         id="path3931"
         inkscape:connector-curvature="0"
         sodipodi:nodetypes="cccc" /><path
         sodipodi:nodetypes="cccc"
         inkscape:connector-curvature="0"
         id="path3933"
         d="m 238.08477,888.17661 0,39.56144 c -5.4682,-8.60936 -11.21021,-17.52954 -13.94028,-27.69301 2.18244,-3.64532 7.10302,-7.91229 13.94028,-11.86843 z"
         style="fill:none;stroke:#ffffff;stroke-width:0.53272158;stroke-linecap:butt;stroke-linejoin:round;stroke-miterlimit:4;stroke-opacity:1;stroke-dasharray:none" /></g></clipPath><linearGradient
     id="linearGradient4201"><stop
       id="stop4203"
       offset="0"
       style="stop-color:#986400;stop-opacity:1;" /><stop
       style="stop-color:#b67800;stop-opacity:1;"
       offset="0.74023157"
       id="stop4205" /><stop
       id="stop4207"
       offset="1"
       style="stop-color:#fcaf1c;stop-opacity:1;" /></linearGradient><linearGradient
     id="linearGradient3941"><stop
       style="stop-color:#f3b417;stop-opacity:1;"
       offset="0"
       id="stop3943" /><stop
       style="stop-color:#fcaf1c;stop-opacity:1;"
       offset="1"
       id="stop3945" /></linearGradient><linearGradient
     id="linearGradient4293"><stop
       style="stop-color:#e4310d;stop-opacity:1;"
       offset="0"
       id="stop4295" /><stop
       style="stop-color:#c0290b;stop-opacity:0;"
       offset="1"
       id="stop4297" /></linearGradient><linearGradient
     id="linearGradient3952"><stop
       style="stop-color:#e4310d;stop-opacity:1;"
       offset="0"
       id="stop3954" /><stop
       style="stop-color:#c0290b;stop-opacity:0;"
       offset="1"
       id="stop3956" /></linearGradient><radialGradient
     inkscape:collect="always"
     xlink:href="#linearGradient4293"
     id="radialGradient4127"
     cx="254.4561"
     cy="157.43228"
     fx="254.4561"
     fy="157.43228"
     r="13.967531"
     gradientTransform="matrix(1.4766783,0.05396358,-0.03075353,0.84155025,-116.4521,13.097993)"
     gradientUnits="userSpaceOnUse" /><linearGradient
     id="linearGradient3959"><stop
       style="stop-color:#e4310d;stop-opacity:1;"
       offset="0"
       id="stop3961" /><stop
       style="stop-color:#c0290b;stop-opacity:0;"
       offset="1"
       id="stop3963" /></linearGradient></defs><sodipodi:namedview
   pagecolor="#000000"
   bordercolor="#666666"
   borderopacity="1"
   objecttolerance="10"
   gridtolerance="10"
   guidetolerance="10"
   inkscape:pageopacity="1"
   inkscape:pageshadow="2"
   inkscape:window-width="1366"
   inkscape:window-height="716"
   id="namedview7"
   showgrid="false"
   inkscape:zoom="0.86325953"
   inkscape:cx="111.68161"
   inkscape:cy="241.14995"
   inkscape:window-x="0"
   inkscape:window-y="26"
   inkscape:window-maximized="1"
   inkscape:current-layer="all_friends"
   showguides="true"
   inkscape:guide-bbox="true"><sodipodi:guide
     orientation="1,0"
     position="60,0"
     id="guide2983" /><sodipodi:guide
     orientation="0,1"
     position="480,420"
     id="guide2985" /><sodipodi:guide
     orientation="1,0"
     position="420,480"
     id="guide2987" /><sodipodi:guide
     orientation="0,1"
     position="0,60"
     id="guide2989" /></sodipodi:namedview>
  
<g
   id="all_friends"
   transform="translate(-0.007,0.002)">
  	<path
   id="path3163"
   d="m 182.57943,285.89081 c -8.89152,-7.32293 -15.99027,-18.97836 -19.22405,-28.71424 -0.38188,-0.3713 -0.89264,-0.84668 -1.29145,-1.23099 -4.98238,-4.64176 -14.25578,-13.29476 -14.25578,-32.68245 0,-9.1504 1.64417,-15.66467 5.18647,-20.49659 0.48724,-0.65153 1.10428,-1.40814 1.86617,-2.18976 v -19.40971 c 0,-23.44697 15.85951,-54.53213 50.29501,-65.90934 -6.0114,-14.65585 -20.91149,-30.567728 -50.46902,-30.567728 -40.87392,0 -53.80723,30.446638 -53.80723,45.888128 0,8.31973 0,22.4972 0,23.53304 0,1.04986 -5.820454,-2.82828 -5.820454,11.16204 0,15.95891 10.113374,17.0608 11.906164,23.07967 3.17453,10.69967 13.05275,22.33207 19.58901,22.33207 0,0 0.49946,2.21079 0.49946,6.28309 0,3.29867 -0.0734,3.24262 -2.25933,3.24262 -35.526599,0 -59.936201,39.94132 -59.936201,52.69564 0,16.3052 0,34.2287 0,34.2287 h 75.319771 c 12.43571,-9.90902 27.01696,-17.93652 42.40146,-21.24419 z"
   inkscape:connector-curvature="0"
   style="fill:none;stroke:#ffffff;stroke-width:10;stroke-miterlimit:4;stroke-opacity:0.80000001;stroke-dasharray:none;stroke-dashoffset:0;fill-opacity:0.60000001999999997" />
  	<path
   id="path3165"
   d="m 355.22131,220.22449 c -2.17354,0 -2.26379,0.056 -2.26379,-3.24472 0,-4.07481 0.4992,-6.28691 0.4992,-6.28691 6.53852,0 16.42286,-11.63938 19.59577,-22.34563 1.79189,-6.02245 11.89997,-7.12401 11.89997,-23.09367 0,-13.9988 -5.80423,-10.11832 -5.80423,-11.16882 0,-1.03644 0,-15.22154 0,-23.54734 0,-15.45087 -12.95574,-45.916039 -53.80465,-45.916039 -29.60049,0 -44.507,16.007699 -50.48517,30.702499 34.20987,11.47522 49.97083,42.44607 49.97083,65.8333 v 19.42457 c 3.87811,3.96236 7.03783,10.82714 7.03783,22.69595 0,19.40454 -9.26873,28.06182 -14.25035,32.70741 -0.4127,0.38455 -0.91284,0.85522 -1.29271,1.23074 -3.21707,9.7468 -10.32804,21.4003 -19.21496,28.72871 15.39813,3.31767 29.968,11.35009 42.37856,21.25709 h 75.66797 c 0,0 0,-17.9344 0,-34.24951 0,-12.76106 -24.41292,-52.72763 -59.93427,-52.72763 z"
   inkscape:connector-curvature="0"
   style="fill:none;stroke:#ffffff;stroke-width:10;stroke-miterlimit:4;stroke-opacity:0.80000001;stroke-dasharray:none;stroke-dashoffset:0;fill-opacity:0.60000001999999997" />
  	<path
   id="path3167"
   d="m 278.368,298.86 c -2.814,0 -2.926,-8.948 -2.926,-12.952 0,-4.927 0.643,-7.619 0.643,-7.619 8.439,0 21.189,-14.091 25.283,-27.064 2.312,-7.296 15.355,-8.634 15.355,-27.984 0,-16.956 -7.498,-12.257 -7.498,-13.525 0,-1.26 0,-18.445 0,-28.536 0,-18.712 -16.703,-55.618 -69.422,-55.618 -52.705,0 -69.406,36.906 -69.406,55.618 0,10.091 0,27.276 0,28.536 0,1.269 -7.516,-3.431 -7.516,13.525 0,19.351 13.047,20.688 15.359,27.984 4.107,12.974 16.844,27.064 25.283,27.064 0,0 0.639,2.692 0.639,7.619 0,4.004 -0.096,12.952 -2.922,12.952 -45.811,0 -86.328,48.422 -86.328,63.89 0,19.765 0,32.467 0,32.467 h 124.891 124.893 c 0,0 0,-12.702 0,-32.467 0,-15.468 -40.518,-63.89 -86.328,-63.89 z"
   inkscape:connector-curvature="0"
   style="fill:#ffffff;fill-opacity:0.80000001" />
  </g></svg>