<?xml version="1.0" encoding="UTF-8" standalone="no"?>
<!-- Created with Inkscape (http://www.inkscape.org/) -->

<svg
   xmlns:dc="http://purl.org/dc/elements/1.1/"
   xmlns:cc="http://creativecommons.org/ns#"
   xmlns:rdf="http://www.w3.org/1999/02/22-rdf-syntax-ns#"
   xmlns:svg="http://www.w3.org/2000/svg"
   xmlns="http://www.w3.org/2000/svg"
   xmlns:sodipodi="http://sodipodi.sourceforge.net/DTD/sodipodi-0.dtd"
   xmlns:inkscape="http://www.inkscape.org/namespaces/inkscape"
   width="55.16"
   height="30.940001"
   id="svg3236"
   version="1.1"
   inkscape:version="0.48.1 r9760"
   sodipodi:docname="ic_chat_msg_status_queued.svg">
  <defs
     id="defs3238" />
  <sodipodi:namedview
     id="base"
     pagecolor="#414141"
     bordercolor="#666666"
     borderopacity="1.0"
     inkscape:pageopacity="0.64313725"
     inkscape:pageshadow="2"
     inkscape:zoom="11.2"
     inkscape:cx="26.726266"
     inkscape:cy="12.08442"
     inkscape:document-units="px"
     inkscape:current-layer="layer1"
     showgrid="false"
     fit-margin-top="0"
     fit-margin-left="0"
     fit-margin-right="0"
     fit-margin-bottom="0"
     inkscape:window-width="1366"
     inkscape:window-height="716"
     inkscape:window-x="0"
     inkscape:window-y="26"
     inkscape:window-maximized="1" />
  <metadata
     id="metadata3241">
    <rdf:RDF>
      <cc:Work
         rdf:about="">
        <dc:format>image/svg+xml</dc:format>
        <dc:type
           rdf:resource="http://purl.org/dc/dcmitype/StillImage" />
        <dc:title></dc:title>
      </cc:Work>
    </rdf:RDF>
  </metadata>
  <g
     inkscape:label="Ebene 1"
     inkscape:groupmode="layer"
     id="layer1"
     transform="translate(-157.4995,-65.46211)">
    <path
       sodipodi:nodetypes="ccsscccsccc"
       id="path4630"
       d="m 181.02308,77.93891 16.82433,0 0,-4.895347 c 0,-1.346228 0.84202,-1.735413 1.86757,-0.867707 l 12.17351,10.299818 c 1.02801,0.870148 1.02801,2.294683 0,3.16239 l -12.17351,10.299803 c -1.02679,0.870148 -1.86757,0.480978 -1.86757,-0.865251 l 0,-4.895346 -16.82433,0 z"
       inkscape:connector-curvature="0"
       style="fill:#b3b3b3" />
    <path
       style="fill:#b3b3b3"
       d="M 44.5625 2.71875 C 44.477141 2.7439219 44.3795 2.79125 44.28125 2.875 L 41.9375 4.875 C 42.402585 5.0174044 42.835243 5.2644557 43.1875 5.5625 L 45 7.09375 L 45 3.21875 C 45 2.83175 44.818578 2.6432344 44.5625 2.71875 z M 38.84375 7.5 L 34.75 10.96875 L 38.84375 10.96875 L 38.84375 7.5625 C 38.84375 7.5421032 38.843467 7.5205204 38.84375 7.5 z M 41.84375 8.34375 L 41.84375 12.46875 L 41.84375 13.96875 L 40.34375 13.96875 L 31.5 13.96875 C 31.404873 14.26506 31.453337 14.596394 31.6875 14.84375 L 39.625 23.21875 L 40.34375 23.21875 L 41.84375 23.21875 L 41.84375 24.71875 L 41.84375 25.5625 L 43.53125 27.375 L 45 26.15625 L 45 11.03125 L 41.84375 8.34375 z "
       transform="translate(157.4995,65.46211)"
       id="path874" />
    <path
       style="fill:#b3b3b3"
       d="M 2.28125 0 C 1.76625 0 1.6675 0.26275 2.0625 0.59375 L 21.78125 17.125 C 21.851874 17.184032 21.947628 17.212151 22.03125 17.25 L 22.03125 12.46875 L 22.03125 10.96875 L 23.53125 10.96875 L 30.4375 10.96875 L 42.59375 0.625 C 42.98775 0.291 42.89 0 42.375 0 L 2.28125 0 z M 25.03125 13.96875 L 25.03125 15.59375 L 26.9375 13.96875 L 25.03125 13.96875 z "
       transform="translate(157.4995,65.46211)"
       id="path878" />
    <g
       id="g880"
       style="fill:#b3b3b3"
       transform="translate(-210.6545,-118.17689)">
      <path
         style="fill:#b3b3b3"
         inkscape:connector-curvature="0"
         d="m 368.154,211.597 c 0,0.516 0.29,0.631 0.645,0.256 l 12.625,-13.326 c 0.354,-0.375 0.321,-0.951 -0.074,-1.283 l -12.477,-10.465 c -0.396,-0.332 -0.719,-0.181 -0.719,0.335 v 24.483 z"
         id="path882" />
    </g>
    <path
       style="fill:#b3b3b3"
       d="M 28.875 16.34375 C 28.62875 16.3305 28.3835 16.42675 28.1875 16.59375 L 25.03125 19.25 L 25.03125 23.21875 L 35.75 23.21875 L 29.53125 16.65625 C 29.35425 16.46925 29.12125 16.357 28.875 16.34375 z M 16.09375 16.40625 C 15.84675 16.420375 15.6145 16.5 15.4375 16.6875 L 2.59375 30.25 C 2.23975 30.625 2.359 30.9375 2.875 30.9375 L 39.09375 30.9375 C 38.917384 30.50544 38.84375 30.035425 38.84375 29.59375 L 38.84375 26.5 L 38.59375 26.21875 L 23.53125 26.21875 L 22.03125 26.21875 L 22.03125 24.71875 L 22.03125 20.875 C 21.699453 20.669339 21.222631 20.35307 20.875 20.0625 L 16.78125 16.625 C 16.58325 16.459 16.34075 16.392125 16.09375 16.40625 z "
       transform="translate(157.4995,65.46211)"
       id="path886" />
    <path
       style="fill:#b3b3b3"
       inkscape:connector-curvature="0"
       d="m 157.4995,93.42011 c 0,0.516 0.29,0.631 0.645,0.256 l 12.625,-13.326 c 0.354,-0.375 0.321,-0.951 -0.074,-1.283 l -12.477,-10.465 c -0.396,-0.332 -0.719,-0.181 -0.719,0.335 v 24.483 z"
       id="path5481" />
  </g>
</svg>
