<?xml version="1.0" encoding="UTF-8" standalone="no"?>
<!-- Created with Inkscape (http://www.inkscape.org/) -->

<svg
   xmlns:dc="http://purl.org/dc/elements/1.1/"
   xmlns:cc="http://creativecommons.org/ns#"
   xmlns:rdf="http://www.w3.org/1999/02/22-rdf-syntax-ns#"
   xmlns:svg="http://www.w3.org/2000/svg"
   xmlns="http://www.w3.org/2000/svg"
   xmlns:sodipodi="http://sodipodi.sourceforge.net/DTD/sodipodi-0.dtd"
   xmlns:inkscape="http://www.inkscape.org/namespaces/inkscape"
   width="55.16"
   height="30.937"
   id="svg3358"
   version="1.1"
   inkscape:version="0.48.1 r9760"
   sodipodi:docname="ic_chat_msg_status_failed.svg">
  <defs
     id="defs3360" />
  <sodipodi:namedview
     id="base"
     pagecolor="#575757"
     bordercolor="#666666"
     borderopacity="1.0"
     inkscape:pageopacity="0.78823529"
     inkscape:pageshadow="2"
     inkscape:zoom="7.919596"
     inkscape:cx="34.207599"
     inkscape:cy="21.370654"
     inkscape:document-units="px"
     inkscape:current-layer="layer1"
     showgrid="false"
     fit-margin-top="0"
     fit-margin-left="0"
     fit-margin-right="0"
     fit-margin-bottom="0"
     inkscape:window-width="1366"
     inkscape:window-height="716"
     inkscape:window-x="0"
     inkscape:window-y="26"
     inkscape:window-maximized="1" />
  <metadata
     id="metadata3363">
    <rdf:RDF>
      <cc:Work
         rdf:about="">
        <dc:format>image/svg+xml</dc:format>
        <dc:type
           rdf:resource="http://purl.org/dc/dcmitype/StillImage" />
        <dc:title />
      </cc:Work>
    </rdf:RDF>
  </metadata>
  <g
     inkscape:label="Ebene 1"
     inkscape:groupmode="layer"
     id="layer1"
     transform="translate(-306.07093,-142.60797)">
    <path
       style="fill:#b3b3b3"
       d="M 44.5625 2.71875 C 44.477141 2.7439219 44.3795 2.79125 44.28125 2.875 L 40.25 6.28125 C 40.997675 7.4467139 41.829774 8.6070472 42.6875 9.75 C 43.454452 8.9059423 44.220064 8.0667357 45 7.25 L 45 3.1875 C 45 2.8005 44.818578 2.6432344 44.5625 2.71875 z M 38 8.21875 L 37.03125 9.03125 L 37.03125 9.15625 L 36.96875 9.09375 L 35.6875 10.1875 C 36.705798 12.689194 37.819663 14.858969 39 16.6875 L 39.625 17.6875 L 38.84375 18.53125 C 38.21316 19.213318 37.6052 19.849326 37.03125 20.5 L 39.4375 23.03125 C 39.690051 22.738776 39.911096 22.469906 40.1875 22.15625 L 41.53125 20.65625 L 42.59375 22.34375 C 43.482169 23.746151 44.281305 24.874071 45 25.8125 L 45 18.125 C 44.946157 18.051283 44.897561 17.980423 44.84375 17.90625 L 44.1875 17.03125 L 44.875 16.125 C 44.915678 16.07082 44.959304 16.022702 45 15.96875 L 45 11.5 C 44.528784 12.012701 44.058035 12.53189 43.59375 13.0625 L 42.4375 14.40625 L 41.3125 13 C 40.06113 11.44834 38.988342 9.836404 38 8.21875 z M 33.3125 12.21875 L 31.75 13.53125 C 31.356 13.86525 31.3325 14.46875 31.6875 14.84375 L 35 18.34375 C 35.304703 18.000516 35.590906 17.691704 35.90625 17.34375 C 34.978201 15.798394 34.116906 14.082601 33.3125 12.21875 z "
       transform="translate(306.07093,142.60797)"
       id="path4516" />
    <path
       style="fill:#b3b3b3"
       d="M 2.28125 0 C 1.76625 0 1.6675 0.26275 2.0625 0.59375 L 21.78125 17.125 C 22.17725 17.456 22.82575 17.46 23.21875 17.125 L 32.1875 9.46875 C 31.920318 8.7143401 31.749981 8.1355052 31.75 7.4375 C 31.74998 6.67432 31.98533 6.10328 32.3125 5.40625 L 32.3125 5.375 C 32.47271 5.05461 32.69586 4.71994 33.03125 4.4375 C 33.36664 4.15506 33.87569 3.93756 34.375 3.9375 C 34.64885 3.93753 34.81444 4.03635 35.03125 4.09375 C 35.0898 4.00517 35.1176 3.8999 35.1875 3.8125 C 35.4404 3.49638 35.84748 3.03137 36.6875 3.03125 C 37.368998 3.0312916 38.184239 3.3065996 38.71875 3.90625 L 42.59375 0.59375 C 42.98775 0.25975 42.89 0 42.375 0 L 2.28125 0 z "
       transform="translate(306.07093,142.60797)"
       id="path4520" />
    <path
       style="fill:#b3b3b3"
       inkscape:connector-curvature="0"
       d="m 306.07093,170.56297 c 0,0.516 0.29,0.631 0.645,0.256 l 12.625,-13.326 c 0.354,-0.375 0.321,-0.951 -0.074,-1.283 l -12.477,-10.465 c -0.396,-0.332 -0.719,-0.181 -0.719,0.335 v 24.483 z"
       id="path4524" />
    <path
       style="fill:#b3b3b3"
       d="M 28.875 16.34375 C 28.62875 16.3305 28.3835 16.42675 28.1875 16.59375 L 24.125 20.03125 C 23.732 20.36625 23.1355 20.78475 22.8125 20.96875 L 22.5 20.96875 L 22.1875 20.96875 C 21.8675 20.78775 21.271 20.36225 20.875 20.03125 L 16.78125 16.625 C 16.38525 16.293 15.7915 16.3125 15.4375 16.6875 L 2.59375 30.25 C 2.23975 30.625 2.359 30.9375 2.875 30.9375 L 32.09375 30.9375 C 31.65804 30.772228 31.30398 30.52849 31 30.21875 C 30.9898 30.20835 30.97875 30.1978 30.96875 30.1875 C 30.71777 29.94144 30.50225 29.71159 30.3125 29.4375 C 30.11435 29.15128 29.87494 28.82189 29.875 28.1875 C 29.87497 27.75424 30.14174 27.46395 30.28125 27.125 C 30.01077 26.68327 29.74998 26.21154 29.75 25.65625 C 29.74997 24.83753 30.11024 24.31809 30.5 23.8125 C 30.5077 23.8022 30.52325 23.79155 30.53125 23.78125 C 31.296932 22.746069 32.162622 21.611499 33.125 20.46875 L 29.53125 16.65625 C 29.35425 16.46925 29.12125 16.357 28.875 16.34375 z M 35.21875 22.65625 C 34.375095 23.673965 33.589025 24.669373 32.90625 25.59375 L 34.25 26.03125 L 33.15625 27.6875 C 32.992 27.93435 33.0345 27.88225 33 27.96875 C 33.0347 28.00505 33.0197 28.0209 33.0625 28.0625 L 33.09375 28.0625 L 33.125 28.09375 L 34.875 27.03125 L 35.09375 28.5 C 35.792973 27.515211 36.612918 26.435796 37.625 25.1875 L 35.21875 22.65625 z M 39.71875 27.40625 C 38.559143 28.783839 37.547928 30.064337 36.9375 30.9375 L 42.125 30.9375 C 42.641 30.9375 42.76025 30.625 42.40625 30.25 L 39.71875 27.40625 z "
       transform="translate(306.07093,142.60797)"
       id="path4528" />
    <g
       style="font-size:12px;font-style:normal;font-weight:normal;line-height:125%;letter-spacing:0px;word-spacing:0px;fill:#d40000;fill-opacity:1;stroke:none;font-family:Bitstream Vera Sans"
       id="text4530"
       transform="matrix(1.3538105,0,0,1.3538105,-110.11926,-57.21318)">
      <path
         d="m 345.70462,149.75162 c 0.2643,2e-5 0.51951,0.13674 0.76563,0.41015 0.18227,0.20054 0.30987,0.56513 0.38281,1.09375 0.23696,-0.009 0.40102,0.009 0.49219,0.0547 0.29164,0.1094 0.50128,0.22788 0.6289,0.35547 0.12758,0.11851 0.19139,0.27346 0.19141,0.46484 -2e-5,0.3646 -0.0729,0.61981 -0.21875,0.76563 -2.19664,1.99611 -4.3659,4.42058 -6.50781,7.27344 1.34894,1.85938 2.69789,3.52735 4.04687,5.0039 0.15493,0.16407 0.2324,0.35548 0.23242,0.57422 -2e-5,0.44662 -0.13674,0.78842 -0.41015,1.02539 -0.18231,0.15495 -0.44208,0.24154 -0.7793,0.25977 -0.0183,0.15495 -0.0912,0.39193 -0.21875,0.71093 -0.21877,0.52865 -0.47398,0.79298 -0.76563,0.79297 -0.32814,1e-5 -0.62892,-0.10937 -0.90234,-0.32812 -0.0729,0.16406 -0.17319,0.29622 -0.30078,0.39648 -0.32814,0.2461 -0.61525,0.36915 -0.86133,0.36914 -0.20965,1e-5 -0.43296,-0.1276 -0.66992,-0.38281 -0.81121,-0.86588 -1.76824,-2.16927 -2.87109,-3.91016 -2.09637,2.37891 -3.54558,4.1836 -4.34766,5.41407 -0.15496,0.23698 -0.32813,0.35547 -0.51953,0.35547 l -0.0274,0 c -0.16406,0 -0.32357,-0.16407 -0.47851,-0.49219 -0.13673,-0.28255 -0.2142,-0.48307 -0.23242,-0.60156 -0.1823,0.10937 -0.35548,0.16406 -0.51953,0.16406 -0.22787,0 -0.47397,-0.13672 -0.73829,-0.41016 -0.32812,-0.31901 -0.49219,-0.55599 -0.49218,-0.71094 -1e-5,-0.24609 0.13671,-0.57421 0.41015,-0.98437 -0.082,-0.0273 -0.16406,-0.10026 -0.24609,-0.21875 -0.16407,-0.21875 -0.2461,-0.4375 -0.24609,-0.65625 -10e-6,-0.1914 0.10937,-0.42838 0.32812,-0.71094 1.18489,-1.60416 2.67057,-3.37239 4.45703,-5.30469 -1.11198,-1.72264 -2.11915,-3.80076 -3.02148,-6.23437 -0.20053,-0.55597 -0.30079,-0.96157 -0.30078,-1.2168 -10e-6,-0.23696 0.10481,-0.57876 0.31445,-1.02539 0.14583,-0.29165 0.319,-0.43748 0.51953,-0.4375 0.23697,2e-5 0.57421,0.17776 1.01172,0.53321 0.009,-0.12759 0.0638,-0.30532 0.16406,-0.53321 0.20963,-0.45571 0.39192,-0.68357 0.54688,-0.68359 0.39192,2e-5 0.64712,0.11851 0.76562,0.35547 0.96614,1.78647 2.1328,3.52736 3.5,5.22265 2.10546,-2.40623 4.29295,-4.60284 6.5625,-6.58984 0.10936,-0.10935 0.22785,-0.16404 0.35547,-0.16406"
         style="font-size:28px;fill:#d40000"
         id="path10267"
         inkscape:connector-curvature="0" />
    </g>
  </g>
</svg>
