<?xml version="1.0" encoding="UTF-8" standalone="no"?>
<svg
   xmlns:dc="http://purl.org/dc/elements/1.1/"
   xmlns:cc="http://creativecommons.org/ns#"
   xmlns:rdf="http://www.w3.org/1999/02/22-rdf-syntax-ns#"
   xmlns:svg="http://www.w3.org/2000/svg"
   xmlns="http://www.w3.org/2000/svg"
   xmlns:xlink="http://www.w3.org/1999/xlink"
   xmlns:sodipodi="http://sodipodi.sourceforge.net/DTD/sodipodi-0.dtd"
   xmlns:inkscape="http://www.inkscape.org/namespaces/inkscape"
   version="1.1"
   x="0px"
   y="0px"
   width="480px"
   height="480px"
   viewBox="0 0 480 480"
   xml:space="preserve"
   id="svg2"
   inkscape:version="0.48.1 r9760"
   sodipodi:docname="ic_title_appicon.svg"><metadata
   id="metadata11"><rdf:RDF><cc:Work
       rdf:about=""><dc:format>image/svg+xml</dc:format><dc:type
         rdf:resource="http://purl.org/dc/dcmitype/StillImage" /></cc:Work></rdf:RDF></metadata><defs
   id="defs9"><filter
     color-interpolation-filters="sRGB"
     inkscape:collect="always"
     id="filter5621"><feGaussianBlur
       inkscape:collect="always"
       stdDeviation="6.6027472527472533"
       id="feGaussianBlur5623" /></filter><radialGradient
     inkscape:collect="always"
     xlink:href="#linearGradient5475"
     id="radialGradient5641"
     gradientUnits="userSpaceOnUse"
     gradientTransform="matrix(1.5996226,-0.03378173,0.0289101,1.5411794,-107.22858,-347.25105)"
     cx="147.44635"
     cy="650.85999"
     fx="147.44635"
     fy="650.85999"
     r="96.129234" /><linearGradient
     id="linearGradient5475"><stop
       style="stop-color:#ff4c2f;stop-opacity:1;"
       offset="0"
       id="stop5477" /><stop
       style="stop-color:#d91b1c;stop-opacity:1;"
       offset="1"
       id="stop5479" /></linearGradient><filter
     id="filter5171"
     inkscape:label="Specular light"
     inkscape:menu="ABCs"
     inkscape:menu-tooltip="Basic specular bevel to use for building textures"
     color-interpolation-filters="sRGB"><feGaussianBlur
       id="feGaussianBlur5173"
       result="result0"
       in="SourceAlpha"
       stdDeviation="6" /><feSpecularLighting
       id="feSpecularLighting5175"
       specularExponent="25"
       specularConstant="1"
       surfaceScale="10"
       lighting-color="#ffffff"
       result="result1"
       in="result0"><feDistantLight
         id="feDistantLight5177"
         azimuth="235"
         elevation="45" /></feSpecularLighting><feComposite
       k4="0"
       k1="0"
       id="feComposite5179"
       in2="result1"
       k3="1"
       k2="1"
       operator="arithmetic"
       result="result4"
       in="SourceGraphic" /><feComposite
       id="feComposite5181"
       in2="SourceAlpha"
       operator="in"
       result="result2"
       in="result4" /></filter><filter
     color-interpolation-filters="sRGB"
     id="filter5439"
     inkscape:label="Drop shadow"
     width="1.5"
     height="1.5"
     x="-0.25"
     y="-0.25"><feGaussianBlur
       id="feGaussianBlur5441"
       in="SourceAlpha"
       stdDeviation="5"
       result="blur" /><feColorMatrix
       id="feColorMatrix5443"
       result="bluralpha"
       type="matrix"
       values="1 0 0 0 0 0 1 0 0 0 0 0 1 0 0 0 0 0 0.6 0 " /><feOffset
       id="feOffset5445"
       in="bluralpha"
       dx="0"
       dy="4"
       result="offsetBlur" /><feMerge
       id="feMerge5447"><feMergeNode
         id="feMergeNode5449"
         in="offsetBlur" /><feMergeNode
         id="feMergeNode5451"
         in="SourceGraphic" /></feMerge></filter><radialGradient
     inkscape:collect="always"
     xlink:href="#linearGradient5224"
     id="radialGradient5662"
     gradientUnits="userSpaceOnUse"
     gradientTransform="matrix(1.1637126,0.01169376,-0.01004816,0.99994952,-38.51189,-3.2463007)"
     cx="280.81531"
     cy="742.5368"
     fx="280.81531"
     fy="742.5368"
     r="63.24292" /><linearGradient
     inkscape:collect="always"
     id="linearGradient5224"><stop
       style="stop-color:#ffde8a;stop-opacity:1"
       offset="0"
       id="stop5226" /><stop
       style="stop-color:#ffd568;stop-opacity:0;"
       offset="1"
       id="stop5228" /></linearGradient><radialGradient
     inkscape:collect="always"
     xlink:href="#linearGradient5224"
     id="radialGradient5664"
     gradientUnits="userSpaceOnUse"
     gradientTransform="matrix(1.1637126,0.01169376,-0.01004816,0.99994952,-38.51189,-3.2463007)"
     cx="280.81531"
     cy="742.5368"
     fx="280.81531"
     fy="742.5368"
     r="63.24292" /><clipPath
     clipPathUnits="userSpaceOnUse"
     id="clipPath5372"><path
       sodipodi:type="arc"
       style="fill:none;stroke:#000000;stroke-width:1;stroke-linecap:square;stroke-linejoin:miter;stroke-miterlimit:4;stroke-opacity:1;stroke-dasharray:none"
       id="path5374"
       sodipodi:cx="280.07578"
       sodipodi:cy="779.51416"
       sodipodi:rx="63.24292"
       sodipodi:ry="63.24292"
       d="m 343.3187,779.51416 a 63.24292,63.24292 0 1 1 -126.48584,0 63.24292,63.24292 0 1 1 126.48584,0 z"
       transform="matrix(0.87727326,0,0,0.89258862,-5.3058282,167.15749)" /></clipPath><filter
     color-interpolation-filters="sRGB"
     inkscape:collect="always"
     id="filter5295"
     x="-0.24064004"
     width="1.4812801"
     y="-0.39376557"
     height="1.7875311"><feGaussianBlur
       inkscape:collect="always"
       stdDeviation="12.392335"
       id="feGaussianBlur5297" /></filter><radialGradient
     inkscape:collect="always"
     xlink:href="#linearGradient5467"
     id="radialGradient4241"
     gradientUnits="userSpaceOnUse"
     gradientTransform="matrix(1.5669948,-0.00946795,0.00596864,0.98784039,-140.25196,12.878452)"
     cx="238.38947"
     cy="879.16357"
     fx="238.38947"
     fy="879.16357"
     r="64.877129" /><linearGradient
     id="linearGradient5467"><stop
       style="stop-color:#1a1a1a;stop-opacity:1;"
       offset="0"
       id="stop5469" /><stop
       style="stop-color:#000000;stop-opacity:1;"
       offset="1"
       id="stop5471" /></linearGradient><radialGradient
     inkscape:collect="always"
     xlink:href="#linearGradient5712"
     id="radialGradient5756"
     gradientUnits="userSpaceOnUse"
     gradientTransform="matrix(0.55372047,-0.05554569,0.04877116,0.48618695,221.01163,484.52526)"
     cx="591.30029"
     cy="879.07672"
     fx="591.30029"
     fy="879.07672"
     r="10.455212" /><linearGradient
     inkscape:collect="always"
     id="linearGradient5712"><stop
       style="stop-color:#ffffff;stop-opacity:1;"
       offset="0"
       id="stop5714" /><stop
       style="stop-color:#ffffff;stop-opacity:0;"
       offset="1"
       id="stop5716" /></linearGradient><radialGradient
     inkscape:collect="always"
     xlink:href="#linearGradient5720"
     id="radialGradient5754"
     gradientUnits="userSpaceOnUse"
     gradientTransform="matrix(0.47163569,-0.00376989,0.00244345,0.3056898,310.27399,612.58108)"
     cx="591.30029"
     cy="879.07672"
     fx="591.30029"
     fy="879.07672"
     r="10.455212" /><linearGradient
     inkscape:collect="always"
     id="linearGradient5720"><stop
       style="stop-color:#ffffff;stop-opacity:1;"
       offset="0"
       id="stop5722" /><stop
       style="stop-color:#ffffff;stop-opacity:0;"
       offset="1"
       id="stop5724" /></linearGradient><radialGradient
     inkscape:collect="always"
     xlink:href="#linearGradient5467"
     id="radialGradient4243"
     gradientUnits="userSpaceOnUse"
     gradientTransform="matrix(1.5669948,-0.00946795,0.00596864,0.98784039,-140.25196,12.878452)"
     cx="238.38947"
     cy="879.16357"
     fx="238.38947"
     fy="879.16357"
     r="64.877129" /><linearGradient
     id="linearGradient3892"><stop
       style="stop-color:#1a1a1a;stop-opacity:1;"
       offset="0"
       id="stop3894" /><stop
       style="stop-color:#000000;stop-opacity:1;"
       offset="1"
       id="stop3896" /></linearGradient><mask
     maskUnits="userSpaceOnUse"
     id="mask4163"><g
       id="g4165"><path
         style="fill:url(#linearGradient4173);fill-opacity:1;stroke:none"
         d="m 238.08477,888.17661 0,39.56144 c 5.4682,-8.60936 11.21021,-17.52954 13.94028,-27.69301 -2.18244,-3.64532 -7.10302,-7.91229 -13.94028,-11.86843 z"
         id="path4167"
         inkscape:connector-curvature="0"
         sodipodi:nodetypes="cccc" /><path
         style="fill:none;stroke:url(#linearGradient4175);stroke-width:1;stroke-linecap:butt;stroke-linejoin:round;stroke-miterlimit:4;stroke-opacity:1;stroke-dasharray:none"
         d="m 238.08477,885.53484 0,46.60614"
         id="path4169"
         inkscape:connector-curvature="0"
         sodipodi:nodetypes="cc"
         clip-path="url(#clipPath4051)" /><path
         sodipodi:nodetypes="cccc"
         inkscape:connector-curvature="0"
         id="path4171"
         d="m 238.08477,888.17661 0,39.56144 c -5.4682,-8.60936 -11.21021,-17.52954 -13.94028,-27.69301 2.18244,-3.64532 7.10302,-7.91229 13.94028,-11.86843 z"
         style="fill:url(#linearGradient4177);fill-opacity:1;stroke:none" /></g></mask><linearGradient
     inkscape:collect="always"
     xlink:href="#linearGradient4114"
     id="linearGradient4173"
     gradientUnits="userSpaceOnUse"
     x1="243.36093"
     y1="900.04309"
     x2="247.62825"
     y2="893.63629" /><linearGradient
     id="linearGradient4114"><stop
       style="stop-color:#000000;stop-opacity:1;"
       offset="0"
       id="stop4116" /><stop
       id="stop4199"
       offset="0.5"
       style="stop-color:#b67800;stop-opacity:1;" /><stop
       style="stop-color:#fcaf1c;stop-opacity:1;"
       offset="1"
       id="stop4118" /></linearGradient><linearGradient
     inkscape:collect="always"
     xlink:href="#linearGradient4059"
     id="linearGradient4175"
     gradientUnits="userSpaceOnUse"
     x1="237.83601"
     y1="888.36017"
     x2="237.95665"
     y2="927.42889" /><linearGradient
     id="linearGradient4059"><stop
       style="stop-color:#feb82c;stop-opacity:1;"
       offset="0"
       id="stop4061" /><stop
       style="stop-color:#f3b417;stop-opacity:1;"
       offset="1"
       id="stop4063" /></linearGradient><clipPath
     clipPathUnits="userSpaceOnUse"
     id="clipPath4051"><g
       id="g4053"
       style="fill:none;stroke:#ffffff"><path
         style="fill:none;stroke:#ffffff;stroke-width:0.53272158;stroke-linecap:butt;stroke-linejoin:round;stroke-miterlimit:4;stroke-opacity:1;stroke-dasharray:none"
         d="m 238.08477,888.17661 0,39.56144 c 5.4682,-8.60936 11.21021,-17.52954 13.94028,-27.69301 -2.18244,-3.64532 -7.10302,-7.91229 -13.94028,-11.86843 z"
         id="path4055"
         inkscape:connector-curvature="0"
         sodipodi:nodetypes="cccc" /><path
         sodipodi:nodetypes="cccc"
         inkscape:connector-curvature="0"
         id="path4057"
         d="m 238.08477,888.17661 0,39.56144 c -5.4682,-8.60936 -11.21021,-17.52954 -13.94028,-27.69301 2.18244,-3.64532 7.10302,-7.91229 13.94028,-11.86843 z"
         style="fill:none;stroke:#ffffff;stroke-width:0.53272158;stroke-linecap:butt;stroke-linejoin:round;stroke-miterlimit:4;stroke-opacity:1;stroke-dasharray:none" /></g></clipPath><linearGradient
     inkscape:collect="always"
     xlink:href="#linearGradient4122"
     id="linearGradient4177"
     gradientUnits="userSpaceOnUse"
     x1="231.30499"
     y1="899.91748"
     x2="228.28616"
     y2="892.88257" /><linearGradient
     id="linearGradient4122"><stop
       style="stop-color:#f3b417;stop-opacity:1;"
       offset="0"
       id="stop4124" /><stop
       style="stop-color:#fcaf1c;stop-opacity:1;"
       offset="1"
       id="stop4126" /></linearGradient><linearGradient
     inkscape:collect="always"
     xlink:href="#linearGradient4059"
     id="linearGradient4239"
     gradientUnits="userSpaceOnUse"
     x1="237.83601"
     y1="888.36017"
     x2="237.95665"
     y2="927.42889" /><linearGradient
     id="linearGradient3921"><stop
       style="stop-color:#feb82c;stop-opacity:1;"
       offset="0"
       id="stop3923" /><stop
       style="stop-color:#f3b417;stop-opacity:1;"
       offset="1"
       id="stop3925" /></linearGradient><clipPath
     clipPathUnits="userSpaceOnUse"
     id="clipPath3927"><g
       id="g3929"
       style="fill:none;stroke:#ffffff"><path
         style="fill:none;stroke:#ffffff;stroke-width:0.53272158;stroke-linecap:butt;stroke-linejoin:round;stroke-miterlimit:4;stroke-opacity:1;stroke-dasharray:none"
         d="m 238.08477,888.17661 0,39.56144 c 5.4682,-8.60936 11.21021,-17.52954 13.94028,-27.69301 -2.18244,-3.64532 -7.10302,-7.91229 -13.94028,-11.86843 z"
         id="path3931"
         inkscape:connector-curvature="0"
         sodipodi:nodetypes="cccc" /><path
         sodipodi:nodetypes="cccc"
         inkscape:connector-curvature="0"
         id="path3933"
         d="m 238.08477,888.17661 0,39.56144 c -5.4682,-8.60936 -11.21021,-17.52954 -13.94028,-27.69301 2.18244,-3.64532 7.10302,-7.91229 13.94028,-11.86843 z"
         style="fill:none;stroke:#ffffff;stroke-width:0.53272158;stroke-linecap:butt;stroke-linejoin:round;stroke-miterlimit:4;stroke-opacity:1;stroke-dasharray:none" /></g></clipPath><linearGradient
     inkscape:collect="always"
     xlink:href="#linearGradient4201"
     id="linearGradient4197"
     gradientUnits="userSpaceOnUse"
     x1="229.1483"
     y1="925.09283"
     x2="247.62825"
     y2="893.63629" /><linearGradient
     id="linearGradient4201"><stop
       id="stop4203"
       offset="0"
       style="stop-color:#986400;stop-opacity:1;" /><stop
       style="stop-color:#b67800;stop-opacity:1;"
       offset="0.74023157"
       id="stop4205" /><stop
       id="stop4207"
       offset="1"
       style="stop-color:#fcaf1c;stop-opacity:1;" /></linearGradient><linearGradient
     inkscape:collect="always"
     xlink:href="#linearGradient4122"
     id="linearGradient4141"
     gradientUnits="userSpaceOnUse"
     x1="231.30499"
     y1="899.91748"
     x2="228.28616"
     y2="892.88257" /><linearGradient
     id="linearGradient3941"><stop
       style="stop-color:#f3b417;stop-opacity:1;"
       offset="0"
       id="stop3943" /><stop
       style="stop-color:#fcaf1c;stop-opacity:1;"
       offset="1"
       id="stop3945" /></linearGradient><radialGradient
     inkscape:collect="always"
     xlink:href="#linearGradient4293"
     id="radialGradient4106"
     cx="232.31732"
     cy="186.22983"
     fx="232.31732"
     fy="186.22983"
     r="12.049818"
     gradientTransform="matrix(1.4274374,0.22935666,-0.13328824,0.82954045,-74.478866,-19.937836)"
     gradientUnits="userSpaceOnUse" /><linearGradient
     id="linearGradient4293"><stop
       style="stop-color:#e4310d;stop-opacity:1;"
       offset="0"
       id="stop4295" /><stop
       style="stop-color:#c0290b;stop-opacity:0;"
       offset="1"
       id="stop4297" /></linearGradient><radialGradient
     inkscape:collect="always"
     xlink:href="#linearGradient4293"
     id="radialGradient4116"
     cx="242.02069"
     cy="177.79913"
     fx="242.02069"
     fy="177.79913"
     r="9.5520267"
     gradientTransform="matrix(1,0,0,0.9901232,0,1.840046)"
     gradientUnits="userSpaceOnUse" /><linearGradient
     id="linearGradient3952"><stop
       style="stop-color:#e4310d;stop-opacity:1;"
       offset="0"
       id="stop3954" /><stop
       style="stop-color:#c0290b;stop-opacity:0;"
       offset="1"
       id="stop3956" /></linearGradient><radialGradient
     inkscape:collect="always"
     xlink:href="#linearGradient4293"
     id="radialGradient4127"
     cx="254.4561"
     cy="157.43228"
     fx="254.4561"
     fy="157.43228"
     r="13.967531"
     gradientTransform="matrix(1.4766783,0.05396358,-0.03075353,0.84155025,-116.4521,13.097993)"
     gradientUnits="userSpaceOnUse" /><linearGradient
     id="linearGradient3959"><stop
       style="stop-color:#e4310d;stop-opacity:1;"
       offset="0"
       id="stop3961" /><stop
       style="stop-color:#c0290b;stop-opacity:0;"
       offset="1"
       id="stop3963" /></linearGradient><radialGradient
     r="13.967531"
     fy="157.43228"
     fx="254.4561"
     cy="157.43228"
     cx="254.4561"
     gradientTransform="matrix(1.4766783,0.05396358,-0.03075353,0.84155025,-116.4521,13.097993)"
     gradientUnits="userSpaceOnUse"
     id="radialGradient3995"
     xlink:href="#linearGradient4293"
     inkscape:collect="always" /></defs><sodipodi:namedview
   pagecolor="#ffffff"
   bordercolor="#666666"
   borderopacity="1"
   objecttolerance="10"
   gridtolerance="10"
   guidetolerance="10"
   inkscape:pageopacity="0"
   inkscape:pageshadow="2"
   inkscape:window-width="816"
   inkscape:window-height="618"
   id="namedview7"
   showgrid="false"
   inkscape:zoom="1.7265191"
   inkscape:cx="259.1136"
   inkscape:cy="367.87956"
   inkscape:window-x="189"
   inkscape:window-y="73"
   inkscape:window-maximized="0"
   inkscape:current-layer="svg2"
   showguides="true"
   inkscape:guide-bbox="true"><sodipodi:guide
     orientation="1,0"
     position="60,0"
     id="guide2983" /><sodipodi:guide
     orientation="0,1"
     position="480,420"
     id="guide2985" /><sodipodi:guide
     orientation="1,0"
     position="420,480"
     id="guide2987" /><sodipodi:guide
     orientation="0,1"
     position="0,60"
     id="guide2989" /></sodipodi:namedview>
  
<g
   transform="matrix(1.6462041,0,0,1.6561242,-171.61714,-140.18578)"
   style="display:inline"
   id="g4135"><path
     inkscape:export-ydpi="175.60001"
     inkscape:export-xdpi="175.60001"
     inkscape:export-filename="/tmp/yaxim.png"
     inkscape:connector-curvature="0"
     id="path5543"
     d="m 198.53589,120.87607 9.03125,21.40625 c -8.54159,3.9491 -16.38196,9.05134 -23.34375,15.09375 l -14.625,-15.28125 c -7.54176,4.76004 -13.28381,10.02829 -18.78125,17.34375 l 18.09375,14.71875 c -5.02895,7.03867 -9.10252,14.76498 -12.03125,23 l -14.71875,-4.90625 0,17.375 10.78125,2.4375 c -0.90532,5.17421 -1.375,10.48388 -1.375,15.90625 0,4.88734 0.38653,9.68637 1.125,14.375 l -10.53125,0.5 0,23.875 16,-4.53125 c 5.11168,12.75814 12.98905,24.18304 22.9375,33.59375 l -13.25,11.65625 c 3.4168,5.89913 5.31104,7.45768 9.75,11.3125 l 14.0625,-14.28125 c 8.3672,5.95331 17.74746,10.66345 27.84375,13.84375 l -7.21875,17.0625 c 7.95305,2.11487 10.29141,2.1739 18.5,2.5 l 3.8125,-16.0625 c 5.06465,0.77323 10.27217,1.1875 15.5625,1.1875 8.38356,0 16.50999,-1.00834 24.28125,-2.90625 l 4.34375,18.15625 c 9.075,-1.37248 14.05043,-4.77625 18.78125,-7.9375 l -6.34375,-15.9375 c 11.71847,-5.18201 22.20287,-12.51221 30.90625,-21.46875 l 14.71875,14.21875 c 6.12544,-4.03728 9.69104,-9.09128 12.75,-14.40625 l -17.34375,-12.09375 c 2.18292,-3.15481 4.15167,-6.43831 5.9375,-9.84375 l 16.25,8.5 c 1.20463,-2.89111 2.43145,-6.28532 3.125,-9.6875 l -15.75,-6.5625 c 0.968,-2.34857 1.85026,-4.72001 2.625,-7.15625 l 14.1875,4.34375 0,-18.8125 -10.71875,-1.03125 c 0.54754,-4.05359 0.84375,-8.20884 0.84375,-12.40625 0,-2.37531 -0.0722,-4.73095 -0.25,-7.0625 l 10.125,-1.90625 0,-21.6875 -13.53125,5.0625 c -1.61156,-5.56108 -3.69809,-10.93193 -6.28125,-16.03125 l 19.8125,-10.71875 c -5.05944,-8.91424 -9.03029,-14.19562 -14.8125,-20.21875 l -16.28125,13.6875 c -3.63744,-4.43365 -7.6749,-8.53865 -12.0625,-12.28125 l 13.1875,-15.875 c -10.97317,-10.10425 -20.97891,-14.93048 -30.375,-18.0625 l -7.5625,18.5 c -0.009,-0.004 -0.0225,0.004 -0.0312,0 -6.77697,-2.95056 -13.94846,-5.2085 -21.4375,-6.625 l 0.125,-13.875 -23.84375,0 0.65625,12.1875 c -4.58144,0.17483 -9.10005,0.61757 -13.5,1.375 l -2.34375,-13.5625 -31.8125,0 z"
     style="opacity:0.59090905;fill:none;stroke:#ffffbd;stroke-width:12;stroke-miterlimit:4;stroke-opacity:1;stroke-dasharray:none;filter:url(#filter5621)" /><path
     inkscape:export-ydpi="175.60001"
     inkscape:export-xdpi="175.60001"
     inkscape:export-filename="/tmp/yaxim.png"
     sodipodi:type="arc"
     style="fill:url(#radialGradient5641);fill-opacity:1;stroke:none"
     id="path4079"
     sodipodi:cx="147.44635"
     sodipodi:cy="650.85999"
     sodipodi:rx="96.129234"
     sodipodi:ry="98.297569"
     d="m 243.57558,650.85999 c 0,54.28824 -43.03852,98.29756 -96.12923,98.29756 -53.09071,0 -96.129234,-44.00932 -96.129234,-98.29756 0,-54.28825 43.038524,-98.29757 96.129234,-98.29757 53.09071,0 96.12923,44.00932 96.12923,98.29757 z"
     transform="matrix(1.0255877,0,0,0.96658233,98.925418,-401.14179)" /><g
     transform="translate(12.059808,-651.22961)"
     inkscape:export-ydpi="175.60001"
     inkscape:export-xdpi="175.60001"
     inkscape:export-filename="/tmp/yaxim.png"
     id="g5453"><g
       inkscape:export-ydpi="20.58"
       inkscape:export-xdpi="20.58"
       inkscape:export-filename="/tmp/yaxim.png"
       id="g5183"><path
         style="fill:#f4f4f4;fill-opacity:1;stroke:none;filter:url(#filter5171)"
         d="m 233.45672,772.1057 23.85161,0 -0.72277,74.26526 29.63382,-72.27762 c 9.39609,3.13203 19.38343,7.96515 30.3566,18.0694 l -49.87155,59.99043 5.7822,4.33666 59.26765,-49.87156 c 5.78221,6.02313 9.75748,11.32349 14.81692,20.23773 l -68.30236,36.86159 4.33666,8.67331 63.9657,-23.85161 0,21.68329 -61.07459,11.56441 0,5.05944 61.07459,5.78221 0,18.79218 -56.73794,-17.34663 -1.44555,2.89111 57.09932,23.85161 c -0.69355,3.40218 -1.89817,6.80437 -3.1028,9.69547 l -65.56094,-34.26986 -1.44555,4.33666 62.15875,43.36657 c -3.05896,5.31497 -6.62899,10.37441 -12.75443,14.41168 l -52.29543,-50.55049 -10.11886,7.22776 -2.16833,2.89111 25.29717,63.6043 c -4.73082,3.16126 -9.71718,6.57806 -18.79218,7.95054 l -15.90108,-66.49541 -15.90108,-2.16833 -16.20046,68.28419 c -8.20859,-0.3261 -10.53975,-0.39667 -18.4928,-2.51155 l 27.4655,-65.04986 -9.39609,-5.05944 -52.76267,53.48544 c -4.43896,-3.85481 -6.32251,-5.40975 -9.73931,-11.30888 l 55.27422,-48.68154 -15.90108,-10.48026 -65.04986,18.4308 0,-23.85162 59.62904,-2.89111 -1.80694,-17.34662 -57.8221,-13.00998 0,-17.34663 62.88153,20.96052 2.16833,-7.95054 -56.42039,-45.83429 c 5.49744,-7.31545 11.25042,-12.58658 18.79218,-17.34663 l 53.52929,55.95315 6.50498,-3.61388 -31.07938,-73.54248 31.80216,0 11.56442,67.0375 7.22776,-1.44555 z"
         id="path4077-5"
         inkscape:connector-curvature="0"
         sodipodi:nodetypes="ccccccccccccccccccccccccccccccccccccccccccccccccccccccccc" /></g><path
       inkscape:export-ydpi="20.58"
       inkscape:export-xdpi="20.58"
       inkscape:export-filename="/tmp/yaxim.png"
       sodipodi:nodetypes="ccccccccccccccccccccccccccccccccccccccccccccccccccccccccc"
       inkscape:connector-curvature="0"
       id="path4077"
       d="m 233.45672,772.1057 23.85161,0 -0.72277,74.26526 29.63382,-72.27762 c 9.39609,3.13203 19.38343,7.96515 30.3566,18.0694 l -49.87155,59.99043 5.7822,4.33666 59.26765,-49.87156 c 5.78221,6.02313 9.75748,11.32349 14.81692,20.23773 l -68.30236,36.86159 4.33666,8.67331 63.9657,-23.85161 0,21.68329 -61.07459,11.56441 0,5.05944 61.07459,5.78221 0,18.79218 -56.73794,-17.34663 -1.44555,2.89111 57.09932,23.85161 c -0.69355,3.40218 -1.89817,6.80437 -3.1028,9.69547 l -65.56094,-34.26986 -1.44555,4.33666 62.15875,43.36657 c -3.05896,5.31497 -6.62899,10.37441 -12.75443,14.41168 l -52.29543,-50.55049 -10.11886,7.22776 -2.16833,2.89111 25.29717,63.6043 c -4.73082,3.16126 -9.71718,6.57806 -18.79218,7.95054 l -15.90108,-66.49541 -15.90108,-2.16833 -16.20046,68.28419 c -8.20859,-0.3261 -10.53975,-0.39667 -18.4928,-2.51155 l 27.4655,-65.04986 -9.39609,-5.05944 -52.76267,53.48544 c -4.43896,-3.85481 -6.32251,-5.40975 -9.73931,-11.30888 l 55.27422,-48.68154 -15.90108,-10.48026 -65.04986,18.4308 0,-23.85162 59.62904,-2.89111 -1.80694,-17.34662 -57.8221,-13.00998 0,-17.34663 62.88153,20.96052 2.16833,-7.95054 -56.42039,-45.83429 c 5.49744,-7.31545 11.25042,-12.58658 18.79218,-17.34663 l 53.52929,55.95315 6.50498,-3.61388 -31.07938,-73.54248 31.80216,0 11.56442,67.0375 7.22776,-1.44555 z"
       style="fill:none;stroke:#7c7e6b;stroke-width:1.875;stroke-linecap:butt;stroke-linejoin:miter;stroke-miterlimit:4;stroke-opacity:0.94117647;stroke-dasharray:none;filter:url(#filter4935)" /></g><g
     inkscape:export-ydpi="175.60001"
     inkscape:export-xdpi="175.60001"
     inkscape:export-filename="/tmp/yaxim.png"
     transform="translate(9.0987299,-646.95264)"
     style="filter:url(#filter5439)"
     id="g5376"><path
       transform="matrix(0.97732215,0,0,0.97732215,-32.678408,113.08416)"
       d="m 343.3187,779.51416 c 0,34.9281 -28.31482,63.24292 -63.24292,63.24292 -34.92811,0 -63.24292,-28.31482 -63.24292,-63.24292 0,-34.9281 28.31481,-63.24292 63.24292,-63.24292 34.9281,0 63.24292,28.31482 63.24292,63.24292 z"
       sodipodi:ry="63.24292"
       sodipodi:rx="63.24292"
       sodipodi:cy="779.51416"
       sodipodi:cx="280.07578"
       id="path4075"
       style="fill:#ffa400;fill-opacity:1;stroke:none"
       sodipodi:type="arc" /><path
       sodipodi:type="arc"
       style="fill:url(#radialGradient5662);fill-opacity:1;stroke:none"
       id="path5186"
       sodipodi:cx="280.07578"
       sodipodi:cy="779.51416"
       sodipodi:rx="63.24292"
       sodipodi:ry="63.24292"
       d="m 343.3187,779.51416 c 0,34.9281 -28.31482,63.24292 -63.24292,63.24292 -34.92811,0 -63.24292,-28.31482 -63.24292,-63.24292 0,-34.9281 28.31481,-63.24292 63.24292,-63.24292 34.9281,0 63.24292,28.31482 63.24292,63.24292 z"
       transform="matrix(0.97732215,0,0,0.97732215,-33.040314,113.08416)" /><path
       transform="matrix(0.97732215,0,0,0.97732215,-32.316502,113.08416)"
       d="m 343.3187,779.51416 c 0,34.9281 -28.31482,63.24292 -63.24292,63.24292 -34.92811,0 -63.24292,-28.31482 -63.24292,-63.24292 0,-34.9281 28.31481,-63.24292 63.24292,-63.24292 34.9281,0 63.24292,28.31482 63.24292,63.24292 z"
       sodipodi:ry="63.24292"
       sodipodi:rx="63.24292"
       sodipodi:cy="779.51416"
       sodipodi:cx="280.07578"
       id="path5232"
       style="fill:url(#radialGradient5664);fill-opacity:1;stroke:none"
       sodipodi:type="arc" /><path
       transform="matrix(1.1140453,0,0,1.0949301,-26.767475,-69.941608)"
       sodipodi:nodetypes="cssscsc"
       inkscape:connector-curvature="0"
       id="path5301"
       d="m 180.78125,861.1875 c -1.00274,4.4182 -1.53125,8.99712 -1.53125,13.71875 0,34.13601 27.64524,61.8125 61.78125,61.8125 34.13601,0 61.8125,-27.67649 61.8125,-61.8125 0,-4.72163 -0.52851,-9.30055 -1.53125,-13.71875 -8.19313,17.62237 -30.50278,45.64227 -60.93004,45.64227 -31.68337,0 -48.81294,-28.68001 -59.60121,-45.64227 z"
       style="opacity:0.68421056;fill:#000000;fill-opacity:1;stroke:none;filter:url(#filter5295)"
       clip-path="url(#clipPath5372)" /></g><g
     inkscape:export-ydpi="175.60001"
     inkscape:export-xdpi="175.60001"
     inkscape:export-filename="/tmp/yaxim.png"
     transform="translate(12.059808,-651.22961)"
     id="g4073"><path
       style="fill:url(#radialGradient4241);fill-opacity:1;stroke:#000000;stroke-width:1.97300005;stroke-linecap:butt;stroke-linejoin:miter;stroke-miterlimit:4;stroke-opacity:1;stroke-dasharray:none"
       d="m 183.93277,849.01797 c -4.28903,-1.74433 -9.66013,17.59472 -9.66013,27.96372 0,7.42283 1.15356,20.09704 4.4709,20.88487 10.81074,-2.38126 19.60577,-3.69166 30.06706,-4.55665 10.46129,-0.86499 20.73547,-1.06536 30.79777,-0.78816 20.12459,0.55442 39.40166,3.01916 57.63302,5.89796 4.60517,0.62718 4.8125,-13.84639 4.8125,-21.43802 0,-5.54228 -1.50623,-16.36041 -5.17338,-15.49963 -32.13141,7.883 -70.90024,11.99895 -112.94774,-12.46409 z"
       id="path5462"
       inkscape:connector-curvature="0"
       sodipodi:nodetypes="cscsscscc"
       inkscape:export-filename="/home/dd/src/android/mein_yaxim/res/drawable/yaxim.png"
       inkscape:export-xdpi="21.950001"
       inkscape:export-ydpi="21.950001" /><g
       id="g5750"
       transform="matrix(1.1683973,0,0,1.1683973,-42.907188,-148.29498)"><path
         sodipodi:type="arc"
         style="fill:#ececec;fill-opacity:1;stroke:none"
         id="path5690"
         sodipodi:cx="591.30029"
         sodipodi:cy="879.07672"
         sodipodi:rx="10.455212"
         sodipodi:ry="6.776526"
         d="m 601.7555,879.07672 c 0,3.74257 -4.68095,6.77653 -10.45521,6.77653 -5.77425,0 -10.45521,-3.03396 -10.45521,-6.77653 0,-3.74257 4.68096,-6.77652 10.45521,-6.77652 5.77426,0 10.45521,3.03395 10.45521,6.77652 z"
         transform="matrix(0.98693565,-0.16111495,0.16111495,0.98693565,-470.41037,108.30081)" /><path
         transform="matrix(0.98693565,-0.16111495,0.16111495,0.98693565,-470.41037,108.30081)"
         d="m 601.7555,879.07672 c 0,3.74257 -4.68095,6.77653 -10.45521,6.77653 -5.77425,0 -10.45521,-3.03396 -10.45521,-6.77653 0,-3.74257 4.68096,-6.77652 10.45521,-6.77652 5.77426,0 10.45521,3.03395 10.45521,6.77652 z"
         sodipodi:ry="6.776526"
         sodipodi:rx="10.455212"
         sodipodi:cy="879.07672"
         sodipodi:cx="591.30029"
         id="path5678"
         style="fill:url(#radialGradient5756);fill-opacity:1;stroke:none"
         sodipodi:type="arc" /></g><g
       id="g5746"
       transform="matrix(1.1890894,0,0,1.1890894,-41.657992,-165.70675)"><path
         transform="matrix(0.96382624,0.2665314,-0.2665314,0.96382624,-112.95191,-126.1878)"
         d="m 601.7555,879.07672 c 0,3.74257 -4.68095,6.77653 -10.45521,6.77653 -5.77425,0 -10.45521,-3.03396 -10.45521,-6.77653 0,-3.74257 4.68096,-6.77652 10.45521,-6.77652 5.77426,0 10.45521,3.03395 10.45521,6.77652 z"
         sodipodi:ry="6.776526"
         sodipodi:rx="10.455212"
         sodipodi:cy="879.07672"
         sodipodi:cx="591.30029"
         id="path5692"
         style="fill:#ececec;fill-opacity:1;stroke:none"
         sodipodi:type="arc" /><path
         sodipodi:type="arc"
         style="fill:url(#radialGradient5754);fill-opacity:1;stroke:none"
         id="path5682"
         sodipodi:cx="591.30029"
         sodipodi:cy="879.07672"
         sodipodi:rx="10.455212"
         sodipodi:ry="6.776526"
         d="m 601.7555,879.07672 c 0,3.74257 -4.68095,6.77653 -10.45521,6.77653 -5.77425,0 -10.45521,-3.03396 -10.45521,-6.77653 0,-3.74257 4.68096,-6.77652 10.45521,-6.77652 5.77426,0 10.45521,3.03395 10.45521,6.77652 z"
         transform="matrix(0.96382624,0.2665314,-0.2665314,0.96382624,-112.95191,-126.1878)" /></g><path
       mask="url(#mask4163)"
       inkscape:export-ydpi="21.950001"
       inkscape:export-xdpi="21.950001"
       inkscape:export-filename="/home/dd/src/android/mein_yaxim/res/drawable/yaxim.png"
       sodipodi:nodetypes="cscsscscc"
       inkscape:connector-curvature="0"
       id="path4161"
       d="m 183.93277,849.01797 c -4.28903,-1.74433 -9.66013,17.59472 -9.66013,27.96372 0,7.42283 1.15356,20.09704 4.4709,20.88487 10.81074,-2.38126 19.60577,-3.69166 30.06706,-4.55665 10.46129,-0.86499 20.73547,-1.06536 30.79777,-0.78816 20.12459,0.55442 39.40166,3.01916 57.63302,5.89796 4.60517,0.62718 4.8125,-13.84639 4.8125,-21.43802 0,-5.54228 -1.50623,-16.36041 -5.17338,-15.49963 -32.13141,7.883 -70.90024,11.99895 -112.94774,-12.46409 z"
       style="fill:url(#radialGradient4243);fill-opacity:1;stroke:#000000;stroke-width:1.97300005;stroke-linecap:butt;stroke-linejoin:miter;stroke-miterlimit:4;stroke-opacity:1;stroke-dasharray:none" /></g><g
     inkscape:export-ydpi="175.60001"
     inkscape:export-xdpi="175.60001"
     inkscape:export-filename="/tmp/yaxim.png"
     transform="translate(12.059808,-651.22961)"
     id="g4146"><g
       id="g4209"><path
         clip-path="url(#clipPath4051)"
         sodipodi:nodetypes="cc"
         inkscape:connector-curvature="0"
         id="path4043"
         d="m 238.08477,885.53484 0,46.60614"
         style="fill:none;stroke:url(#linearGradient4239);stroke-width:1;stroke-linecap:butt;stroke-linejoin:round;stroke-miterlimit:4;stroke-opacity:1;stroke-dasharray:none" /><path
         sodipodi:nodetypes="cccc"
         inkscape:connector-curvature="0"
         id="path3099"
         d="m 238.08477,888.17661 0,39.56144 c 5.4682,-8.60936 11.21021,-17.52954 13.94028,-27.69301 -2.18244,-3.64532 -7.10302,-7.91229 -13.94028,-11.86843 z"
         style="fill:url(#linearGradient4197);fill-opacity:1;stroke:none" /><path
         style="fill:url(#linearGradient4141);fill-opacity:1;stroke:none"
         d="m 238.08477,888.17661 0,39.56144 c -5.4682,-8.60936 -11.21021,-17.52954 -13.94028,-27.69301 2.18244,-3.64532 7.10302,-7.91229 13.94028,-11.86843 z"
         id="path3101"
         inkscape:connector-curvature="0"
         sodipodi:nodetypes="cccc" /></g></g><path
     inkscape:export-ydpi="175.60001"
     inkscape:export-xdpi="175.60001"
     inkscape:export-filename="/tmp/yaxim.png"
     sodipodi:nodetypes="czzzzcczzc"
     inkscape:connector-curvature="0"
     id="path4245"
     d="m 267.89895,167.89941 c 0.0662,2.41797 -8.28096,7.18724 -11.36117,13.22919 -3.08021,6.04195 -6.08849,12.00053 -8.52757,15.63389 -2.43908,3.63336 -7.27029,9.20789 -13.75324,9.57935 -6.48294,0.37146 -12.01928,-2.69774 -12.92437,-11.12624 -0.90509,-8.42851 8.63268,-9.89004 13.7086,-8.75727 -3.29554,-6.28944 4.31091,-9.94031 6.92865,-9.59351 -2.71199,-6.22655 -2.20229,-7.96482 -1.06595,-11.3701 1.13634,-3.40528 5.94256,-7.90631 11.80117,-7.89053 5.85861,0.0158 15.74631,2.14769 15.19388,10.29522 z"
     style="fill:#ab1c06;fill-opacity:1;stroke:none" /><path
     style="fill:url(#radialGradient4106);fill-opacity:1;stroke:none"
     d="m 245.37213,197.01374 c -0.17787,2.87962 -4.63221,8.95664 -11.11516,9.3281 -6.48294,0.37146 -12.01928,-2.69774 -12.92437,-11.12624 -0.90509,-8.42851 8.63268,-9.89004 13.7086,-8.75727 6.47786,1.33347 9.18808,5.94144 10.33093,10.55541 z"
     id="path4098"
     inkscape:connector-curvature="0"
     sodipodi:nodetypes="czzcc"
     inkscape:export-filename="/tmp/yaxim.png"
     inkscape:export-xdpi="175.60001"
     inkscape:export-ydpi="175.60001" /><path
     style="fill:url(#radialGradient4116);fill-opacity:1;stroke:none"
     d="m 252.64347,182.63608 c 2.52126,4.74984 -2.44543,10.2418 -5.88949,13.12143 -2.17795,-4.72102 -4.59065,-7.08816 -11.71278,-9.29918 -3.29554,-6.28944 4.31091,-9.94031 6.92865,-9.59351 4.93902,-0.0405 8.15236,1.02141 10.67362,5.77126 z"
     id="path4108"
     inkscape:connector-curvature="0"
     sodipodi:nodetypes="zcccz"
     inkscape:export-filename="/tmp/yaxim.png"
     inkscape:export-xdpi="175.60001"
     inkscape:export-ydpi="175.60001" /><path
     style="fill:url(#radialGradient3995);fill-opacity:1;stroke:none"
     d="m 267.89895,167.89941 c 0.0662,2.41797 -8.28096,7.18724 -11.36117,13.22919 -2.5736,-4.64276 -10.16773,-4.84457 -14.56793,-4.26378 -2.71199,-6.22655 -2.20229,-7.96482 -1.06595,-11.3701 1.13634,-3.40528 5.94256,-7.90631 11.80117,-7.89053 5.85861,0.0158 15.74631,2.14769 15.19388,10.29522 z"
     id="path4118"
     inkscape:connector-curvature="0"
     sodipodi:nodetypes="ccczzc"
     inkscape:export-filename="/tmp/yaxim.png"
     inkscape:export-xdpi="175.60001"
     inkscape:export-ydpi="175.60001" /></g></svg>