<?xml version="1.0" encoding="UTF-8" standalone="no"?>
<svg
   xmlns:dc="http://purl.org/dc/elements/1.1/"
   xmlns:cc="http://creativecommons.org/ns#"
   xmlns:rdf="http://www.w3.org/1999/02/22-rdf-syntax-ns#"
   xmlns:svg="http://www.w3.org/2000/svg"
   xmlns="http://www.w3.org/2000/svg"
   xmlns:sodipodi="http://sodipodi.sourceforge.net/DTD/sodipodi-0.dtd"
   xmlns:inkscape="http://www.inkscape.org/namespaces/inkscape"
   version="1.1"
   x="0px"
   y="0px"
   width="480px"
   height="480px"
   viewBox="0 0 480 480"
   xml:space="preserve"
   id="svg2"
   inkscape:version="0.48.1 r9760"
   sodipodi:docname="ic_action_status.svg"><metadata
   id="metadata17"><rdf:RDF><cc:Work
       rdf:about=""><dc:format>image/svg+xml</dc:format><dc:type
         rdf:resource="http://purl.org/dc/dcmitype/StillImage" /></cc:Work></rdf:RDF></metadata><defs
   id="defs15" /><sodipodi:namedview
   pagecolor="#ffffff"
   bordercolor="#666666"
   borderopacity="1"
   objecttolerance="10"
   gridtolerance="10"
   guidetolerance="10"
   inkscape:pageopacity="0"
   inkscape:pageshadow="2"
   inkscape:window-width="640"
   inkscape:window-height="480"
   id="namedview13"
   showgrid="false"
   inkscape:zoom="0.61041667"
   inkscape:cx="240"
   inkscape:cy="258.02048"
   inkscape:window-x="7"
   inkscape:window-y="24"
   inkscape:window-maximized="0"
   inkscape:current-layer="svg2" />
  <g
   id="happy_droid"
   style="fill:#ffffff">
  	<path
   fill-rule="evenodd"
   d="M57.223,363.562c0,13.207,10.799,24.002,24.002,24.002h311.998c13.203,0,24.002-10.795,24.002-24.002   V234.045c0-63.496-33.424-105.701-83.465-127.886l40.01-40c5.857-5.854,5.857-15.355,0-21.206c-5.859-5.859-15.361-5.859-21.211,0   l-50.398,50.39c-20.195-5.122-42.039-7.797-64.938-7.797c-22.893,0-44.75,2.675-64.928,7.797l-50.406-50.39   c-5.852-5.859-15.352-5.859-21.211,0c-5.859,5.851-5.859,15.352,0,21.206l40.004,40c-50.035,22.185-83.459,64.39-83.459,127.886   V363.562z M306.225,141.046c23.195,0,41.998,18.815,41.998,42.015c0,23.186-18.803,41.997-41.998,41.997   c-23.199,0-42.002-18.812-42.002-41.997C264.223,159.861,283.026,141.046,306.225,141.046z M168.221,141.046   c23.199,0,42.002,18.815,42.002,42.015c0,23.186-18.803,41.997-42.002,41.997c-23.193,0-41.996-18.812-41.996-41.997   C126.225,159.861,145.028,141.046,168.221,141.046z M237.223,289.542c57.414,0,107.125-25.391,131.834-62.465   c-3.904,60.73-61.348,108.984-131.834,108.984c-70.484,0-127.928-48.254-131.838-108.984   C130.1,264.151,179.811,289.542,237.223,289.542z"
   id="path5"
   style="fill:#ffffff" />
  	<path
   fill-rule="evenodd"
   d="M168.217,212.642c16.547,0,30-13.47,30-29.999c0-16.546-13.453-30.003-30-30.003   c-16.541,0-30.002,13.457-30.002,30.003C138.215,199.172,151.676,212.642,168.217,212.642z"
   id="path7"
   style="fill:#ffffff" />
  	<path
   fill-rule="evenodd"
   d="M306.225,212.642c16.547,0,30-13.47,30-29.999c0-16.546-13.453-30.003-30-30.003   c-16.551,0-30.002,13.457-30.002,30.003C276.223,199.172,289.674,212.642,306.225,212.642z"
   id="path9"
   style="fill:#ffffff" />
  	<path
   fill-rule="evenodd"
   d="M417.225,233.628c0-63.501-33.43-105.706-83.465-127.891l40.01-40c5.857-5.846,5.857-15.347,0-21.206   c-5.852-5.858-15.361-5.858-21.211,0l-50.406,50.394c-20.188-5.126-42.041-7.801-64.93-7.801c-22.896,0-44.75,2.675-64.938,7.801   l-50.396-50.394c-5.852-5.858-15.352-5.858-21.211,0c-5.859,5.859-5.859,15.36,0,21.206l40.004,40   c-50.035,22.185-83.459,64.39-83.459,127.891V363.14c0,13.207,10.799,24.002,24.002,24.002h311.998   c13.203,0,24.002-10.795,24.002-24.002V233.628z M306.225,140.624c23.195,0,41.998,18.815,41.998,42.019   c0,23.187-18.803,41.998-41.998,41.998c-23.199,0-42.002-18.812-42.002-41.998C264.223,159.439,283.026,140.624,306.225,140.624z    M168.217,140.624c23.203,0,42.006,18.815,42.006,42.019c0,23.187-18.803,41.998-42.006,41.998   c-23.189,0-41.992-18.812-41.992-41.998C126.225,159.439,145.028,140.624,168.217,140.624z M237.223,289.125   c57.414,0,107.117-25.391,131.834-62.47c-3.904,60.735-61.348,108.988-131.834,108.988c-70.49,0-127.928-48.253-131.838-108.988   C130.1,263.734,179.811,289.125,237.223,289.125z"
   id="path11"
   style="fill:#ffffff" />
  </g>
</svg>