<?xml version="1.0" encoding="UTF-8" standalone="no"?>
<svg
   xmlns:dc="http://purl.org/dc/elements/1.1/"
   xmlns:cc="http://creativecommons.org/ns#"
   xmlns:rdf="http://www.w3.org/1999/02/22-rdf-syntax-ns#"
   xmlns:svg="http://www.w3.org/2000/svg"
   xmlns="http://www.w3.org/2000/svg"
   xmlns:sodipodi="http://sodipodi.sourceforge.net/DTD/sodipodi-0.dtd"
   xmlns:inkscape="http://www.inkscape.org/namespaces/inkscape"
   version="1.1"
   x="0px"
   y="0px"
   width="480px"
   height="480px"
   viewBox="0 0 480 480"
   xml:space="preserve"
   id="svg2"
   inkscape:version="0.48.1 r9760"
   sodipodi:docname="ic_title_add.svg"><metadata
   id="metadata11"><rdf:RDF><cc:Work
       rdf:about=""><dc:format>image/svg+xml</dc:format><dc:type
         rdf:resource="http://purl.org/dc/dcmitype/StillImage" /></cc:Work></rdf:RDF></metadata><defs
   id="defs9" /><sodipodi:namedview
   pagecolor="#ffffff"
   bordercolor="#666666"
   borderopacity="1"
   objecttolerance="10"
   gridtolerance="10"
   guidetolerance="10"
   inkscape:pageopacity="0"
   inkscape:pageshadow="2"
   inkscape:window-width="640"
   inkscape:window-height="480"
   id="namedview7"
   showgrid="false"
   inkscape:zoom="0.61041667"
   inkscape:cx="240"
   inkscape:cy="258.02048"
   inkscape:window-x="7"
   inkscape:window-y="24"
   inkscape:window-maximized="0"
   inkscape:current-layer="svg2" />
  <g
   id="add"
   style="fill:#ffffff">
  	<path
   fill-rule="evenodd"
   d="M237.223,55.997c-99.406,0-180,80.587-180,180.001c0,99.406,80.594,180.001,180,180.001   c99.424,0,180.002-80.595,180.002-180.001C417.225,136.584,336.647,55.997,237.223,55.997z M329.221,256   c0,4.396-3.598,7.999-7.998,7.999h-48c-4.4,0-7.998,3.604-7.998,8v47.998c0,4.401-3.604,8.004-8.004,8.004h-40   c-4.396,0-7.998-3.603-7.998-8.004v-47.998c0-4.396-3.604-8-8-8h-47.998c-4.4,0-8-3.603-8-7.999v-39.999c0-4.401,3.6-8.004,8-8.004   h47.998c4.396,0,8-3.598,8-7.999v-47.999c0-4.396,3.602-7.999,7.998-7.999h40c4.4,0,8.004,3.603,8.004,7.999v47.999   c0,4.401,3.598,7.999,7.998,7.999h48c4.4,0,7.998,3.603,7.998,8.004V256z"
   id="path5"
   style="fill:#ffffff" />
  </g>
</svg>