<?xml version="1.0" encoding="UTF-8" standalone="no"?>
<svg
   xmlns:dc="http://purl.org/dc/elements/1.1/"
   xmlns:cc="http://creativecommons.org/ns#"
   xmlns:rdf="http://www.w3.org/1999/02/22-rdf-syntax-ns#"
   xmlns:svg="http://www.w3.org/2000/svg"
   xmlns="http://www.w3.org/2000/svg"
   xmlns:xlink="http://www.w3.org/1999/xlink"
   xmlns:sodipodi="http://sodipodi.sourceforge.net/DTD/sodipodi-0.dtd"
   xmlns:inkscape="http://www.inkscape.org/namespaces/inkscape"
   version="1.1"
   x="0px"
   y="0px"
   width="256.53058"
   height="405"
   viewBox="0 0 256.53058 404.99999"
   xml:space="preserve"
   id="svg2"
   inkscape:version="0.91 r13725"
   sodipodi:docname="ic_offline-old.svg"
   inkscape:export-filename="/data/yaxim/res/drawable-hdpi/sb_message.png"
   inkscape:export-xdpi="8.4444447"
   inkscape:export-ydpi="8.4444447"><metadata
     id="metadata11"><rdf:RDF><cc:Work
         rdf:about=""><dc:format>image/svg+xml</dc:format><dc:type
           rdf:resource="http://purl.org/dc/dcmitype/StillImage" /><dc:title></dc:title></cc:Work></rdf:RDF></metadata><defs
     id="defs9"><linearGradient
       id="linearGradient3836"><stop
         id="stop3838"
         offset="0"
         style="stop-color:#828282;stop-opacity:1;" /><stop
         id="stop3840"
         offset="1"
         style="stop-color:#919191;stop-opacity:1;" /></linearGradient><filter
       id="filter5171"
       inkscape:label="Specular light"
       inkscape:menu="ABCs"
       inkscape:menu-tooltip="Basic specular bevel to use for building textures"
       color-interpolation-filters="sRGB"><feGaussianBlur
         id="feGaussianBlur5173"
         result="result0"
         in="SourceAlpha"
         stdDeviation="6" /><feSpecularLighting
         id="feSpecularLighting5175"
         specularExponent="25"
         specularConstant="1"
         surfaceScale="10"
         lighting-color="#ffffff"
         result="result1"
         in="result0"><feDistantLight
           id="feDistantLight5177"
           azimuth="235"
           elevation="45" /></feSpecularLighting><feComposite
         k4="0"
         k1="0"
         id="feComposite5179"
         in2="result1"
         k3="1"
         k2="1"
         operator="arithmetic"
         result="result4"
         in="SourceGraphic" /><feComposite
         id="feComposite5181"
         in2="SourceAlpha"
         operator="in"
         result="result2"
         in="result4" /></filter><filter
       color-interpolation-filters="sRGB"
       id="filter5439"
       inkscape:label="Drop shadow"
       width="1.5"
       height="1.5"
       x="-0.25"
       y="-0.25"><feGaussianBlur
         id="feGaussianBlur5441"
         in="SourceAlpha"
         stdDeviation="5"
         result="blur" /><feColorMatrix
         id="feColorMatrix5443"
         result="bluralpha"
         type="matrix"
         values="1 0 0 0 0 0 1 0 0 0 0 0 1 0 0 0 0 0 0.6 0 " /><feOffset
         id="feOffset5445"
         in="bluralpha"
         dx="0"
         dy="4"
         result="offsetBlur" /><feMerge
         id="feMerge5447"><feMergeNode
           id="feMergeNode5449"
           in="offsetBlur" /><feMergeNode
           id="feMergeNode5451"
           in="SourceGraphic" /></feMerge></filter><clipPath
       clipPathUnits="userSpaceOnUse"
       id="clipPath5372"><path
         sodipodi:type="arc"
         style="fill:none;stroke:#000000;stroke-width:1;stroke-linecap:square;stroke-linejoin:miter;stroke-miterlimit:4;stroke-opacity:1;stroke-dasharray:none"
         id="path5374"
         sodipodi:cx="280.07578"
         sodipodi:cy="779.51416"
         sodipodi:rx="63.24292"
         sodipodi:ry="63.24292"
         d="m 343.3187,779.51416 a 63.24292,63.24292 0 1 1 -126.48584,0 63.24292,63.24292 0 1 1 126.48584,0 z"
         transform="matrix(0.87727326,0,0,0.89258862,-5.3058282,167.15749)" /></clipPath><linearGradient
       id="linearGradient5467"><stop
         style="stop-color:#1a1a1a;stop-opacity:1;"
         offset="0"
         id="stop5469" /><stop
         style="stop-color:#000000;stop-opacity:1;"
         offset="1"
         id="stop5471" /></linearGradient><radialGradient
       inkscape:collect="always"
       xlink:href="#linearGradient5467"
       id="radialGradient4243"
       gradientUnits="userSpaceOnUse"
       gradientTransform="matrix(1.5669948,-0.00946795,0.00596864,0.98784039,-140.25196,12.878452)"
       cx="238.38947"
       cy="879.16357"
       fx="238.38947"
       fy="879.16357"
       r="64.877129" /><linearGradient
       id="linearGradient3892"><stop
         style="stop-color:#1a1a1a;stop-opacity:1;"
         offset="0"
         id="stop3894" /><stop
         style="stop-color:#000000;stop-opacity:1;"
         offset="1"
         id="stop3896" /></linearGradient><mask
       maskUnits="userSpaceOnUse"
       id="mask4163"><g
         id="g4165"><path
           style="fill:url(#linearGradient4173);fill-opacity:1;stroke:none"
           d="m 238.08477,888.17661 0,39.56144 c 5.4682,-8.60936 11.21021,-17.52954 13.94028,-27.69301 -2.18244,-3.64532 -7.10302,-7.91229 -13.94028,-11.86843 z"
           id="path4167"
           inkscape:connector-curvature="0"
           sodipodi:nodetypes="cccc" /><path
           style="fill:none;stroke:url(#linearGradient4175);stroke-width:1;stroke-linecap:butt;stroke-linejoin:round;stroke-miterlimit:4;stroke-opacity:1;stroke-dasharray:none"
           d="m 238.08477,885.53484 0,46.60614"
           id="path4169"
           inkscape:connector-curvature="0"
           sodipodi:nodetypes="cc"
           clip-path="url(#clipPath4051)" /><path
           sodipodi:nodetypes="cccc"
           inkscape:connector-curvature="0"
           id="path4171"
           d="m 238.08477,888.17661 0,39.56144 c -5.4682,-8.60936 -11.21021,-17.52954 -13.94028,-27.69301 2.18244,-3.64532 7.10302,-7.91229 13.94028,-11.86843 z"
           style="fill:url(#linearGradient4177);fill-opacity:1;stroke:none" /></g></mask><linearGradient
       inkscape:collect="always"
       xlink:href="#linearGradient4114"
       id="linearGradient4173"
       gradientUnits="userSpaceOnUse"
       x1="243.36093"
       y1="900.04309"
       x2="247.62825"
       y2="893.63629" /><linearGradient
       id="linearGradient4114"><stop
         style="stop-color:#000000;stop-opacity:1;"
         offset="0"
         id="stop4116" /><stop
         id="stop4199"
         offset="0.5"
         style="stop-color:#b67800;stop-opacity:1;" /><stop
         style="stop-color:#fcaf1c;stop-opacity:1;"
         offset="1"
         id="stop4118" /></linearGradient><linearGradient
       inkscape:collect="always"
       xlink:href="#linearGradient4059"
       id="linearGradient4175"
       gradientUnits="userSpaceOnUse"
       x1="237.83601"
       y1="888.36017"
       x2="237.95665"
       y2="927.42889" /><linearGradient
       id="linearGradient4059"><stop
         style="stop-color:#feb82c;stop-opacity:1;"
         offset="0"
         id="stop4061" /><stop
         style="stop-color:#f3b417;stop-opacity:1;"
         offset="1"
         id="stop4063" /></linearGradient><clipPath
       clipPathUnits="userSpaceOnUse"
       id="clipPath4051"><g
         id="g4053"
         style="fill:none;stroke:#ffffff"><path
           style="fill:none;stroke:#ffffff;stroke-width:0.53272158;stroke-linecap:butt;stroke-linejoin:round;stroke-miterlimit:4;stroke-opacity:1;stroke-dasharray:none"
           d="m 238.08477,888.17661 0,39.56144 c 5.4682,-8.60936 11.21021,-17.52954 13.94028,-27.69301 -2.18244,-3.64532 -7.10302,-7.91229 -13.94028,-11.86843 z"
           id="path4055"
           inkscape:connector-curvature="0"
           sodipodi:nodetypes="cccc" /><path
           sodipodi:nodetypes="cccc"
           inkscape:connector-curvature="0"
           id="path4057"
           d="m 238.08477,888.17661 0,39.56144 c -5.4682,-8.60936 -11.21021,-17.52954 -13.94028,-27.69301 2.18244,-3.64532 7.10302,-7.91229 13.94028,-11.86843 z"
           style="fill:none;stroke:#ffffff;stroke-width:0.53272158;stroke-linecap:butt;stroke-linejoin:round;stroke-miterlimit:4;stroke-opacity:1;stroke-dasharray:none" /></g></clipPath><linearGradient
       inkscape:collect="always"
       xlink:href="#linearGradient4122"
       id="linearGradient4177"
       gradientUnits="userSpaceOnUse"
       x1="231.30499"
       y1="899.91748"
       x2="228.28616"
       y2="892.88257" /><linearGradient
       id="linearGradient4122"><stop
         style="stop-color:#f3b417;stop-opacity:1;"
         offset="0"
         id="stop4124" /><stop
         style="stop-color:#fcaf1c;stop-opacity:1;"
         offset="1"
         id="stop4126" /></linearGradient><linearGradient
       inkscape:collect="always"
       xlink:href="#linearGradient4059"
       id="linearGradient4239"
       gradientUnits="userSpaceOnUse"
       x1="237.83601"
       y1="888.36017"
       x2="237.95665"
       y2="927.42889" /><linearGradient
       id="linearGradient3921"><stop
         style="stop-color:#feb82c;stop-opacity:1;"
         offset="0"
         id="stop3923" /><stop
         style="stop-color:#f3b417;stop-opacity:1;"
         offset="1"
         id="stop3925" /></linearGradient><clipPath
       clipPathUnits="userSpaceOnUse"
       id="clipPath3927"><g
         id="g3929"
         style="fill:none;stroke:#ffffff"><path
           style="fill:none;stroke:#ffffff;stroke-width:0.53272158;stroke-linecap:butt;stroke-linejoin:round;stroke-miterlimit:4;stroke-opacity:1;stroke-dasharray:none"
           d="m 238.08477,888.17661 0,39.56144 c 5.4682,-8.60936 11.21021,-17.52954 13.94028,-27.69301 -2.18244,-3.64532 -7.10302,-7.91229 -13.94028,-11.86843 z"
           id="path3931"
           inkscape:connector-curvature="0"
           sodipodi:nodetypes="cccc" /><path
           sodipodi:nodetypes="cccc"
           inkscape:connector-curvature="0"
           id="path3933"
           d="m 238.08477,888.17661 0,39.56144 c -5.4682,-8.60936 -11.21021,-17.52954 -13.94028,-27.69301 2.18244,-3.64532 7.10302,-7.91229 13.94028,-11.86843 z"
           style="fill:none;stroke:#ffffff;stroke-width:0.53272158;stroke-linecap:butt;stroke-linejoin:round;stroke-miterlimit:4;stroke-opacity:1;stroke-dasharray:none" /></g></clipPath><linearGradient
       id="linearGradient4201"><stop
         id="stop4203"
         offset="0"
         style="stop-color:#986400;stop-opacity:1;" /><stop
         style="stop-color:#b67800;stop-opacity:1;"
         offset="0.74023157"
         id="stop4205" /><stop
         id="stop4207"
         offset="1"
         style="stop-color:#fcaf1c;stop-opacity:1;" /></linearGradient><linearGradient
       id="linearGradient3941"><stop
         style="stop-color:#f3b417;stop-opacity:1;"
         offset="0"
         id="stop3943" /><stop
         style="stop-color:#fcaf1c;stop-opacity:1;"
         offset="1"
         id="stop3945" /></linearGradient><linearGradient
       id="linearGradient4293"><stop
         style="stop-color:#e4310d;stop-opacity:1;"
         offset="0"
         id="stop4295" /><stop
         style="stop-color:#c0290b;stop-opacity:0;"
         offset="1"
         id="stop4297" /></linearGradient><linearGradient
       id="linearGradient3952"><stop
         style="stop-color:#e4310d;stop-opacity:1;"
         offset="0"
         id="stop3954" /><stop
         style="stop-color:#c0290b;stop-opacity:0;"
         offset="1"
         id="stop3956" /></linearGradient><radialGradient
       inkscape:collect="always"
       xlink:href="#linearGradient4293"
       id="radialGradient4127"
       cx="254.4561"
       cy="157.43228"
       fx="254.4561"
       fy="157.43228"
       r="13.967531"
       gradientTransform="matrix(1.4766783,0.05396358,-0.03075353,0.84155025,-116.4521,13.097993)"
       gradientUnits="userSpaceOnUse" /><linearGradient
       id="linearGradient3959"><stop
         style="stop-color:#e4310d;stop-opacity:1;"
         offset="0"
         id="stop3961" /><stop
         style="stop-color:#c0290b;stop-opacity:0;"
         offset="1"
         id="stop3963" /></linearGradient><linearGradient
       inkscape:collect="always"
       xlink:href="#linearGradient3836"
       id="linearGradient7733"
       x1="197.62054"
       y1="122.14509"
       x2="273.68304"
       y2="122.14509"
       gradientUnits="userSpaceOnUse" /><linearGradient
       inkscape:collect="always"
       xlink:href="#linearGradient3836"
       id="linearGradient4268"
       gradientUnits="userSpaceOnUse"
       x1="197.62054"
       y1="122.14509"
       x2="273.68304"
       y2="122.14509" /><linearGradient
       inkscape:collect="always"
       xlink:href="#linearGradient3836"
       id="linearGradient4852"
       x1="196.23506"
       y1="126.41583"
       x2="275.33273"
       y2="126.41583"
       gradientUnits="userSpaceOnUse" /></defs><sodipodi:namedview
     pagecolor="#3d3d3d"
     bordercolor="#666666"
     borderopacity="1"
     objecttolerance="10"
     gridtolerance="10"
     guidetolerance="10"
     inkscape:pageopacity="1"
     inkscape:pageshadow="2"
     inkscape:window-width="1920"
     inkscape:window-height="1029"
     id="namedview7"
     showgrid="false"
     inkscape:zoom="1.4142136"
     inkscape:cx="44.263294"
     inkscape:cy="258.06312"
     inkscape:window-x="0"
     inkscape:window-y="0"
     inkscape:window-maximized="0"
     inkscape:current-layer="g4263"
     showguides="true"
     inkscape:guide-bbox="true"
     fit-margin-top="0"
     fit-margin-left="-6.3837824e-16"
     fit-margin-right="0"
     fit-margin-bottom="85"><sodipodi:guide
       orientation="1,0"
       position="0.25383585,332.11218"
       id="guide2983" /><sodipodi:guide
       orientation="0,1"
       position="21.105036,332.11218"
       id="guide2985" /><sodipodi:guide
       orientation="1,0"
       position="307.88904,465.75052"
       id="guide2987" /><sodipodi:guide
       orientation="0,1"
       position="-112.11096,45.75052"
       id="guide2989" /></sodipodi:namedview><g
     inkscape:export-filename="/home/dd/src/android/yaxim/res/drawable-hdpi/available.png"
     inkscape:export-ydpi="38.889999"
     inkscape:export-xdpi="38.889999"
     id="g4234"
     transform="matrix(3.2411581,0,0,3.2411576,-635.51941,-198.24599)"
     mask="url(#mask7707)"
     style="fill-opacity:1.0;fill:url(#linearGradient7733)"><g
       id="g4263"
       style="fill-opacity:1;fill:url(#linearGradient4268)"><path
         style="fill:url(#linearGradient4852);fill-opacity:1.0;stroke:none;stroke-opacity:1"
         d="m 201.91847,76.728526 c -2.25773,1.625746 -4.08618,4.192731 -4.22437,7.006804 -0.0142,1.114963 -0.39187,2.590701 -0.61879,3.943998 -0.53466,2.062217 -0.77337,4.191195 -0.84025,6.203254 0.12946,0.780421 0.34488,2.544288 0.37334,3.746992 0.31011,2.033208 0.79564,3.856366 1.76545,5.728696 0.97908,1.79534 1.88849,3.62772 2.84685,5.46472 0.63192,1.87585 2.08657,3.71874 3.40559,5.30751 1.08385,1.60201 2.84491,2.68696 3.89822,4.24678 1.97742,1.75449 3.93701,3.54548 6.44556,4.45156 3.03414,0.72565 0.31553,0.95072 -0.47978,2.28642 -0.49798,0.84431 -1.21084,1.91237 -1.18611,2.84253 0.58392,0.95561 1.96211,-0.81027 2.96616,-0.37267 -2.45807,3.80036 -0.8867,18.81706 1.49852,25.35065 0.83784,4.33168 3.46406,7.50656 5.38829,11.39237 1.54034,2.84694 3.50795,4.92224 5.67324,7.57273 2.3266,2.14051 5.09931,4.28041 8.34121,4.20006 4.19525,0.0214 6.19254,-2.57255 9.41635,-5.88992 1.10152,-1.11282 1.80548,-2.74 2.81879,-3.92377 1.73437,-2.5722 3.38052,-5.42402 4.72583,-8.21587 3.92769,-7.7477 6.29606,-23.03622 3.01765,-30.82689 -1.89866,-1.40972 -0.26672,-1.5876 1.20758,-1.3412 1.46612,0.15784 0.55906,-1.41596 0.0644,-2.08553 -1.14166,-0.71664 0.15472,-1.54421 0.78015,-1.55858 2.26142,-1.20331 4.20804,-3.06947 5.99668,-4.97365 1.78459,-2.1528 3.65987,-4.25422 4.92729,-6.80108 0.51591,-0.73346 1.3324,-2.16697 1.45476,-2.98517 0.89548,-2.6695 2.06007,-5.79912 2.52072,-8.728422 1.08765,-3.632188 1.70866,-7.628789 0.775,-11.280762 -0.97528,-2.961887 -1.49625,-6.020051 -3.07258,-8.834205 -0.43777,-0.63474 -1.47337,-2.194929 -2.24693,-1.229586 -0.13445,0.870118 -0.67693,1.654712 -0.94667,2.464996 -0.93014,2.84818 -2.47478,5.621829 -3.63388,8.59644 -1.1496,2.535552 -2.82824,5.133835 -4.45265,7.587147 -0.75414,0.803899 -1.69915,2.690634 -2.52758,3.720788 -0.75263,1.133154 -2.14363,2.632304 -2.76618,3.549014 -2.59835,2.58566 -5.51989,4.92341 -7.81449,7.85112 -1.00005,0.65498 -1.42838,2.18894 -2.8271,2.03896 -2.30617,-0.0529 -4.85326,0.59459 -6.57431,2.18647 -0.64653,0.25777 -1.43131,-0.6604 -2.14307,-0.97338 -2.26593,-0.79657 -4.95236,-0.99744 -7.01716,-0.18827 -0.39926,0.445 -1.347,-0.4104 -2.21259,-1.01705 -2.24263,-1.90827 -3.11263,-2.50344 -4.4192,-3.70526 -0.54275,-0.50198 -1.30382,-1.02266 -2.03836,-1.74395 -1.38853,-1.32988 -2.99753,-2.41588 -4.3617,-3.87315 -0.70546,-0.68036 -1.57741,-1.30683 -2.26066,-2.23694 -0.94961,-0.88024 -1.66203,-2.11792 -2.39283,-3.043396 -1.4722,-2.299856 -3.40291,-4.526741 -5.04229,-6.594355 -0.97032,-1.458491 -1.93852,-3.243777 -2.71126,-4.535014 -0.56201,-1.285551 -0.96979,-2.367215 -1.10028,-3.84889 -0.2985,-2.008897 -0.22282,-4.648001 -0.39653,-6.933049 z m 35.79116,84.575744 c 0.56338,0.009 4.89535,0.59622 5.4655,0.88094 1.68163,0.85696 2.01862,1.82854 -2.02158,2.54399 -3.51282,0.64354 -2.66398,6.4615 -2.69106,9.39347 -0.53725,0.0188 -1.89267,-2e-4 -2.5258,0.0145 0.20663,-2.85559 0.99075,-8.30338 -1.98324,-9.14633 -1.60617,-0.41694 -3.8349,-2.21798 -2.6724,-2.6299 1.1372,-0.64097 5.18917,-1.07775 6.42858,-1.05672 z"
         id="path4763"
         inkscape:connector-curvature="0"
         sodipodi:nodetypes="ccccccccccccccccccccccccccccccccccccccccccccccccccccccccccc" /><path
         style="fill:#ff8080;fill-opacity:1;stroke:#000000;stroke-width:0.1962909;stroke-opacity:1"
         d="m 264.5335,117.9736 c -0.36237,-0.11242 -0.0623,0.1195 0,0 z"
         id="path4238-6"
         inkscape:connector-curvature="0" /><path
         style="fill:#000000"
         d=""
         id="path3427-6"
         inkscape:connector-curvature="0" /></g></g></svg>