<?xml version="1.0" encoding="UTF-8" standalone="no"?>
<svg
   xmlns:dc="http://purl.org/dc/elements/1.1/"
   xmlns:cc="http://creativecommons.org/ns#"
   xmlns:rdf="http://www.w3.org/1999/02/22-rdf-syntax-ns#"
   xmlns:svg="http://www.w3.org/2000/svg"
   xmlns="http://www.w3.org/2000/svg"
   xmlns:xlink="http://www.w3.org/1999/xlink"
   xmlns:sodipodi="http://sodipodi.sourceforge.net/DTD/sodipodi-0.dtd"
   xmlns:inkscape="http://www.inkscape.org/namespaces/inkscape"
   version="1.1"
   x="0px"
   y="0px"
   width="256.53058"
   height="405"
   viewBox="0 0 256.53058 404.99999"
   xml:space="preserve"
   id="svg2"
   inkscape:version="0.91 r13725"
   sodipodi:docname="ic_online-old.svg"
   inkscape:export-filename="/data/yaxim/res/drawable-hdpi/sb_message.png"
   inkscape:export-xdpi="8.4444447"
   inkscape:export-ydpi="8.4444447"><metadata
     id="metadata11"><rdf:RDF><cc:Work
         rdf:about=""><dc:format>image/svg+xml</dc:format><dc:type
           rdf:resource="http://purl.org/dc/dcmitype/StillImage" /><dc:title></dc:title></cc:Work></rdf:RDF></metadata><defs
     id="defs9"><linearGradient
       id="linearGradient3836"><stop
         id="stop3838"
         offset="0"
         style="stop-color:#828282;stop-opacity:1;" /><stop
         id="stop3840"
         offset="1"
         style="stop-color:#919191;stop-opacity:1;" /></linearGradient><filter
       id="filter5171"
       inkscape:label="Specular light"
       inkscape:menu="ABCs"
       inkscape:menu-tooltip="Basic specular bevel to use for building textures"
       color-interpolation-filters="sRGB"><feGaussianBlur
         id="feGaussianBlur5173"
         result="result0"
         in="SourceAlpha"
         stdDeviation="6" /><feSpecularLighting
         id="feSpecularLighting5175"
         specularExponent="25"
         specularConstant="1"
         surfaceScale="10"
         lighting-color="#ffffff"
         result="result1"
         in="result0"><feDistantLight
           id="feDistantLight5177"
           azimuth="235"
           elevation="45" /></feSpecularLighting><feComposite
         k4="0"
         k1="0"
         id="feComposite5179"
         in2="result1"
         k3="1"
         k2="1"
         operator="arithmetic"
         result="result4"
         in="SourceGraphic" /><feComposite
         id="feComposite5181"
         in2="SourceAlpha"
         operator="in"
         result="result2"
         in="result4" /></filter><filter
       color-interpolation-filters="sRGB"
       id="filter5439"
       inkscape:label="Drop shadow"
       width="1.5"
       height="1.5"
       x="-0.25"
       y="-0.25"><feGaussianBlur
         id="feGaussianBlur5441"
         in="SourceAlpha"
         stdDeviation="5"
         result="blur" /><feColorMatrix
         id="feColorMatrix5443"
         result="bluralpha"
         type="matrix"
         values="1 0 0 0 0 0 1 0 0 0 0 0 1 0 0 0 0 0 0.6 0 " /><feOffset
         id="feOffset5445"
         in="bluralpha"
         dx="0"
         dy="4"
         result="offsetBlur" /><feMerge
         id="feMerge5447"><feMergeNode
           id="feMergeNode5449"
           in="offsetBlur" /><feMergeNode
           id="feMergeNode5451"
           in="SourceGraphic" /></feMerge></filter><clipPath
       clipPathUnits="userSpaceOnUse"
       id="clipPath5372"><path
         sodipodi:type="arc"
         style="fill:none;stroke:#000000;stroke-width:1;stroke-linecap:square;stroke-linejoin:miter;stroke-miterlimit:4;stroke-opacity:1;stroke-dasharray:none"
         id="path5374"
         sodipodi:cx="280.07578"
         sodipodi:cy="779.51416"
         sodipodi:rx="63.24292"
         sodipodi:ry="63.24292"
         d="m 343.3187,779.51416 a 63.24292,63.24292 0 1 1 -126.48584,0 63.24292,63.24292 0 1 1 126.48584,0 z"
         transform="matrix(0.87727326,0,0,0.89258862,-5.3058282,167.15749)" /></clipPath><linearGradient
       id="linearGradient5467"><stop
         style="stop-color:#1a1a1a;stop-opacity:1;"
         offset="0"
         id="stop5469" /><stop
         style="stop-color:#000000;stop-opacity:1;"
         offset="1"
         id="stop5471" /></linearGradient><radialGradient
       inkscape:collect="always"
       xlink:href="#linearGradient5467"
       id="radialGradient4243"
       gradientUnits="userSpaceOnUse"
       gradientTransform="matrix(1.5669948,-0.00946795,0.00596864,0.98784039,-140.25196,12.878452)"
       cx="238.38947"
       cy="879.16357"
       fx="238.38947"
       fy="879.16357"
       r="64.877129" /><linearGradient
       id="linearGradient3892"><stop
         style="stop-color:#1a1a1a;stop-opacity:1;"
         offset="0"
         id="stop3894" /><stop
         style="stop-color:#000000;stop-opacity:1;"
         offset="1"
         id="stop3896" /></linearGradient><mask
       maskUnits="userSpaceOnUse"
       id="mask4163"><g
         id="g4165"><path
           style="fill:url(#linearGradient4173);fill-opacity:1;stroke:none"
           d="m 238.08477,888.17661 0,39.56144 c 5.4682,-8.60936 11.21021,-17.52954 13.94028,-27.69301 -2.18244,-3.64532 -7.10302,-7.91229 -13.94028,-11.86843 z"
           id="path4167"
           inkscape:connector-curvature="0"
           sodipodi:nodetypes="cccc" /><path
           style="fill:none;stroke:url(#linearGradient4175);stroke-width:1;stroke-linecap:butt;stroke-linejoin:round;stroke-miterlimit:4;stroke-opacity:1;stroke-dasharray:none"
           d="m 238.08477,885.53484 0,46.60614"
           id="path4169"
           inkscape:connector-curvature="0"
           sodipodi:nodetypes="cc"
           clip-path="url(#clipPath4051)" /><path
           sodipodi:nodetypes="cccc"
           inkscape:connector-curvature="0"
           id="path4171"
           d="m 238.08477,888.17661 0,39.56144 c -5.4682,-8.60936 -11.21021,-17.52954 -13.94028,-27.69301 2.18244,-3.64532 7.10302,-7.91229 13.94028,-11.86843 z"
           style="fill:url(#linearGradient4177);fill-opacity:1;stroke:none" /></g></mask><linearGradient
       inkscape:collect="always"
       xlink:href="#linearGradient4114"
       id="linearGradient4173"
       gradientUnits="userSpaceOnUse"
       x1="243.36093"
       y1="900.04309"
       x2="247.62825"
       y2="893.63629" /><linearGradient
       id="linearGradient4114"><stop
         style="stop-color:#000000;stop-opacity:1;"
         offset="0"
         id="stop4116" /><stop
         id="stop4199"
         offset="0.5"
         style="stop-color:#b67800;stop-opacity:1;" /><stop
         style="stop-color:#fcaf1c;stop-opacity:1;"
         offset="1"
         id="stop4118" /></linearGradient><linearGradient
       inkscape:collect="always"
       xlink:href="#linearGradient4059"
       id="linearGradient4175"
       gradientUnits="userSpaceOnUse"
       x1="237.83601"
       y1="888.36017"
       x2="237.95665"
       y2="927.42889" /><linearGradient
       id="linearGradient4059"><stop
         style="stop-color:#feb82c;stop-opacity:1;"
         offset="0"
         id="stop4061" /><stop
         style="stop-color:#f3b417;stop-opacity:1;"
         offset="1"
         id="stop4063" /></linearGradient><clipPath
       clipPathUnits="userSpaceOnUse"
       id="clipPath4051"><g
         id="g4053"
         style="fill:none;stroke:#ffffff"><path
           style="fill:none;stroke:#ffffff;stroke-width:0.53272158;stroke-linecap:butt;stroke-linejoin:round;stroke-miterlimit:4;stroke-opacity:1;stroke-dasharray:none"
           d="m 238.08477,888.17661 0,39.56144 c 5.4682,-8.60936 11.21021,-17.52954 13.94028,-27.69301 -2.18244,-3.64532 -7.10302,-7.91229 -13.94028,-11.86843 z"
           id="path4055"
           inkscape:connector-curvature="0"
           sodipodi:nodetypes="cccc" /><path
           sodipodi:nodetypes="cccc"
           inkscape:connector-curvature="0"
           id="path4057"
           d="m 238.08477,888.17661 0,39.56144 c -5.4682,-8.60936 -11.21021,-17.52954 -13.94028,-27.69301 2.18244,-3.64532 7.10302,-7.91229 13.94028,-11.86843 z"
           style="fill:none;stroke:#ffffff;stroke-width:0.53272158;stroke-linecap:butt;stroke-linejoin:round;stroke-miterlimit:4;stroke-opacity:1;stroke-dasharray:none" /></g></clipPath><linearGradient
       inkscape:collect="always"
       xlink:href="#linearGradient4122"
       id="linearGradient4177"
       gradientUnits="userSpaceOnUse"
       x1="231.30499"
       y1="899.91748"
       x2="228.28616"
       y2="892.88257" /><linearGradient
       id="linearGradient4122"><stop
         style="stop-color:#f3b417;stop-opacity:1;"
         offset="0"
         id="stop4124" /><stop
         style="stop-color:#fcaf1c;stop-opacity:1;"
         offset="1"
         id="stop4126" /></linearGradient><linearGradient
       inkscape:collect="always"
       xlink:href="#linearGradient4059"
       id="linearGradient4239"
       gradientUnits="userSpaceOnUse"
       x1="237.83601"
       y1="888.36017"
       x2="237.95665"
       y2="927.42889" /><linearGradient
       id="linearGradient3921"><stop
         style="stop-color:#feb82c;stop-opacity:1;"
         offset="0"
         id="stop3923" /><stop
         style="stop-color:#f3b417;stop-opacity:1;"
         offset="1"
         id="stop3925" /></linearGradient><clipPath
       clipPathUnits="userSpaceOnUse"
       id="clipPath3927"><g
         id="g3929"
         style="fill:none;stroke:#ffffff"><path
           style="fill:none;stroke:#ffffff;stroke-width:0.53272158;stroke-linecap:butt;stroke-linejoin:round;stroke-miterlimit:4;stroke-opacity:1;stroke-dasharray:none"
           d="m 238.08477,888.17661 0,39.56144 c 5.4682,-8.60936 11.21021,-17.52954 13.94028,-27.69301 -2.18244,-3.64532 -7.10302,-7.91229 -13.94028,-11.86843 z"
           id="path3931"
           inkscape:connector-curvature="0"
           sodipodi:nodetypes="cccc" /><path
           sodipodi:nodetypes="cccc"
           inkscape:connector-curvature="0"
           id="path3933"
           d="m 238.08477,888.17661 0,39.56144 c -5.4682,-8.60936 -11.21021,-17.52954 -13.94028,-27.69301 2.18244,-3.64532 7.10302,-7.91229 13.94028,-11.86843 z"
           style="fill:none;stroke:#ffffff;stroke-width:0.53272158;stroke-linecap:butt;stroke-linejoin:round;stroke-miterlimit:4;stroke-opacity:1;stroke-dasharray:none" /></g></clipPath><linearGradient
       id="linearGradient4201"><stop
         id="stop4203"
         offset="0"
         style="stop-color:#986400;stop-opacity:1;" /><stop
         style="stop-color:#b67800;stop-opacity:1;"
         offset="0.74023157"
         id="stop4205" /><stop
         id="stop4207"
         offset="1"
         style="stop-color:#fcaf1c;stop-opacity:1;" /></linearGradient><linearGradient
       id="linearGradient3941"><stop
         style="stop-color:#f3b417;stop-opacity:1;"
         offset="0"
         id="stop3943" /><stop
         style="stop-color:#fcaf1c;stop-opacity:1;"
         offset="1"
         id="stop3945" /></linearGradient><linearGradient
       id="linearGradient4293"><stop
         style="stop-color:#e4310d;stop-opacity:1;"
         offset="0"
         id="stop4295" /><stop
         style="stop-color:#c0290b;stop-opacity:0;"
         offset="1"
         id="stop4297" /></linearGradient><linearGradient
       id="linearGradient3952"><stop
         style="stop-color:#e4310d;stop-opacity:1;"
         offset="0"
         id="stop3954" /><stop
         style="stop-color:#c0290b;stop-opacity:0;"
         offset="1"
         id="stop3956" /></linearGradient><radialGradient
       inkscape:collect="always"
       xlink:href="#linearGradient4293"
       id="radialGradient4127"
       cx="254.4561"
       cy="157.43228"
       fx="254.4561"
       fy="157.43228"
       r="13.967531"
       gradientTransform="matrix(1.4766783,0.05396358,-0.03075353,0.84155025,-116.4521,13.097993)"
       gradientUnits="userSpaceOnUse" /><linearGradient
       id="linearGradient3959"><stop
         style="stop-color:#e4310d;stop-opacity:1;"
         offset="0"
         id="stop3961" /><stop
         style="stop-color:#c0290b;stop-opacity:0;"
         offset="1"
         id="stop3963" /></linearGradient><linearGradient
       inkscape:collect="always"
       xlink:href="#linearGradient3836"
       id="linearGradient7733"
       x1="197.62054"
       y1="122.14509"
       x2="273.68304"
       y2="122.14509"
       gradientUnits="userSpaceOnUse" /><linearGradient
       inkscape:collect="always"
       xlink:href="#linearGradient3836"
       id="linearGradient4268"
       gradientUnits="userSpaceOnUse"
       x1="197.62054"
       y1="122.14509"
       x2="273.68304"
       y2="122.14509" /><linearGradient
       inkscape:collect="always"
       xlink:href="#face-4"
       id="linearGradient4191"
       x1="374.63556"
       y1="428.83673"
       x2="371.53345"
       y2="297.51688"
       gradientUnits="userSpaceOnUse"
       gradientTransform="matrix(0.43084117,0,0,0.43178741,-32.504638,816.95133)" /><linearGradient
       inkscape:collect="always"
       id="face-4"><stop
         style="stop-color:#7d5d5d;stop-opacity:1"
         offset="0"
         id="stop4187" /><stop
         style="stop-color:#653a3a;stop-opacity:1"
         offset="1"
         id="stop4189" /></linearGradient><linearGradient
       inkscape:collect="always"
       xlink:href="#face-4"
       id="linearGradient4207"
       x1="267.55359"
       y1="363.70987"
       x2="243.70245"
       y2="356.63879"
       gradientUnits="userSpaceOnUse"
       gradientTransform="matrix(0.43084117,0,0,0.43178741,-32.504638,816.95133)" /><linearGradient
       inkscape:collect="always"
       xlink:href="#face-4"
       id="linearGradient4199"
       x1="476.2699"
       y1="351.55411"
       x2="494.49133"
       y2="344.48303"
       gradientUnits="userSpaceOnUse"
       gradientTransform="matrix(0.43084117,0,0,0.43178741,-32.504638,816.95133)" /><radialGradient
       inkscape:collect="always"
       xlink:href="#hair-3"
       id="radialGradient4217"
       cx="374.30594"
       cy="290.83109"
       fx="374.30594"
       fy="290.83109"
       r="110.27738"
       gradientTransform="matrix(0.51642294,-0.00883784,0.00347391,0.20388409,-65.930166,877.32132)"
       gradientUnits="userSpaceOnUse" /><linearGradient
       inkscape:collect="always"
       id="hair-3"><stop
         style="stop-color:#803300;stop-opacity:1;"
         offset="0"
         id="stop4211" /><stop
         style="stop-color:#632800;stop-opacity:1"
         offset="1"
         id="stop4213" /></linearGradient><linearGradient
       inkscape:collect="always"
       xlink:href="#horn-6-7"
       id="linearGradient4169"
       x1="163.93039"
       y1="136.61838"
       x2="221.33586"
       y2="103.28334"
       gradientUnits="userSpaceOnUse"
       gradientTransform="matrix(0.43084117,0,0,0.43178741,-32.504638,816.95133)" /><linearGradient
       id="horn-6-7"
       inkscape:collect="always"><stop
         id="stop4173"
         offset="0"
         style="stop-color:#c8b7b7;stop-opacity:1;" /><stop
         id="stop4175"
         offset="1"
         style="stop-color:#916f6f;stop-opacity:1" /></linearGradient><linearGradient
       inkscape:collect="always"
       xlink:href="#horn-6-7"
       id="linearGradient4183"
       x1="485.88913"
       y1="130.25711"
       x2="531.94739"
       y2="162.58197"
       gradientUnits="userSpaceOnUse"
       gradientTransform="matrix(0.43084117,0,0,0.43178741,-32.504638,816.95133)" /><linearGradient
       inkscape:collect="always"
       xlink:href="#linearGradient3836"
       id="linearGradient3501"
       gradientUnits="userSpaceOnUse"
       x1="197.62054"
       y1="122.14509"
       x2="273.68304"
       y2="122.14509" /></defs><sodipodi:namedview
     pagecolor="#3d3d3d"
     bordercolor="#666666"
     borderopacity="1"
     objecttolerance="10"
     gridtolerance="10"
     guidetolerance="10"
     inkscape:pageopacity="1"
     inkscape:pageshadow="2"
     inkscape:window-width="1920"
     inkscape:window-height="1029"
     id="namedview7"
     showgrid="false"
     inkscape:zoom="1.4142136"
     inkscape:cx="44.263294"
     inkscape:cy="258.06312"
     inkscape:window-x="0"
     inkscape:window-y="0"
     inkscape:window-maximized="0"
     inkscape:current-layer="g4263"
     showguides="true"
     inkscape:guide-bbox="true"
     fit-margin-top="0"
     fit-margin-left="-6.3837824e-16"
     fit-margin-right="0"
     fit-margin-bottom="85"><sodipodi:guide
       orientation="1,0"
       position="0.25383585,332.11218"
       id="guide2983" /><sodipodi:guide
       orientation="0,1"
       position="21.105036,332.11218"
       id="guide2985" /><sodipodi:guide
       orientation="1,0"
       position="307.88904,465.75052"
       id="guide2987" /><sodipodi:guide
       orientation="0,1"
       position="-112.11096,45.75052"
       id="guide2989" /></sodipodi:namedview><g
     inkscape:export-filename="/home/dd/src/android/yaxim/res/drawable-hdpi/available.png"
     inkscape:export-ydpi="38.889999"
     inkscape:export-xdpi="38.889999"
     id="g4234"
     transform="matrix(3.2411581,0,0,3.2411576,-635.51941,-198.24599)"
     mask="url(#mask7707)"
     style="fill-opacity:1.0;fill:url(#linearGradient7733)"><g
       id="g4263"
       style="fill-opacity:1;fill:url(#linearGradient4268)"><g
         id="g4262"
         transform="matrix(0.45194064,0,0,0.45194071,180.16525,-294.89986)"
         style="fill:url(#linearGradient3501)"><path
           sodipodi:nodetypes="ccccccccccccccccccccccccccccccccccccccccccccccccccccccccccccccc"
           inkscape:connector-curvature="0"
           id="path4272"
           d="m 126.58306,1042.1389 c -7.09035,0.1774 -13.66992,-2.7851 -18.75841,-7.5104 -5.88417,-4.2836 -9.381015,-10.8254 -12.749868,-17.1103 -4.208493,-8.5784 -9.094199,-16.9566 -10.92662,-26.51907 -1.803917,-5.76691 0.331622,-4.9829 -6.286858,-6.52366 -2.3545,-0.6022 -2.933021,-0.65562 -5.127509,-1.49781 -3.307555,-1.66113 -6.82072,-4.90316 -6.026895,-9.14553 0.08147,-3.34016 2.748025,-9.29511 3.97469,-12.04361 0.91534,-1.65692 3.058877,-3.12108 2.201741,-5.09228 0.528801,-4.64531 1.345241,-9.54102 3.378281,-13.64115 1.236436,-2.65573 3.147097,-5.53074 4.609704,-8.02095 -2.195938,-0.96604 -5.210293,2.93179 -6.487379,0.82212 -0.05406,-2.05336 1.505113,-4.40962 2.594297,-6.2735 1.73941,-2.94874 7.683875,-3.44611 1.047935,-5.04802 -5.486425,-2.00028 -9.771628,-5.95319 -14.096424,-9.8264 -2.303704,-3.44345 -6.15485,-5.84069 -8.525329,-9.37725 -2.884844,-3.50736 -6.066033,-7.57438 -7.448098,-11.71551 -2.096051,-4.05535 -4.085075,-8.10164 -6.226413,-12.065 -2.121078,-4.13334 -3.183825,-8.15761 -3.862042,-12.64611 -0.06224,-2.65508 -0.532585,-6.54839 -0.815643,-8.27126 0.146292,-4.44179 0.668419,-9.14264 1.83774,-13.69518 0.496324,-2.98753 1.323428,-6.24528 1.353207,-8.70666 0.302197,-6.21234 4.301217,-11.87896 9.239082,-15.46794 0.379912,5.04446 0.214517,10.87118 0.867348,15.306 0.285403,3.27095 1.176012,5.65808 2.405197,8.49605 1.690048,2.85054 3.807757,6.79173 5.929922,10.01148 3.585485,4.56445 7.808228,9.47947 11.02808,14.55661 1.598335,2.04308 3.157992,4.77727 5.234862,6.7205 1.494321,2.05329 3.399273,3.43578 4.942179,4.93772 2.983537,3.21707 6.504731,5.61338 9.541551,8.54921 1.606526,1.5923 3.269674,2.74249 4.456728,3.85064 2.857588,2.65316 4.760789,3.96737 9.665604,8.18004 1.89317,1.33926 3.9661,3.22774 4.83934,2.24536 4.5159,-1.78631 10.39091,-1.34346 15.34674,0.41505 1.55667,0.69093 3.27329,2.71745 4.68732,2.1484 3.76411,-3.51423 9.3342,-4.94278 14.37801,-4.82612 3.05916,0.33108 3.99723,-3.05457 6.18447,-4.5005 5.01848,-6.46319 11.4081,-11.62361 17.09092,-17.33168 1.36158,-2.02375 4.40218,-5.33511 6.04822,-7.83666 1.81188,-2.27416 3.88026,-6.43952 5.52961,-8.21422 3.55278,-5.41595 7.22461,-11.1506 9.7389,-16.74806 2.53507,-6.56673 5.91343,-12.68945 7.94775,-18.97709 0.5899,-1.78877 1.77538,-3.52089 2.06935,-5.44175 1.69184,-2.13109 3.95725,1.31247 4.91473,2.71372 3.44757,6.2125 4.5866,12.96437 6.71963,19.50302 2.04198,8.06207 0.6828,16.88473 -1.69602,24.90312 -1.00747,6.46671 -3.55283,13.37555 -5.51135,19.26871 -0.26761,1.80626 -2.05447,4.9708 -3.18281,6.58997 -2.77196,5.62244 -6.87337,10.26188 -10.77642,15.01436 -3.91191,4.20367 -8.16947,8.32363 -13.11539,10.98009 -1.3679,0.0317 -4.20256,1.85775 -1.70564,3.43976 1.08194,1.47816 3.06663,4.95188 -0.13991,4.60357 -3.22443,-0.54393 -6.79533,-0.15054 -2.64276,2.96154 3.23213,3.91664 3.4291,10.06727 2.59427,14.83218 1.43984,0.7415 4.8641,1.57501 5.2188,4.62545 2.63582,6.29969 7.64664,11.96238 9.0529,18.41008 0.17894,2.944 -1.38965,4.87826 -2.79168,6.78295 -2.79418,2.67527 -7.15063,3.8727 -11.17285,2.61969 -2.78489,-1.28268 -1.52093,3.80886 -2.36034,5.22389 -1.20787,6.5517 -3.81355,12.30606 -7.1399,17.90839 -2.94235,6.1633 -6.02787,12.0681 -9.82112,17.7466 -2.21619,2.6131 -4.44333,5.2258 -6.85245,7.6824 -7.05077,7.3235 -11.24756,12.073 -20.42298,12.025 z"
           style="fill:#000000;fill-opacity:1;stroke:#000000;stroke-width:0.43099999;stroke-miterlimit:4;stroke-dasharray:none;stroke-opacity:1" /><path
           sodipodi:nodetypes="ccccccccccccccc"
           inkscape:connector-curvature="0"
           id="path4270"
           d="m 124.94764,1039.4395 c 0.45196,-5.4315 2.23538,-13.306 -4.43943,-14.0383 -2.36257,-1.1866 -2.18981,-4.3763 0.35274,-5.2857 3.61766,-2.0579 7.58221,-3.6452 11.57249,-1.6342 3.6779,1.8919 2.40163,7.901 -1.82318,7.5412 -3.54555,-0.4379 -2.81783,2.8858 -2.88188,4.5135 0.0932,3.4069 0.46995,10.8351 5.66537,7.4806 4.83252,-2.1883 8.82018,-6.011 12.19586,-10.561 3.25582,-3.3427 6.73813,-7.1379 9.41477,-11.5532 2.40167,-3.1021 -2.18401,-4.8065 -2.18401,-4.8065 -11.22713,-6.5688 -24.74797,-9.3533 -37.52649,-6.6627 -4.89674,1.8141 -9.9689,3.4359 -14.59616,5.7852 -3.735505,1.4671 -5.812815,3.9107 -2.377214,7.6579 3.544274,6.2296 7.527934,12.4324 13.657084,16.4724 3.59928,2.9931 8.22809,5.2943 12.97005,5.0908 z"
           style="fill:#ffccaa;fill-opacity:1;stroke:#000000;stroke-width:0.43131402;stroke-opacity:1" /><path
           inkscape:connector-curvature="0"
           id="path4268"
           d="m 127.77864,1028.5536 c -0.33143,-0.8631 -0.24671,0.764 0,0 z"
           style="fill:#ff8080;fill-opacity:1;stroke:#000000;stroke-width:0.43131402;stroke-opacity:1" /><path
           inkscape:connector-curvature="0"
           id="path4266"
           d="m 95.110116,1009.9642 c 6.192304,-5.004 14.119014,-7.0315 21.552834,-9.4869 9.08852,-1.25252 18.93599,-0.63338 27.72462,2.8106 4.74516,1.6946 9.05975,4.2725 13.38615,6.7895 3.13085,-6.5983 7.19946,-12.69759 9.14372,-19.6641 1.67898,-9.12788 2.87027,-18.79835 3.24203,-27.77863 1.53706,-4.32197 -3.75501,-3.65998 -3.47044,-7.73059 -1.44979,-6.71739 -7.96946,-10.61799 -12.6846,-15.02827 -1.55845,-1.15439 -4.14997,-4.49449 -5.25038,-1.18211 -2.40033,3.80647 -3.79028,7.11535 -6.00666,11.28136 -1.30501,1.78827 -1.81869,3.89215 -3.05086,5.17836 -0.5988,2.77893 -4.94597,3.73813 -5.68516,0.5474 -2.49235,-3.2659 -5.10802,-6.44695 -7.22391,-10.03014 -1.90244,-2.6233 -4.22002,-4.87591 -5.57647,-7.80881 -3.00792,5.05715 -6.55362,9.70305 -9.49124,14.75691 -0.60225,1.41966 -5.62843,5.42602 -1.34103,4.74166 3.66716,0.75186 6.89516,3.76168 8.67136,6.9249 0.81715,2.15796 2.76089,5.04151 1.42371,8.05265 -1.46661,4.72243 -3.65888,9.56592 -8.52601,11.30075 -1.60292,0.77239 -4.76075,0.47482 -6.73336,-0.58595 -5.260678,-3.75463 -6.028115,-11.55234 -5.243684,-16.73457 1.044694,-3.26092 2.599224,-6.24966 5.441354,-8.22714 1.20609,-0.66012 -1.40213,-2.00638 -1.9847,-2.89876 -3.18084,-1.26913 -7.97928,-13.18968 -9.545105,-6.40156 -0.916812,3.77918 -1.658102,8.16512 -1.785957,11.76495 1.056162,2.38327 -2.268368,4.18328 -3.999083,-0.0136 -1.211268,-4.84004 -5.132394,-12.13358 -3.989331,-2.39447 -1.400776,8.53844 -1.840117,17.37535 0.774106,25.67913 1.079416,3.56658 1.605863,7.08664 3.054079,10.30129 1.777301,5.55088 3.68378,11.15954 6.85241,16.05254 l 0.32238,-0.2167 -8.61e-4,3e-4 z"
           style="fill:url(#linearGradient4191);fill-opacity:1;stroke:#000000;stroke-width:0.43131402;stroke-opacity:1" /><path
           inkscape:connector-curvature="0"
           id="path4264"
           d="m 144.75917,985.10612 c -5.00323,-0.74681 -5.72318,-6.80041 -7.3575,-10.81229 -1.24824,-5.51939 -2.30247,-12.69374 3.16981,-16.22504 4.08828,-3.257 10.85078,-3.87544 14.41456,0.61584 2.91703,4.09468 3.1902,10.22 2.49912,15.16856 -1.43353,5.62842 -6.08105,11.95636 -12.72599,11.25293 z"
           style="fill:#000000;fill-opacity:1;stroke:#000000;stroke-width:0.43131402;stroke-opacity:1" /><path
           inkscape:connector-curvature="0"
           id="path4262"
           d="m 146.49725,982.37512 c 7.49728,-2.18714 9.9371,-11.63828 7.74831,-18.50959 -0.39137,-4.62761 -5.17127,-7.51551 -9.27625,-5.40849 -4.20824,1.23546 -6.89632,6.00195 -5.81471,10.41253 0.63271,4.5578 1.74702,9.53483 4.7217,13.0716 0.74176,0.51785 1.77674,0.67856 2.62095,0.43395 z"
           style="fill:#ffffff;fill-opacity:1;stroke:#000000;stroke-width:0.43131402;stroke-opacity:1" /><path
           sodipodi:nodetypes="ccc"
           inkscape:connector-curvature="0"
           id="path4260"
           d="m 148.64583,963.35949 c 5.70461,2.5998 3.15538,13.82318 0.29976,15.25607 -6.93873,3.76236 -6.10181,-15.13758 -0.29976,-15.25607 z"
           style="fill:#2b1100;fill-opacity:1;stroke:none;stroke-width:0.43131402;stroke-opacity:1" /><path
           inkscape:connector-curvature="0"
           id="path4258"
           d="m 145.85926,972.31023 c 4.59816,-4.00808 -4.89135,-2.59786 0,0 z"
           style="fill:#ffffff;fill-opacity:1;stroke:none;stroke-width:0.43131402;stroke-opacity:1" /><path
           inkscape:connector-curvature="0"
           id="path4256"
           d="m 81.053927,982.22661 c 0.561925,-2.45753 -0.06169,-6.15944 -0.137593,-8.63166 -1.094328,-4.78181 0.299555,-9.22834 -0.122532,-14.11748 0.161803,-2.50547 0.891665,-4.76478 1.021637,-7.25404 -3.121039,4.12073 -7.144058,8.16819 -9.543605,13.01839 -0.87811,3.60041 -2.021231,6.12013 -2.776901,9.66665 -0.162836,5.82203 6.924755,7.75301 11.558994,7.31814 z"
           style="fill:url(#linearGradient4207);fill-opacity:1;stroke:#000000;stroke-width:0.43131402;stroke-opacity:1" /><path
           inkscape:connector-curvature="0"
           id="path4254"
           d="m 108.90781,981.26062 c 1.92403,-0.0999 3.36222,-0.88527 5.10546,-2.74132 3.47829,-3.71814 4.96745,-9.54241 2.11005,-13.86037 -1.66599,-4.28446 -8.7801,-6.84792 -11.25498,-1.94187 -3.51007,5.32384 -3.07282,13.3211 1.21849,18.09334 l 1.52844,0.51677 1.29252,-0.0666 z"
           style="fill:#ffffff;fill-opacity:1;stroke:#000000;stroke-width:0.43131402;stroke-opacity:1" /><path
           inkscape:connector-curvature="0"
           id="path4252"
           d="m 108.8755,978.71903 c -6.60916,-2.24108 -2.27162,-19.00122 4.29366,-13.12054 2.50053,3.91366 2.75349,14.36784 -4.29366,13.12054 z"
           style="fill:#2b1100;fill-opacity:1;stroke:none;stroke-width:0.43131402;stroke-opacity:1" /><path
           inkscape:connector-curvature="0"
           id="path4250"
           d="m 108.47887,974.48353 c 4.49073,-4.73386 -5.62263,-2.69987 0,0 z"
           style="fill:#ffffff;fill-opacity:1;stroke:none;stroke-width:0.43131402;stroke-opacity:1" /><path
           inkscape:connector-curvature="0"
           id="path4248"
           d="m 176.60372,979.50001 c 5.4633,-0.0564 9.99716,-6.9663 6.29891,-11.66927 -2.65752,-5.03255 -5.58145,-10.36989 -8.44524,-15.06528 -4.38273,0.14275 -0.35238,6.60365 -1.17551,9.59416 -0.0721,5.26761 -1.07664,10.66993 -1.24098,16.24966 1.37488,0.72275 3.19541,0.52242 4.56282,0.89073 z"
           style="fill:url(#linearGradient4199);fill-opacity:1;stroke:#000000;stroke-width:0.43131402;stroke-opacity:1" /><path
           inkscape:connector-curvature="0"
           id="path4246"
           d="m 89.731453,956.60697 c 0.173568,-5.32519 -0.180447,-12.28655 5.590404,-15.12102 3.150277,4.44276 6.829553,8.58454 10.641823,12.51176 1.78954,-0.74636 1.51349,-0.69393 2.26558,-2.042 3.43702,-5.55328 7.52336,-10.67604 10.35257,-16.57298 3.69459,-3.67658 6.25146,1.55308 7.91672,4.53411 3.388,3.53988 5.66824,8.0974 8.45311,11.82223 1.24654,2.14342 2.68433,1.81345 3.26416,-0.6616 2.25969,-3.77661 3.65235,-7.0567 5.58798,-10.58719 1.59373,-2.35421 3.20008,-8.23864 6.75011,-6.10697 6.559,3.57532 11.6129,9.23252 16.74379,14.60182 1.62457,4.57232 3.12993,-0.021 2.91127,-2.8438 0.95345,-5.01345 -0.92851,-9.47647 -4.50774,-13.06986 -1.39257,-1.62992 -5.63419,-4.54815 -2.31103,-6.30336 1.2542,1.08333 6.39428,3.0371 6.33144,0.26069 -3.04194,-4.9365 -7.15441,-9.72873 -12.75704,-11.84722 -4.15491,-2.52854 -14.9926,-0.15831 -16.21165,-2.76621 2.66453,-2.53008 7.20354,-4.15112 9.82517,-5.49947 -6.38683,-0.74863 -13.1544,-1.07072 -18.77168,2.71324 -3.12054,3.87803 -6.69441,0.41676 -10.15969,-0.76382 -6.5254,-1.4538 -13.70751,-1.06917 -19.3361,3.10596 -2.653329,2.48141 12.14927,4.1582 3.87421,6.51493 -6.03041,2.69933 -12.782689,3.78789 -17.92203,7.95704 -3.678534,2.50206 -9.002231,2.69938 -11.516492,6.77552 2.305328,0.54308 12.505332,-2.07178 6.860956,3.89175 -2.831323,5.15423 -7.162303,10.01721 -7.691565,16.00843 4.312504,-4.6541 11.665769,-10.9461 11.934718,0.74294 -0.03555,0.94448 0.609548,3.29376 1.881006,2.74508 z"
           style="fill:url(#radialGradient4217);fill-opacity:1;stroke:#000000;stroke-width:0.43131402;stroke-opacity:1" /><path
           inkscape:connector-curvature="0"
           id="path4242"
           d="m 86.145969,923.85117 c 4.587176,-3.61061 10.154469,-5.93937 15.853441,-6.68536 -1.53265,-1.9481 -12.18342,-0.70676 -3.956101,-5.25409 1.536719,-1.6878 8.365841,-3.87014 5.046641,-5.70064 -4.789838,-3.50948 -9.025174,-8.27479 -14.230512,-11.85683 -3.045864,-2.47926 -5.577902,-5.43696 -8.580939,-7.64059 -0.572717,1.68718 -1.717362,1.45856 -3.152146,3.13608 -1.628709,1.50462 -4.094887,3.57826 -5.733969,3.78124 -2.408785,-1.53229 -0.5903,-3.93488 1.734893,-4.71833 1.722184,-0.81617 3.098347,-2.50094 3.926406,-3.56869 2.085069,-0.62836 -0.840701,-2.62968 -1.788628,-3.61902 -0.804505,-1.19274 -2.714621,-2.21899 -2.372178,-3.07321 -2.251751,-0.82342 -3.142816,-3.71537 -4.765386,-5.31631 -4.036603,-5.53463 -7.522991,-11.09371 -12.125029,-16.01425 -2.306047,0.69273 -3.96513,2.78847 -6.60286,2.17672 -2.497742,0.26259 -4.396942,-5.17935 -0.778906,-3.24898 2.145206,0.19025 6.888711,-1.44907 4.292002,-4.09223 -1.298724,-2.40367 -3.449949,-6.20431 -4.204114,-7.77215 -1.964442,-2.47961 -0.393332,-8.17203 -0.909231,-11.5122 0.365733,-8.32558 -2.299744,-1.45835 -3.420584,1.47812 -1.561137,6.63686 -1.820903,13.26144 -3.671306,19.85281 -0.403021,6.52554 -0.243852,12.32979 1.15104,18.6792 0.819796,3.20877 1.959534,6.37947 3.571534,9.26185 2.901689,0.23343 5.415028,-1.88815 7.559153,-3.88609 1.571984,-2.16599 4.304249,1.54186 2.017856,2.57414 -2.001222,2.21812 -4.954513,5.07688 -7.913833,4.35006 3.365297,6.99412 6.403429,14.19299 11.861699,19.90966 3.409578,3.99881 7.238373,7.53105 10.661436,11.05544 2.123897,0.87931 3.677617,4.50276 6.073495,2.53301 2.127989,-1.58334 13.3692,-8.10752 7.831136,-2.27185 -2.387397,1.82721 -4.572762,3.34597 -6.893467,4.68476 1.774778,1.09113 4.136502,1.85865 6.389633,2.56233 1.198958,-0.66097 2.022411,0.0783 3.128824,0.1954 z"
           style="fill:url(#linearGradient4169);fill-opacity:1;stroke:#000000;stroke-width:0.43131402;stroke-opacity:1" /><path
           inkscape:connector-curvature="0"
           id="path4240"
           d="m 170.16763,922.04792 c 4.16178,-1.02835 7.67158,-4.26231 11.00661,-7.07162 4.41106,-4.53441 8.35929,-9.01617 11.86917,-14.50443 1.05207,-1.02203 2.83507,-3.00253 1.80989,-4.10513 -3.24255,0.32116 -6.40267,-2.60384 -6.78757,-5.6632 2.76236,-1.78156 5.37447,5.65599 9.2717,2.49561 2.00989,-4.28631 3.27652,-8.97751 4.8138,-13.1922 1.57418,-5.20838 2.43067,-10.50309 3.8092,-15.47958 0.45775,-2.46254 1.10234,-3.96741 1.10565,-6.94924 0.74471,-3.36167 0.14202,-5.69807 -3.93393,-4.56689 -5.85517,-1.3395 -0.73417,-4.04059 2.95664,-2.87549 1.75194,-1.82696 -0.90112,-5.48718 -1.17947,-8.04915 -0.90657,-2.14667 -1.04157,-4.40977 -1.93894,-6.381 -0.66906,-3.06039 -1.99643,-6.05579 -3.84838,-8.53548 -1.81396,5.14469 -3.99616,10.13578 -6.10508,15.18764 -1.32168,4.53232 -3.81415,8.67942 -5.53444,12.68826 -2.85204,5.36797 -6.04907,9.77903 -9.20999,14.90104 5.11484,0.0256 10.90093,-0.37726 14.67172,-4.20549 2.1993,-0.23438 2.71951,2.16469 1.04341,3.09553 -2.22942,2.40289 -5.129,2.96104 -8.07984,3.91843 -3.68442,1.51983 -8.72364,-2.48989 -10.24859,1.02972 -3.12732,4.63718 -6.28503,8.77715 -10.23307,12.91915 -4.60723,4.39994 -9.8012,8.68205 -13.47735,13.68076 2.9809,2.50887 8.47607,2.87451 12.04683,0.91128 2.94045,4.77113 -12.66012,2.01493 -14.97059,1.80235 4.41884,0.88877 15.86554,9.28826 4.34515,7.36554 -7.84996,1.32913 2.89574,1.19752 5.46354,2.64387 4.4323,2.02212 8.34712,5.55519 11.33393,8.93972 z"
           style="fill:url(#linearGradient4183);fill-opacity:1;stroke:#000000;stroke-width:0.43131402;stroke-opacity:1" /><path
           inkscape:connector-curvature="0"
           id="path4238"
           d="m 186.4269,913.81595 c -0.79257,-0.24807 -0.13619,0.26364 0,0 z"
           style="fill:#ff8080;fill-opacity:1;stroke:#000000;stroke-width:0.43131402;stroke-opacity:1" /><path
           inkscape:connector-curvature="0"
           id="path4236"
           d="m 207.6889,869.52893 c -0.47547,-0.49648 -0.62037,0.19284 0,0 z"
           style="fill:#ff8080;fill-opacity:1;stroke:#000000;stroke-width:0.43131402;stroke-opacity:1" /><path
           inkscape:connector-curvature="0"
           id="path4234"
           d="m 51.535953,858.9088 c -0.109095,-0.29681 -0.559784,0.29265 0,0 z"
           style="fill:#ff8080;fill-opacity:1;stroke:#000000;stroke-width:0.43131402;stroke-opacity:1" /><path
           inkscape:connector-curvature="0"
           id="path3429"
           d="m 55.041894,857.36439 c -1.179898,-0.26619 -0.275201,0.27547 0,0 z"
           style="fill:#ff8080;fill-opacity:1;stroke:#000000;stroke-width:0.43131402;stroke-opacity:1" /></g><path
         style="fill:#000000;stroke:#000000;stroke-width:0.30853173;stroke-opacity:1"
         d=""
         id="path3427"
         inkscape:connector-curvature="0" /></g></g></svg>