<?xml version="1.0" encoding="UTF-8" standalone="no"?>
<svg
   xmlns:dc="http://purl.org/dc/elements/1.1/"
   xmlns:cc="http://creativecommons.org/ns#"
   xmlns:rdf="http://www.w3.org/1999/02/22-rdf-syntax-ns#"
   xmlns:svg="http://www.w3.org/2000/svg"
   xmlns="http://www.w3.org/2000/svg"
   xmlns:xlink="http://www.w3.org/1999/xlink"
   xmlns:sodipodi="http://sodipodi.sourceforge.net/DTD/sodipodi-0.dtd"
   xmlns:inkscape="http://www.inkscape.org/namespaces/inkscape"
   version="1.1"
   x="0px"
   y="0px"
   width="16"
   height="25"
   viewBox="0 0 16 24.999999"
   xml:space="preserve"
   id="svg2"
   inkscape:version="0.91 r13725"
   sodipodi:docname="sb_message.svg"
   inkscape:export-filename="/data/yaxim/res/drawable-hdpi/sb_message.png"
   inkscape:export-xdpi="8.4444447"
   inkscape:export-ydpi="8.4444447"><metadata
     id="metadata11"><rdf:RDF><cc:Work
         rdf:about=""><dc:format>image/svg+xml</dc:format><dc:type
           rdf:resource="http://purl.org/dc/dcmitype/StillImage" /><dc:title></dc:title></cc:Work></rdf:RDF></metadata><defs
     id="defs9"><linearGradient
       id="linearGradient3836"><stop
         id="stop3838"
         offset="0"
         style="stop-color:#828282;stop-opacity:1;" /><stop
         id="stop3840"
         offset="1"
         style="stop-color:#919191;stop-opacity:1;" /></linearGradient><filter
       id="filter5171"
       inkscape:label="Specular light"
       inkscape:menu="ABCs"
       inkscape:menu-tooltip="Basic specular bevel to use for building textures"
       style="color-interpolation-filters:sRGB"><feGaussianBlur
         id="feGaussianBlur5173"
         result="result0"
         in="SourceAlpha"
         stdDeviation="6" /><feSpecularLighting
         id="feSpecularLighting5175"
         specularExponent="25"
         specularConstant="1"
         surfaceScale="10"
         lighting-color="#ffffff"
         result="result1"
         in="result0"><feDistantLight
           id="feDistantLight5177"
           azimuth="235"
           elevation="45" /></feSpecularLighting><feComposite
         k4="0"
         k1="0"
         id="feComposite5179"
         in2="result1"
         k3="1"
         k2="1"
         operator="arithmetic"
         result="result4"
         in="SourceGraphic" /><feComposite
         id="feComposite5181"
         in2="SourceAlpha"
         operator="in"
         result="result2"
         in="result4" /></filter><filter
       id="filter5439"
       inkscape:label="Drop shadow"
       width="1.5"
       height="1.5"
       x="-0.25"
       y="-0.25"
       style="color-interpolation-filters:sRGB"><feGaussianBlur
         id="feGaussianBlur5441"
         in="SourceAlpha"
         stdDeviation="5"
         result="blur" /><feColorMatrix
         id="feColorMatrix5443"
         result="bluralpha"
         type="matrix"
         values="1 0 0 0 0 0 1 0 0 0 0 0 1 0 0 0 0 0 0.6 0 " /><feOffset
         id="feOffset5445"
         in="bluralpha"
         dx="0"
         dy="4"
         result="offsetBlur" /><feMerge
         id="feMerge5447"><feMergeNode
           id="feMergeNode5449"
           in="offsetBlur" /><feMergeNode
           id="feMergeNode5451"
           in="SourceGraphic" /></feMerge></filter><clipPath
       clipPathUnits="userSpaceOnUse"
       id="clipPath5372"><circle
         style="fill:none;stroke:#000000;stroke-width:1;stroke-linecap:square;stroke-linejoin:miter;stroke-miterlimit:4;stroke-dasharray:none;stroke-opacity:1"
         id="path5374"
         transform="matrix(0.87727326,0,0,0.89258862,-5.3058282,167.15749)"
         cx="280.07578"
         cy="779.51416"
         r="63.24292" /></clipPath><linearGradient
       id="linearGradient5467"><stop
         style="stop-color:#1a1a1a;stop-opacity:1;"
         offset="0"
         id="stop5469" /><stop
         style="stop-color:#000000;stop-opacity:1;"
         offset="1"
         id="stop5471" /></linearGradient><radialGradient
       inkscape:collect="always"
       xlink:href="#linearGradient5467"
       id="radialGradient4243"
       gradientUnits="userSpaceOnUse"
       gradientTransform="matrix(1.5669948,-0.00946795,0.00596864,0.98784039,-140.25196,12.878452)"
       cx="238.38947"
       cy="879.16357"
       fx="238.38947"
       fy="879.16357"
       r="64.877129" /><linearGradient
       id="linearGradient3892"><stop
         style="stop-color:#1a1a1a;stop-opacity:1;"
         offset="0"
         id="stop3894" /><stop
         style="stop-color:#000000;stop-opacity:1;"
         offset="1"
         id="stop3896" /></linearGradient><mask
       maskUnits="userSpaceOnUse"
       id="mask4163"><g
         id="g4165"><path
           style="fill:url(#linearGradient4173);fill-opacity:1;stroke:none"
           d="m 238.08477,888.17661 0,39.56144 c 5.4682,-8.60936 11.21021,-17.52954 13.94028,-27.69301 -2.18244,-3.64532 -7.10302,-7.91229 -13.94028,-11.86843 z"
           id="path4167"
           inkscape:connector-curvature="0"
           sodipodi:nodetypes="cccc" /><path
           style="fill:none;stroke:url(#linearGradient4175);stroke-width:1;stroke-linecap:butt;stroke-linejoin:round;stroke-miterlimit:4;stroke-dasharray:none;stroke-opacity:1"
           d="m 238.08477,885.53484 0,46.60614"
           id="path4169"
           inkscape:connector-curvature="0"
           sodipodi:nodetypes="cc"
           clip-path="url(#clipPath4051)" /><path
           sodipodi:nodetypes="cccc"
           inkscape:connector-curvature="0"
           id="path4171"
           d="m 238.08477,888.17661 0,39.56144 c -5.4682,-8.60936 -11.21021,-17.52954 -13.94028,-27.69301 2.18244,-3.64532 7.10302,-7.91229 13.94028,-11.86843 z"
           style="fill:url(#linearGradient4177);fill-opacity:1;stroke:none" /></g></mask><linearGradient
       inkscape:collect="always"
       xlink:href="#linearGradient4114"
       id="linearGradient4173"
       gradientUnits="userSpaceOnUse"
       x1="243.36093"
       y1="900.04309"
       x2="247.62825"
       y2="893.63629" /><linearGradient
       id="linearGradient4114"><stop
         style="stop-color:#000000;stop-opacity:1;"
         offset="0"
         id="stop4116" /><stop
         id="stop4199"
         offset="0.5"
         style="stop-color:#b67800;stop-opacity:1;" /><stop
         style="stop-color:#fcaf1c;stop-opacity:1;"
         offset="1"
         id="stop4118" /></linearGradient><linearGradient
       inkscape:collect="always"
       xlink:href="#linearGradient4059"
       id="linearGradient4175"
       gradientUnits="userSpaceOnUse"
       x1="237.83601"
       y1="888.36017"
       x2="237.95665"
       y2="927.42889" /><linearGradient
       id="linearGradient4059"><stop
         style="stop-color:#feb82c;stop-opacity:1;"
         offset="0"
         id="stop4061" /><stop
         style="stop-color:#f3b417;stop-opacity:1;"
         offset="1"
         id="stop4063" /></linearGradient><clipPath
       clipPathUnits="userSpaceOnUse"
       id="clipPath4051"><g
         id="g4053"
         style="fill:none;stroke:#ffffff"><path
           style="fill:none;stroke:#ffffff;stroke-width:0.53272158;stroke-linecap:butt;stroke-linejoin:round;stroke-miterlimit:4;stroke-dasharray:none;stroke-opacity:1"
           d="m 238.08477,888.17661 0,39.56144 c 5.4682,-8.60936 11.21021,-17.52954 13.94028,-27.69301 -2.18244,-3.64532 -7.10302,-7.91229 -13.94028,-11.86843 z"
           id="path4055"
           inkscape:connector-curvature="0"
           sodipodi:nodetypes="cccc" /><path
           sodipodi:nodetypes="cccc"
           inkscape:connector-curvature="0"
           id="path4057"
           d="m 238.08477,888.17661 0,39.56144 c -5.4682,-8.60936 -11.21021,-17.52954 -13.94028,-27.69301 2.18244,-3.64532 7.10302,-7.91229 13.94028,-11.86843 z"
           style="fill:none;stroke:#ffffff;stroke-width:0.53272158;stroke-linecap:butt;stroke-linejoin:round;stroke-miterlimit:4;stroke-dasharray:none;stroke-opacity:1" /></g></clipPath><linearGradient
       inkscape:collect="always"
       xlink:href="#linearGradient4122"
       id="linearGradient4177"
       gradientUnits="userSpaceOnUse"
       x1="231.30499"
       y1="899.91748"
       x2="228.28616"
       y2="892.88257" /><linearGradient
       id="linearGradient4122"><stop
         style="stop-color:#f3b417;stop-opacity:1;"
         offset="0"
         id="stop4124" /><stop
         style="stop-color:#fcaf1c;stop-opacity:1;"
         offset="1"
         id="stop4126" /></linearGradient><linearGradient
       inkscape:collect="always"
       xlink:href="#linearGradient4059"
       id="linearGradient4239"
       gradientUnits="userSpaceOnUse"
       x1="237.83601"
       y1="888.36017"
       x2="237.95665"
       y2="927.42889" /><linearGradient
       id="linearGradient3921"><stop
         style="stop-color:#feb82c;stop-opacity:1;"
         offset="0"
         id="stop3923" /><stop
         style="stop-color:#f3b417;stop-opacity:1;"
         offset="1"
         id="stop3925" /></linearGradient><clipPath
       clipPathUnits="userSpaceOnUse"
       id="clipPath3927"><g
         id="g3929"
         style="fill:none;stroke:#ffffff"><path
           style="fill:none;stroke:#ffffff;stroke-width:0.53272158;stroke-linecap:butt;stroke-linejoin:round;stroke-miterlimit:4;stroke-dasharray:none;stroke-opacity:1"
           d="m 238.08477,888.17661 0,39.56144 c 5.4682,-8.60936 11.21021,-17.52954 13.94028,-27.69301 -2.18244,-3.64532 -7.10302,-7.91229 -13.94028,-11.86843 z"
           id="path3931"
           inkscape:connector-curvature="0"
           sodipodi:nodetypes="cccc" /><path
           sodipodi:nodetypes="cccc"
           inkscape:connector-curvature="0"
           id="path3933"
           d="m 238.08477,888.17661 0,39.56144 c -5.4682,-8.60936 -11.21021,-17.52954 -13.94028,-27.69301 2.18244,-3.64532 7.10302,-7.91229 13.94028,-11.86843 z"
           style="fill:none;stroke:#ffffff;stroke-width:0.53272158;stroke-linecap:butt;stroke-linejoin:round;stroke-miterlimit:4;stroke-dasharray:none;stroke-opacity:1" /></g></clipPath><linearGradient
       id="linearGradient4201"><stop
         id="stop4203"
         offset="0"
         style="stop-color:#986400;stop-opacity:1;" /><stop
         style="stop-color:#b67800;stop-opacity:1;"
         offset="0.74023157"
         id="stop4205" /><stop
         id="stop4207"
         offset="1"
         style="stop-color:#fcaf1c;stop-opacity:1;" /></linearGradient><linearGradient
       id="linearGradient3941"><stop
         style="stop-color:#f3b417;stop-opacity:1;"
         offset="0"
         id="stop3943" /><stop
         style="stop-color:#fcaf1c;stop-opacity:1;"
         offset="1"
         id="stop3945" /></linearGradient><linearGradient
       id="linearGradient4293"><stop
         style="stop-color:#e4310d;stop-opacity:1;"
         offset="0"
         id="stop4295" /><stop
         style="stop-color:#c0290b;stop-opacity:0;"
         offset="1"
         id="stop4297" /></linearGradient><linearGradient
       id="linearGradient3952"><stop
         style="stop-color:#e4310d;stop-opacity:1;"
         offset="0"
         id="stop3954" /><stop
         style="stop-color:#c0290b;stop-opacity:0;"
         offset="1"
         id="stop3956" /></linearGradient><radialGradient
       inkscape:collect="always"
       xlink:href="#linearGradient4293"
       id="radialGradient4127"
       cx="254.4561"
       cy="157.43228"
       fx="254.4561"
       fy="157.43228"
       r="13.967531"
       gradientTransform="matrix(1.4766783,0.05396358,-0.03075353,0.84155025,-116.4521,13.097993)"
       gradientUnits="userSpaceOnUse" /><linearGradient
       id="linearGradient3959"><stop
         style="stop-color:#e4310d;stop-opacity:1;"
         offset="0"
         id="stop3961" /><stop
         style="stop-color:#c0290b;stop-opacity:0;"
         offset="1"
         id="stop3963" /></linearGradient><linearGradient
       inkscape:collect="always"
       xlink:href="#linearGradient3836"
       id="linearGradient7733"
       x1="197.62054"
       y1="122.14509"
       x2="273.68304"
       y2="122.14509"
       gradientUnits="userSpaceOnUse" /><linearGradient
       inkscape:collect="always"
       xlink:href="#linearGradient3836"
       id="linearGradient4268"
       gradientUnits="userSpaceOnUse"
       x1="197.62054"
       y1="122.14509"
       x2="273.68304"
       y2="122.14509" /><linearGradient
       inkscape:collect="always"
       xlink:href="#linearGradient3836"
       id="linearGradient4281"
       gradientUnits="userSpaceOnUse"
       x1="197.62054"
       y1="122.14509"
       x2="273.68304"
       y2="122.14509"
       gradientTransform="matrix(0.05544898,0,0,0.05405847,185.47547,176.31809)" /></defs><sodipodi:namedview
     pagecolor="#3d3d3d"
     bordercolor="#666666"
     borderopacity="1"
     objecttolerance="10"
     gridtolerance="10"
     guidetolerance="10"
     inkscape:pageopacity="1"
     inkscape:pageshadow="2"
     inkscape:window-width="1920"
     inkscape:window-height="1029"
     id="namedview7"
     showgrid="true"
     inkscape:zoom="45.254834"
     inkscape:cx="10.849732"
     inkscape:cy="10.896417"
     inkscape:window-x="0"
     inkscape:window-y="0"
     inkscape:window-maximized="0"
     inkscape:current-layer="g4263"
     showguides="true"
     inkscape:guide-bbox="true"
     fit-margin-top="0"
     fit-margin-left="-6.3837824e-16"
     fit-margin-right="0"
     fit-margin-bottom="85"><sodipodi:guide
       orientation="1,0"
       position="-3.4375,19.999999"
       id="guide2983" /><sodipodi:guide
       orientation="0,1"
       position="21.105036,332.11218"
       id="guide2985" /><sodipodi:guide
       orientation="1,0"
       position="307.88904,465.75052"
       id="guide2987" /><sodipodi:guide
       orientation="0,1"
       position="-112.11096,45.75052"
       id="guide2989" /><inkscape:grid
       type="xygrid"
       id="grid3414" /></sodipodi:namedview><g
     inkscape:export-filename="/home/dd/src/android/yaxim/res/drawable-hdpi/available.png"
     inkscape:export-ydpi="38.889999"
     inkscape:export-xdpi="38.889999"
     id="g4234"
     transform="matrix(3.2411581,0,0,3.2411576,-635.51941,-578.24599)"
     mask="url(#mask7707)"
     style="fill:url(#linearGradient7733);fill-opacity:1"><g
       id="g4263"
       style="fill:url(#linearGradient4268);fill-opacity:1"><path
         style="opacity:1;fill:url(#linearGradient4281);fill-opacity:1;stroke:none;stroke-width:0.51599133;stroke-linecap:round;stroke-linejoin:round;stroke-miterlimit:4;stroke-dasharray:none;stroke-opacity:1"
         d="m 196.98882,180.8755 c -0.2393,0 -0.60241,0.39253 -0.60241,0.61759 l 0,1.54717 c 0,0.22506 0.36993,0.61147 0.60923,0.61147 l 0.46782,0 -0.42746,1.23468 1.51012,-1.23468 1.52323,0 c 0.23929,0 0.6365,-0.38641 0.6365,-0.61147 l 0,-1.56081 c 0,-0.22506 -0.36994,-0.60395 -0.60923,-0.60395 z m 0.66764,0.3593 c 0.004,0.049 0.003,0.10563 0.0105,0.14872 0.004,0.0317 0.0142,0.0549 0.029,0.0825 0.0205,0.0277 0.0459,0.0659 0.0716,0.0973 0.0433,0.0443 0.0943,0.0921 0.13328,0.14144 0.0193,0.0199 0.0381,0.0464 0.0632,0.0652 0.0181,0.0199 0.041,0.0334 0.0597,0.048 0.036,0.0312 0.0786,0.0546 0.11532,0.083 0.0194,0.0154 0.0395,0.0266 0.0539,0.0374 0.0345,0.0257 0.0575,0.0386 0.11682,0.0795 0.0229,0.013 0.0479,0.0313 0.0585,0.0218 0.0546,-0.0174 0.12557,-0.0131 0.18548,0.004 0.0188,0.007 0.0395,0.0264 0.0567,0.0208 0.0455,-0.0341 0.11283,-0.0481 0.17379,-0.0468 0.0369,0.004 0.0484,-0.0296 0.0747,-0.0437 0.0606,-0.0628 0.13788,-0.11293 0.20656,-0.16838 0.0165,-0.0197 0.0533,-0.0518 0.0731,-0.0761 0.0219,-0.0221 0.0468,-0.0625 0.0668,-0.0798 0.043,-0.0526 0.0873,-0.10836 0.11769,-0.16274 0.0306,-0.0639 0.0715,-0.12327 0.0961,-0.18434 0.007,-0.0174 0.0215,-0.0342 0.025,-0.0529 0.0205,-0.0207 0.0477,0.0127 0.0594,0.0264 0.0416,0.0603 0.0554,0.12594 0.0811,0.18945 0.0247,0.0783 0.008,0.16405 -0.0205,0.24195 -0.0122,0.0629 -0.0429,0.12992 -0.0666,0.18718 -0.004,0.0175 -0.0248,0.0483 -0.0384,0.0641 -0.0335,0.0547 -0.0831,0.0997 -0.13027,0.14583 -0.0472,0.0409 -0.0988,0.0809 -0.15852,0.10665 -0.0165,2.7e-4 -0.0508,0.0181 -0.0206,0.0335 0.013,0.0144 0.037,0.048 -0.002,0.0447 -0.0389,-0.005 -0.0819,-0.002 -0.0318,0.0288 0.0867,0.16708 0.024,0.49496 -0.0797,0.66113 -0.0355,0.0599 -0.0791,0.12103 -0.12494,0.1762 -0.0268,0.0254 -0.0453,0.0603 -0.0744,0.0842 -0.0852,0.0712 -0.13803,0.12679 -0.24894,0.12633 -0.0857,0.002 -0.15898,-0.0442 -0.22049,-0.0901 -0.0573,-0.0569 -0.10928,-0.10133 -0.15,-0.16239 -0.0509,-0.0833 -0.12029,-0.15145 -0.14245,-0.24435 -0.0631,-0.14012 -0.10458,-0.46215 -0.0395,-0.54365 -0.0265,-0.01 -0.063,0.0285 -0.0784,0.008 -6.5e-4,-0.0199 0.0182,-0.0429 0.0313,-0.061 0.0211,-0.0286 0.0928,-0.0334 0.0127,-0.049 -0.0663,-0.0195 -0.11814,-0.0578 -0.17041,-0.0955 -0.0278,-0.0334 -0.0743,-0.0567 -0.10305,-0.091 -0.0348,-0.034 -0.0733,-0.0736 -0.09,-0.11382 -0.0254,-0.0394 -0.0493,-0.0787 -0.0752,-0.1172 -0.0256,-0.0402 -0.0385,-0.0792 -0.0466,-0.12285 -7.5e-4,-0.0258 -0.006,-0.0637 -0.01,-0.0804 0.002,-0.0432 0.008,-0.0888 0.0222,-0.13306 0.006,-0.029 0.0159,-0.0606 0.0164,-0.0845 0.004,-0.0604 0.052,-0.11544 0.11166,-0.15031 z m 1.19049,1.28919 c -0.032,0 -0.0647,0.01 -0.0894,0.0252 -0.0661,0.0343 -0.0534,0.10398 -0.0383,0.15761 0.0198,0.039 0.0285,0.0978 0.0889,0.10506 0.0802,0.007 0.13646,-0.0547 0.15379,-0.10933 0.009,-0.0481 0.005,-0.1076 -0.0302,-0.14737 -0.0216,-0.0218 -0.0527,-0.0312 -0.0847,-0.0312 z m -0.47854,-0.005 c -0.0651,0.007 -0.0874,0.0414 -0.11489,0.10929 -0.009,0.0504 0.013,0.12745 0.0765,0.16392 0.0239,0.0103 0.062,0.0132 0.0814,0.006 0.0588,-0.0168 0.0853,-0.0639 0.10305,-0.10979 0.0162,-0.0292 -0.0158,-0.0907 -0.0258,-0.1116 -0.04,-0.0446 -0.064,-0.0577 -0.12038,-0.0576 z"
         id="path4217"
         inkscape:connector-curvature="0"
         sodipodi:nodetypes="sssscccssssssccccccccccccccccccccccccccccccccccccccccccccccccccscccccscccccccccc" /></g></g></svg>