<?xml version="1.0" encoding="UTF-8" standalone="no"?>
<!-- Created with Inkscape (http://www.inkscape.org/) -->

<svg
   xmlns:dc="http://purl.org/dc/elements/1.1/"
   xmlns:cc="http://creativecommons.org/ns#"
   xmlns:rdf="http://www.w3.org/1999/02/22-rdf-syntax-ns#"
   xmlns:svg="http://www.w3.org/2000/svg"
   xmlns="http://www.w3.org/2000/svg"
   xmlns:sodipodi="http://sodipodi.sourceforge.net/DTD/sodipodi-0.dtd"
   xmlns:inkscape="http://www.inkscape.org/namespaces/inkscape"
   width="240"
   height="240"
   viewBox="0 0 240.00001 240.00001"
   id="svg3336"
   version="1.1"
   inkscape:version="0.91 r13725"
   sodipodi:docname="sb_message-v11.svg">
  <defs
     id="defs3338" />
  <sodipodi:namedview
     id="base"
     pagecolor="#000000"
     bordercolor="#666666"
     borderopacity="1.0"
     inkscape:pageopacity="0"
     inkscape:pageshadow="2"
     inkscape:zoom="3.5291667"
     inkscape:cx="88.672371"
     inkscape:cy="133.99259"
     inkscape:document-units="px"
     inkscape:current-layer="layer1"
     showgrid="true"
     units="px"
     inkscape:window-width="1920"
     inkscape:window-height="1029"
     inkscape:window-x="0"
     inkscape:window-y="0"
     inkscape:window-maximized="1"
     showguides="false">
    <inkscape:grid
       type="xygrid"
       id="grid3344"
       spacingx="10"
       spacingy="10"
       empspacing="4"
       visible="true"
       originx="20.000001"
       originy="20.000001" />
  </sodipodi:namedview>
  <metadata
     id="metadata3341">
    <rdf:RDF>
      <cc:Work
         rdf:about="">
        <dc:format>image/svg+xml</dc:format>
        <dc:type
           rdf:resource="http://purl.org/dc/dcmitype/StillImage" />
        <dc:title />
      </cc:Work>
    </rdf:RDF>
  </metadata>
  <g
     inkscape:label="Layer 1"
     inkscape:groupmode="layer"
     id="layer1"
     transform="translate(0,-812.36219)">
    <path
       style="opacity:1;fill:#f9f9f9;fill-opacity:1;stroke:none;stroke-width:0.51599133;stroke-linecap:round;stroke-linejoin:round;stroke-miterlimit:4;stroke-dasharray:none;stroke-opacity:1"
       d="M 39.949219 30 C 28.897826 30 20 38.582871 20 49.244141 L 20 145.46484 C 20 156.12612 28.897826 164.70898 39.949219 164.70898 L 69.742188 164.70898 L 50 220 L 119.74219 164.70898 L 199.53516 164.70898 C 210.58655 164.70898 219.48437 156.12612 219.48438 145.46484 L 219.48438 49.244141 C 219.48438 38.582871 210.58655 30 199.53516 30 L 39.949219 30 z M 72.904297 40 C 73.145868 42.64434 73.039967 45.698658 73.455078 48.023438 C 73.636555 49.738087 74.202785 50.988883 74.984375 52.476562 C 76.059013 53.970832 77.406456 56.036779 78.755859 57.724609 C 81.035729 60.117329 83.720198 62.695972 85.767578 65.357422 C 86.783896 66.428442 87.775097 67.860246 89.095703 68.878906 C 90.045881 69.955266 91.259152 70.679477 92.240234 71.466797 C 94.137334 73.153207 96.373688 74.410219 98.304688 75.949219 C 99.326217 76.783919 100.38584 77.385917 101.14062 77.966797 C 102.95764 79.357597 104.16637 80.04756 107.28516 82.255859 C 108.48895 82.957909 109.80801 83.946621 110.36328 83.431641 C 113.23476 82.495251 116.96987 82.728561 120.12109 83.650391 C 121.11091 84.012571 122.20244 85.075644 123.10156 84.777344 C 125.49502 82.935174 129.03699 82.184894 132.24414 82.246094 C 134.18933 82.419674 134.78503 80.644709 136.17578 79.886719 C 139.36685 76.498679 143.42949 73.793001 147.04297 70.800781 C 147.90875 69.739921 149.84398 68.004679 150.89062 66.693359 C 152.04273 65.501199 153.3575 63.318962 154.40625 62.388672 C 156.66531 59.549602 158.99893 56.541672 160.59766 53.607422 C 162.20961 50.165112 164.35879 46.956186 165.65234 43.660156 C 166.02743 42.722496 166.78183 41.813581 166.96875 40.806641 C 168.04453 39.689511 169.48493 41.495899 170.09375 42.230469 C 172.28591 45.487099 173.00892 49.025505 174.36523 52.453125 C 175.66365 56.679305 174.80167 61.304503 173.28906 65.507812 C 172.64845 68.897702 171.02856 72.520155 169.7832 75.609375 C 169.61305 76.556235 168.47724 78.215663 167.75977 79.064453 C 165.9972 82.011773 163.38804 84.442294 160.90625 86.933594 C 158.41881 89.137204 155.71327 91.296943 152.56836 92.689453 C 151.69856 92.706093 149.89472 93.664831 151.48242 94.494141 C 152.1705 95.269001 153.43149 97.08883 151.39258 96.90625 C 149.34229 96.62112 147.07436 96.827584 149.71484 98.458984 C 154.27407 107.47464 150.97976 125.16689 145.51758 134.13281 C 143.64666 137.36365 141.3573 140.66398 138.94531 143.64062 C 137.53613 145.01052 136.55725 146.89384 135.02539 148.18164 C 130.54208 152.02063 127.76399 155.02285 121.92969 154.99805 C 117.42121 155.09102 113.56566 152.61381 110.33008 150.13672 C 107.31884 147.06952 104.58157 144.66764 102.43945 141.37305 C 99.763443 136.87626 96.112423 133.20224 94.947266 128.18945 C 91.630157 120.62854 89.444878 103.25145 92.863281 98.853516 C 91.466974 98.347126 89.550329 100.39106 88.738281 99.285156 C 88.70391 98.208766 89.694148 96.971201 90.386719 95.994141 C 91.492748 94.448411 95.274219 94.189359 91.054688 93.349609 C 87.566088 92.301059 84.839812 90.227616 82.089844 88.197266 C 80.625007 86.392186 78.177219 85.137083 76.669922 83.283203 C 74.835562 81.444623 72.812395 79.311455 71.933594 77.140625 C 70.600796 75.014765 69.336203 72.894036 67.974609 70.816406 C 66.625896 68.649666 65.950781 66.54041 65.519531 64.1875 C 65.479949 62.79571 65.179986 60.754702 65 59.851562 C 65.093022 57.523163 65.424443 55.058355 66.167969 52.671875 C 66.483563 51.105785 67.010367 49.399655 67.029297 48.109375 C 67.221453 44.852825 69.764498 41.88138 72.904297 40 z "
       transform="translate(0,812.36219)"
       id="rect3346" />
    <path
       style="fill:#ffffff;fill-opacity:1;stroke:none;stroke-opacity:1"
       d="m 135.53182,921.92527 c 1.68321,-1.8e-4 3.32496,0.50741 4.458,1.6846 1.85482,2.14646 2.02806,5.35721 1.58864,7.9513 -0.91153,2.95045 -3.86598,6.2682 -8.09122,5.89947 -3.18137,-0.3915 -3.63963,-3.56508 -4.67883,-5.66811 -0.7937,-2.89333 -1.46366,-6.65388 2.01596,-8.50499 1.29977,-0.8537 3.02424,-1.3621 4.70745,-1.36227 z"
       id="path3340" />
    <path
       style="fill:#ffffff;fill-opacity:1;stroke:none;stroke-opacity:1"
       d="m 110.13259,922.99106 c 2.96311,-0.0147 4.9033,1.14322 7.00746,3.55449 0.5196,1.13122 1.75499,2.64316 0.90473,4.22162 -0.93257,2.47556 -2.32641,5.01476 -5.4212,5.92416 -1.01924,0.40488 -3.02704,0.24836 -4.28136,-0.30772 -3.34505,-1.96819 -4.52811,-6.12832 -4.02932,-8.84487 1.45167,-3.66412 2.39679,-4.18695 5.81969,-4.54768 z"
       id="path3338" />
  </g>
</svg>
