<?xml version="1.0" encoding="UTF-8" standalone="no"?>
<svg
   xmlns:dc="http://purl.org/dc/elements/1.1/"
   xmlns:cc="http://creativecommons.org/ns#"
   xmlns:rdf="http://www.w3.org/1999/02/22-rdf-syntax-ns#"
   xmlns:svg="http://www.w3.org/2000/svg"
   xmlns="http://www.w3.org/2000/svg"
   xmlns:xlink="http://www.w3.org/1999/xlink"
   xmlns:sodipodi="http://sodipodi.sourceforge.net/DTD/sodipodi-0.dtd"
   xmlns:inkscape="http://www.inkscape.org/namespaces/inkscape"
   version="1.1"
   x="0px"
   y="0px"
   width="256.53058"
   height="405"
   viewBox="0 0 256.53058 404.99999"
   xml:space="preserve"
   id="svg2"
   inkscape:version="0.91 r13725"
   sodipodi:docname="sb_message.svg"
   inkscape:export-filename="/data/yaxim/res/drawable-hdpi/sb_message.png"
   inkscape:export-xdpi="8.4444447"
   inkscape:export-ydpi="8.4444447"><metadata
     id="metadata11"><rdf:RDF><cc:Work
         rdf:about=""><dc:format>image/svg+xml</dc:format><dc:type
           rdf:resource="http://purl.org/dc/dcmitype/StillImage" /><dc:title /></cc:Work></rdf:RDF></metadata><defs
     id="defs9"><linearGradient
       id="linearGradient3836"><stop
         id="stop3838"
         offset="0"
         style="stop-color:#828282;stop-opacity:1;" /><stop
         id="stop3840"
         offset="1"
         style="stop-color:#919191;stop-opacity:1;" /></linearGradient><filter
       id="filter5171"
       inkscape:label="Specular light"
       inkscape:menu="ABCs"
       inkscape:menu-tooltip="Basic specular bevel to use for building textures"
       color-interpolation-filters="sRGB"><feGaussianBlur
         id="feGaussianBlur5173"
         result="result0"
         in="SourceAlpha"
         stdDeviation="6" /><feSpecularLighting
         id="feSpecularLighting5175"
         specularExponent="25"
         specularConstant="1"
         surfaceScale="10"
         lighting-color="#ffffff"
         result="result1"
         in="result0"><feDistantLight
           id="feDistantLight5177"
           azimuth="235"
           elevation="45" /></feSpecularLighting><feComposite
         k4="0"
         k1="0"
         id="feComposite5179"
         in2="result1"
         k3="1"
         k2="1"
         operator="arithmetic"
         result="result4"
         in="SourceGraphic" /><feComposite
         id="feComposite5181"
         in2="SourceAlpha"
         operator="in"
         result="result2"
         in="result4" /></filter><filter
       color-interpolation-filters="sRGB"
       id="filter5439"
       inkscape:label="Drop shadow"
       width="1.5"
       height="1.5"
       x="-0.25"
       y="-0.25"><feGaussianBlur
         id="feGaussianBlur5441"
         in="SourceAlpha"
         stdDeviation="5"
         result="blur" /><feColorMatrix
         id="feColorMatrix5443"
         result="bluralpha"
         type="matrix"
         values="1 0 0 0 0 0 1 0 0 0 0 0 1 0 0 0 0 0 0.6 0 " /><feOffset
         id="feOffset5445"
         in="bluralpha"
         dx="0"
         dy="4"
         result="offsetBlur" /><feMerge
         id="feMerge5447"><feMergeNode
           id="feMergeNode5449"
           in="offsetBlur" /><feMergeNode
           id="feMergeNode5451"
           in="SourceGraphic" /></feMerge></filter><clipPath
       clipPathUnits="userSpaceOnUse"
       id="clipPath5372"><path
         sodipodi:type="arc"
         style="fill:none;stroke:#000000;stroke-width:1;stroke-linecap:square;stroke-linejoin:miter;stroke-miterlimit:4;stroke-opacity:1;stroke-dasharray:none"
         id="path5374"
         sodipodi:cx="280.07578"
         sodipodi:cy="779.51416"
         sodipodi:rx="63.24292"
         sodipodi:ry="63.24292"
         d="m 343.3187,779.51416 a 63.24292,63.24292 0 1 1 -126.48584,0 63.24292,63.24292 0 1 1 126.48584,0 z"
         transform="matrix(0.87727326,0,0,0.89258862,-5.3058282,167.15749)" /></clipPath><linearGradient
       id="linearGradient5467"><stop
         style="stop-color:#1a1a1a;stop-opacity:1;"
         offset="0"
         id="stop5469" /><stop
         style="stop-color:#000000;stop-opacity:1;"
         offset="1"
         id="stop5471" /></linearGradient><radialGradient
       inkscape:collect="always"
       xlink:href="#linearGradient5467"
       id="radialGradient4243"
       gradientUnits="userSpaceOnUse"
       gradientTransform="matrix(1.5669948,-0.00946795,0.00596864,0.98784039,-140.25196,12.878452)"
       cx="238.38947"
       cy="879.16357"
       fx="238.38947"
       fy="879.16357"
       r="64.877129" /><linearGradient
       id="linearGradient3892"><stop
         style="stop-color:#1a1a1a;stop-opacity:1;"
         offset="0"
         id="stop3894" /><stop
         style="stop-color:#000000;stop-opacity:1;"
         offset="1"
         id="stop3896" /></linearGradient><mask
       maskUnits="userSpaceOnUse"
       id="mask4163"><g
         id="g4165"><path
           style="fill:url(#linearGradient4173);fill-opacity:1;stroke:none"
           d="m 238.08477,888.17661 0,39.56144 c 5.4682,-8.60936 11.21021,-17.52954 13.94028,-27.69301 -2.18244,-3.64532 -7.10302,-7.91229 -13.94028,-11.86843 z"
           id="path4167"
           inkscape:connector-curvature="0"
           sodipodi:nodetypes="cccc" /><path
           style="fill:none;stroke:url(#linearGradient4175);stroke-width:1;stroke-linecap:butt;stroke-linejoin:round;stroke-miterlimit:4;stroke-opacity:1;stroke-dasharray:none"
           d="m 238.08477,885.53484 0,46.60614"
           id="path4169"
           inkscape:connector-curvature="0"
           sodipodi:nodetypes="cc"
           clip-path="url(#clipPath4051)" /><path
           sodipodi:nodetypes="cccc"
           inkscape:connector-curvature="0"
           id="path4171"
           d="m 238.08477,888.17661 0,39.56144 c -5.4682,-8.60936 -11.21021,-17.52954 -13.94028,-27.69301 2.18244,-3.64532 7.10302,-7.91229 13.94028,-11.86843 z"
           style="fill:url(#linearGradient4177);fill-opacity:1;stroke:none" /></g></mask><linearGradient
       inkscape:collect="always"
       xlink:href="#linearGradient4114"
       id="linearGradient4173"
       gradientUnits="userSpaceOnUse"
       x1="243.36093"
       y1="900.04309"
       x2="247.62825"
       y2="893.63629" /><linearGradient
       id="linearGradient4114"><stop
         style="stop-color:#000000;stop-opacity:1;"
         offset="0"
         id="stop4116" /><stop
         id="stop4199"
         offset="0.5"
         style="stop-color:#b67800;stop-opacity:1;" /><stop
         style="stop-color:#fcaf1c;stop-opacity:1;"
         offset="1"
         id="stop4118" /></linearGradient><linearGradient
       inkscape:collect="always"
       xlink:href="#linearGradient4059"
       id="linearGradient4175"
       gradientUnits="userSpaceOnUse"
       x1="237.83601"
       y1="888.36017"
       x2="237.95665"
       y2="927.42889" /><linearGradient
       id="linearGradient4059"><stop
         style="stop-color:#feb82c;stop-opacity:1;"
         offset="0"
         id="stop4061" /><stop
         style="stop-color:#f3b417;stop-opacity:1;"
         offset="1"
         id="stop4063" /></linearGradient><clipPath
       clipPathUnits="userSpaceOnUse"
       id="clipPath4051"><g
         id="g4053"
         style="fill:none;stroke:#ffffff"><path
           style="fill:none;stroke:#ffffff;stroke-width:0.53272158;stroke-linecap:butt;stroke-linejoin:round;stroke-miterlimit:4;stroke-opacity:1;stroke-dasharray:none"
           d="m 238.08477,888.17661 0,39.56144 c 5.4682,-8.60936 11.21021,-17.52954 13.94028,-27.69301 -2.18244,-3.64532 -7.10302,-7.91229 -13.94028,-11.86843 z"
           id="path4055"
           inkscape:connector-curvature="0"
           sodipodi:nodetypes="cccc" /><path
           sodipodi:nodetypes="cccc"
           inkscape:connector-curvature="0"
           id="path4057"
           d="m 238.08477,888.17661 0,39.56144 c -5.4682,-8.60936 -11.21021,-17.52954 -13.94028,-27.69301 2.18244,-3.64532 7.10302,-7.91229 13.94028,-11.86843 z"
           style="fill:none;stroke:#ffffff;stroke-width:0.53272158;stroke-linecap:butt;stroke-linejoin:round;stroke-miterlimit:4;stroke-opacity:1;stroke-dasharray:none" /></g></clipPath><linearGradient
       inkscape:collect="always"
       xlink:href="#linearGradient4122"
       id="linearGradient4177"
       gradientUnits="userSpaceOnUse"
       x1="231.30499"
       y1="899.91748"
       x2="228.28616"
       y2="892.88257" /><linearGradient
       id="linearGradient4122"><stop
         style="stop-color:#f3b417;stop-opacity:1;"
         offset="0"
         id="stop4124" /><stop
         style="stop-color:#fcaf1c;stop-opacity:1;"
         offset="1"
         id="stop4126" /></linearGradient><linearGradient
       inkscape:collect="always"
       xlink:href="#linearGradient4059"
       id="linearGradient4239"
       gradientUnits="userSpaceOnUse"
       x1="237.83601"
       y1="888.36017"
       x2="237.95665"
       y2="927.42889" /><linearGradient
       id="linearGradient3921"><stop
         style="stop-color:#feb82c;stop-opacity:1;"
         offset="0"
         id="stop3923" /><stop
         style="stop-color:#f3b417;stop-opacity:1;"
         offset="1"
         id="stop3925" /></linearGradient><clipPath
       clipPathUnits="userSpaceOnUse"
       id="clipPath3927"><g
         id="g3929"
         style="fill:none;stroke:#ffffff"><path
           style="fill:none;stroke:#ffffff;stroke-width:0.53272158;stroke-linecap:butt;stroke-linejoin:round;stroke-miterlimit:4;stroke-opacity:1;stroke-dasharray:none"
           d="m 238.08477,888.17661 0,39.56144 c 5.4682,-8.60936 11.21021,-17.52954 13.94028,-27.69301 -2.18244,-3.64532 -7.10302,-7.91229 -13.94028,-11.86843 z"
           id="path3931"
           inkscape:connector-curvature="0"
           sodipodi:nodetypes="cccc" /><path
           sodipodi:nodetypes="cccc"
           inkscape:connector-curvature="0"
           id="path3933"
           d="m 238.08477,888.17661 0,39.56144 c -5.4682,-8.60936 -11.21021,-17.52954 -13.94028,-27.69301 2.18244,-3.64532 7.10302,-7.91229 13.94028,-11.86843 z"
           style="fill:none;stroke:#ffffff;stroke-width:0.53272158;stroke-linecap:butt;stroke-linejoin:round;stroke-miterlimit:4;stroke-opacity:1;stroke-dasharray:none" /></g></clipPath><linearGradient
       id="linearGradient4201"><stop
         id="stop4203"
         offset="0"
         style="stop-color:#986400;stop-opacity:1;" /><stop
         style="stop-color:#b67800;stop-opacity:1;"
         offset="0.74023157"
         id="stop4205" /><stop
         id="stop4207"
         offset="1"
         style="stop-color:#fcaf1c;stop-opacity:1;" /></linearGradient><linearGradient
       id="linearGradient3941"><stop
         style="stop-color:#f3b417;stop-opacity:1;"
         offset="0"
         id="stop3943" /><stop
         style="stop-color:#fcaf1c;stop-opacity:1;"
         offset="1"
         id="stop3945" /></linearGradient><linearGradient
       id="linearGradient4293"><stop
         style="stop-color:#e4310d;stop-opacity:1;"
         offset="0"
         id="stop4295" /><stop
         style="stop-color:#c0290b;stop-opacity:0;"
         offset="1"
         id="stop4297" /></linearGradient><linearGradient
       id="linearGradient3952"><stop
         style="stop-color:#e4310d;stop-opacity:1;"
         offset="0"
         id="stop3954" /><stop
         style="stop-color:#c0290b;stop-opacity:0;"
         offset="1"
         id="stop3956" /></linearGradient><radialGradient
       inkscape:collect="always"
       xlink:href="#linearGradient4293"
       id="radialGradient4127"
       cx="254.4561"
       cy="157.43228"
       fx="254.4561"
       fy="157.43228"
       r="13.967531"
       gradientTransform="matrix(1.4766783,0.05396358,-0.03075353,0.84155025,-116.4521,13.097993)"
       gradientUnits="userSpaceOnUse" /><linearGradient
       id="linearGradient3959"><stop
         style="stop-color:#e4310d;stop-opacity:1;"
         offset="0"
         id="stop3961" /><stop
         style="stop-color:#c0290b;stop-opacity:0;"
         offset="1"
         id="stop3963" /></linearGradient><linearGradient
       inkscape:collect="always"
       xlink:href="#linearGradient3836"
       id="linearGradient7733"
       x1="197.62054"
       y1="122.14509"
       x2="273.68304"
       y2="122.14509"
       gradientUnits="userSpaceOnUse" /><linearGradient
       inkscape:collect="always"
       xlink:href="#linearGradient3836"
       id="linearGradient4268"
       gradientUnits="userSpaceOnUse"
       x1="197.62054"
       y1="122.14509"
       x2="273.68304"
       y2="122.14509" /><linearGradient
       inkscape:collect="always"
       xlink:href="#linearGradient3836"
       id="linearGradient4281"
       gradientUnits="userSpaceOnUse"
       x1="197.62054"
       y1="122.14509"
       x2="273.68304"
       y2="122.14509"
       gradientTransform="matrix(3.2411581,0,0,3.2411576,-635.51941,-198.24599)" /></defs><sodipodi:namedview
     pagecolor="#3d3d3d"
     bordercolor="#666666"
     borderopacity="1"
     objecttolerance="10"
     gridtolerance="10"
     guidetolerance="10"
     inkscape:pageopacity="1"
     inkscape:pageshadow="2"
     inkscape:window-width="1920"
     inkscape:window-height="1029"
     id="namedview7"
     showgrid="false"
     inkscape:zoom="5.6568542"
     inkscape:cx="113.4211"
     inkscape:cy="219.48343"
     inkscape:window-x="0"
     inkscape:window-y="0"
     inkscape:window-maximized="0"
     inkscape:current-layer="g4263"
     showguides="true"
     inkscape:guide-bbox="true"
     fit-margin-top="0"
     fit-margin-left="-6.3837824e-16"
     fit-margin-right="0"
     fit-margin-bottom="85"><sodipodi:guide
       orientation="1,0"
       position="0.25383585,332.11218"
       id="guide2983" /><sodipodi:guide
       orientation="0,1"
       position="21.105036,332.11218"
       id="guide2985" /><sodipodi:guide
       orientation="1,0"
       position="307.88904,465.75052"
       id="guide2987" /><sodipodi:guide
       orientation="0,1"
       position="-112.11096,45.75052"
       id="guide2989" /></sodipodi:namedview><g
     inkscape:export-filename="/home/dd/src/android/yaxim/res/drawable-hdpi/available.png"
     inkscape:export-ydpi="38.889999"
     inkscape:export-xdpi="38.889999"
     id="g4234"
     transform="matrix(3.2411581,0,0,3.2411576,-635.51941,-198.24599)"
     mask="url(#mask7707)"
     style="fill-opacity:1.0;fill:url(#linearGradient7733)"><g
       id="g4263"
       style="fill-opacity:1;fill:url(#linearGradient4268)"><path
         style="opacity:1;fill:url(#linearGradient4281);fill-opacity:1;stroke:none;stroke-width:0.51599133;stroke-linecap:round;stroke-linejoin:round;stroke-miterlimit:4;stroke-dasharray:none;stroke-opacity:1"
         d="M 27.507812,75 C 13.520206,75 2.2578125,85.863614 2.2578125,99.357422 l 0,121.785158 c 0,13.49381 11.2623935,24.35742 25.2499995,24.35742 l 37.707032,0 L 40.228516,315.48047 128.5,245.5 l 100.99219,0 c 13.98757,0 25.25,-10.86361 25.25,-24.35742 l 0,-121.785158 C 254.74219,85.863614 243.47976,75 229.49219,75 Z m 48.988282,21.542969 c 0.268368,2.938232 0.151967,6.332861 0.613281,8.916011 0.2016,1.90522 0.830783,3.29425 1.699219,4.94727 1.194075,1.66034 2.690093,3.95661 4.189453,5.83203 2.533257,2.65865 5.516113,5.52323 7.791015,8.48047 1.129317,1.19007 2.231882,2.78023 3.699219,3.91211 1.055775,1.19599 2.402089,2.00213 3.492188,2.87695 2.107951,1.87385 4.594621,3.27044 6.740231,4.98047 1.13506,0.92749 2.31174,1.59674 3.15039,2.24219 2.01895,1.54535 3.36271,2.31187 6.82813,4.76562 1.33759,0.78009 2.80293,1.8789 3.41992,1.30664 3.1906,-1.04047 7.34034,-0.78208 10.8418,0.24219 1.09982,0.40242 2.31341,1.58341 3.3125,1.25196 2.65946,-2.04689 6.59468,-2.88047 10.1582,-2.8125 2.16143,0.19282 2.82385,-1.77888 4.36914,-2.6211 3.54576,-3.7646 8.05914,-6.77092 12.07422,-10.0957 0.96201,-1.17875 3.11237,-3.10739 4.27539,-4.56446 1.28013,-1.32463 2.74096,-3.74952 3.90625,-4.7832 2.51015,-3.1546 5.10253,-6.49745 6.87891,-9.75781 1.79109,-3.82489 4.17986,-7.39041 5.61718,-11.05273 0.41675,-1.041885 1.25522,-2.051076 1.46289,-3.169927 1.19531,-1.241289 2.79617,0.76582 3.47266,1.582031 2.4358,3.618566 3.23902,7.550816 4.7461,11.359376 1.44268,4.69588 0.48346,9.8354 -1.19727,14.50586 -0.71179,3.76665 -2.51072,7.79007 -3.89453,11.22266 -0.18929,1.05205 -1.45085,2.89669 -2.24805,3.83984 -1.95847,3.27486 -4.85759,5.97596 -7.61523,8.74414 -2.76387,2.4485 -5.77117,4.84723 -9.26563,6.39453 -0.96645,0.0162 -2.96924,1.08437 -1.20508,2.00586 0.76456,0.86098 2.16395,2.88252 -0.10156,2.67969 -2.27818,-0.31699 -4.79721,-0.0863 -1.86328,1.72656 5.06596,10.01764 1.4052,29.67629 -4.66406,39.63867 -2.07882,3.58994 -4.62269,7.257 -7.30274,10.56445 -1.56583,1.52215 -2.65334,3.61399 -4.35547,5.04493 -4.98156,4.26565 -8.06804,7.60177 -14.55078,7.57422 -5.00953,0.10339 -9.29351,-2.64999 -12.88867,-5.40235 -3.34594,-3.40804 -6.3874,-6.07557 -8.76758,-9.73633 -2.97344,-4.99653 -7.03149,-9.08046 -8.32617,-14.65039 -3.685745,-8.40121 -6.112733,-27.70897 -2.314452,-32.5957 -1.551477,-0.56266 -3.681678,1.70932 -4.583984,0.48047 -0.03825,-1.19599 1.062483,-2.57258 1.832031,-3.6582 1.228918,-1.71756 5.430655,-2.00444 0.742187,-2.9375 -3.876325,-1.1651 -6.905368,-3.46861 -9.960937,-5.72461 -1.627677,-2.00566 -4.348603,-3.40102 -6.023437,-5.46094 -2.038203,-2.04294 -4.285256,-4.41212 -5.261719,-6.82422 -1.48095,-2.36212 -2.88553,-4.71883 -4.398438,-7.02734 -1.498646,-2.40757 -2.249375,-4.75082 -2.728515,-7.36524 -0.04376,-1.54647 -0.378114,-3.81484 -0.578125,-4.81836 0.103393,-2.58717 0.472657,-5.3268 1.298828,-7.97851 0.35079,-1.74015 0.935996,-3.63468 0.957031,-5.06836 0.213592,-3.61848 3.038626,-6.921246 6.527344,-9.011721 z m 69.587886,77.294921 c -1.87031,2e-4 -3.7862,0.56505 -5.23046,1.51367 -3.86632,2.05681 -3.12216,6.23432 -2.24024,9.44922 1.1547,2.33675 1.66428,5.86383 5.19922,6.29883 4.69485,0.40968 7.9774,-3.27635 8.99023,-6.55469 0.48825,-2.88242 0.29537,-6.45093 -1.76562,-8.83594 -1.25893,-1.30803 -3.08285,-1.87128 -4.95313,-1.87109 z m -27.97265,-0.31641 c -3.80331,0.40077 -5.10185,2.48139 -6.71485,6.55274 -0.55423,3.01846 0.75974,7.64119 4.47657,9.82812 1.39369,0.61761 3.62528,0.79167 4.75781,0.3418 3.43874,-1.01046 4.98721,-3.83132 6.02344,-6.58203 0.94476,-1.75386 -0.92852,-5.43449 -1.50586,-6.69141 -2.33804,-2.67927 -3.74471,-3.46218 -7.03711,-3.44922 z"
         transform="matrix(0.30853169,0,0,0.30853174,196.07788,61.165181)"
         id="path4217"
         inkscape:connector-curvature="0"
         sodipodi:nodetypes="sssscccssssscccccccccccccccccccccccccccccccccccccccccccccccccccscccccsccccccc" /></g></g></svg>