<?xml version="1.0" encoding="UTF-8" standalone="no"?>
<!-- Created with Inkscape (http://www.inkscape.org/) -->

<svg
   xmlns:dc="http://purl.org/dc/elements/1.1/"
   xmlns:cc="http://creativecommons.org/ns#"
   xmlns:rdf="http://www.w3.org/1999/02/22-rdf-syntax-ns#"
   xmlns:svg="http://www.w3.org/2000/svg"
   xmlns="http://www.w3.org/2000/svg"
   xmlns:sodipodi="http://sodipodi.sourceforge.net/DTD/sodipodi-0.dtd"
   xmlns:inkscape="http://www.inkscape.org/namespaces/inkscape"
   width="240"
   height="240"
   viewBox="0 0 240 240"
   id="svg2"
   version="1.1"
   inkscape:version="0.91 r13725"
   sodipodi:docname="yak-front-empty-outline.svg"
   inkscape:export-filename="/usr/src/G1/yaxim/asset-graphics/yak-front.svg.png"
   inkscape:export-xdpi="100.07505"
   inkscape:export-ydpi="100.07505">
  <defs
     id="defs4" />
  <sodipodi:namedview
     id="base"
     pagecolor="#001900"
     bordercolor="#666666"
     borderopacity="1.0"
     inkscape:pageopacity="0"
     inkscape:pageshadow="2"
     inkscape:zoom="5.6568542"
     inkscape:cx="92.031547"
     inkscape:cy="103.03683"
     inkscape:document-units="px"
     inkscape:current-layer="layer1"
     showgrid="true"
     inkscape:window-width="1920"
     inkscape:window-height="1029"
     inkscape:window-x="0"
     inkscape:window-y="0"
     inkscape:window-maximized="1"
     units="px"
     showguides="true">
    <inkscape:grid
       type="xygrid"
       id="grid4730"
       originx="20"
       originy="20"
       spacingx="10"
       spacingy="10" />
  </sodipodi:namedview>
  <metadata
     id="metadata7">
    <rdf:RDF>
      <cc:Work
         rdf:about="">
        <dc:format>image/svg+xml</dc:format>
        <dc:type
           rdf:resource="http://purl.org/dc/dcmitype/StillImage" />
        <dc:title />
      </cc:Work>
    </rdf:RDF>
  </metadata>
  <g
     inkscape:label="Layer 1"
     inkscape:groupmode="layer"
     id="layer1"
     transform="translate(0,-812.36216)">
    <path
       style="fill:#ffffff;fill-opacity:1;stroke:#ffffff;stroke-width:0;stroke-miterlimit:4;stroke-dasharray:none;stroke-opacity:1"
       d="m 146.33979,947.82857 c 2.94831,-3.2e-4 5.82402,0.9446 7.80866,3.13602 3.24893,3.99582 3.55237,9.97287 2.78268,14.80195 -1.59665,5.4925 -6.77168,11.66875 -14.17267,10.98231 -5.57249,-0.72878 -6.37518,-6.63666 -8.19544,-10.55162 -1.39027,-5.38614 -2.56377,-12.38668 3.53115,-15.83267 2.2767,-1.58924 5.2973,-2.53566 8.24562,-2.53599 z"
       id="path4981" />
    <path
       style="fill:#ffffff;fill-opacity:1;stroke:#ffffff;stroke-width:0;stroke-miterlimit:4;stroke-dasharray:none;stroke-opacity:1"
       d="m 101.85027,949.81263 c 5.19021,-0.0274 8.58866,2.12819 12.27433,6.61698 0.91013,2.10584 3.07405,4.92042 1.58473,7.85884 -1.6335,4.60843 -4.07494,9.33534 -9.49583,11.02829 -1.78531,0.75372 -5.30217,0.46233 -7.49924,-0.57285 -5.859234,-3.66393 -7.931493,-11.40833 -7.057794,-16.4654 2.542756,-6.82104 4.198248,-7.79431 10.193804,-8.46586 z"
       id="path4979" />
    <path
       style="fill:#ffffff;fill-opacity:1;stroke:#ffffff;stroke-width:8;stroke-miterlimit:4;stroke-dasharray:none;stroke-opacity:1"
       d="m 124.20739,999.76174 c 1.37234,0.0214 11.54247,2.04896 12.93131,2.66236 4.09635,1.8462 -3.31218,-1.3456 -12.49154,-1.9805 0,0 -1.76059,23.9355 -1.82652,30.2518 l 0.0917,0.6936 c 0.50336,-6.1517 1.51981,-30.8362 0.36307,-31.1462 -3.91253,-0.89821 -17.94174,3.4474 -15.10998,2.56 2.77013,-1.3808 13.02278,-3.08634 16.04192,-3.04106 z"
       id="path4763" />
    <path
       style="fill:#ff8080;fill-opacity:1;stroke:#000000;stroke-width:0.42007688;stroke-opacity:1"
       d="m 185.42498,915.37004 c -0.82466,-0.22618 -0.1417,0.24035 0,0 z"
       id="path4238"
       inkscape:connector-curvature="0" />
    <path
       style="fill:#000000"
       d=""
       id="path3427"
       inkscape:connector-curvature="0" />
    <path
       style="fill:none;fill-opacity:1;stroke:#ffffff;stroke-width:7.59770012;stroke-miterlimit:4;stroke-dasharray:none;stroke-opacity:1"
       d="m 47.642163,840.09385 c -4.87949,3.10737 -8.831234,8.01376 -9.129853,13.39243 -0.02944,2.13108 -0.846934,4.95172 -1.337394,7.53835 -1.155497,3.9416 -1.67139,8.01083 -1.815955,11.85656 0.279719,1.49166 0.745373,4.86302 0.806885,7.1618 0.670202,3.88616 1.71954,7.37086 3.815547,10.94952 2.116026,3.43152 4.081456,6.93383 6.15273,10.44498 1.365725,3.5854 4.50953,7.10779 7.36027,10.14449 2.342455,3.06196 6.14852,5.13571 8.424989,8.11706 4.273665,3.35342 8.508794,6.77664 13.930353,8.50847 6.557481,1.38697 0.681953,1.81716 -1.036893,4.37016 -1.076306,1.61377 -2.6169,3.65521 -2.563482,5.43302 1.261987,1.82652 4.240589,-1.54867 6.410559,-0.71228 -5.312454,7.26381 -1.916375,35.96597 3.238668,48.45397 1.810761,8.2793 6.63868,15.53482 10.797415,22.96182 3.329027,5.4415 6.785799,11.1046 12.600378,14.8134 5.02834,4.0913 11.52956,6.655 18.53609,6.5014 9.06693,0.041 13.21397,-4.069 20.18139,-10.4097 2.38062,-2.1269 4.58043,-4.3891 6.77041,-6.6517 3.74841,-4.9164 6.79734,-10.0281 9.70488,-15.36426 8.48866,-14.8086 13.60725,-46.06534 6.52185,-60.956 -4.10347,-2.69449 -0.57645,-3.03445 2.60985,-2.56348 3.16865,0.30155 1.20828,-2.7064 0.13912,-3.98621 -2.46738,-1.36973 0.33439,-2.9515 1.68611,-2.97898 4.88745,-2.29996 9.09457,-5.86681 12.96024,-9.50639 3.8569,-4.11474 7.90983,-8.13125 10.64902,-12.99918 1.11498,-1.4019 2.87964,-4.14184 3.14407,-5.70571 1.93536,-5.10234 4.45231,-11.08412 5.44787,-16.68303 2.3507,-6.94237 3.69281,-14.58126 1.67498,-21.56144 -2.10781,-5.66119 -3.23377,-11.5064 -6.64057,-16.88522 -0.94615,-1.21321 -3.1843,-4.19527 -4.85615,-2.35017 -0.29049,1.6631 -1.46304,3.16272 -2.04596,4.71146 -2.01027,5.44386 -5.3486,10.74526 -7.85368,16.43078 -2.48456,4.84631 -6.11249,9.81253 -9.62326,14.50166 -1.62983,1.53653 -3.67223,5.14273 -5.4627,7.11171 -1.62658,2.16586 -4.63287,5.03124 -5.97836,6.7834 -5.61562,4.94208 -11.92977,9.41035 -16.88893,15.0062 -2.16136,1.2519 -3.08709,4.18381 -6.11007,3.89715 -4.98417,-0.10099 -10.48899,1.13647 -14.20859,4.1791 -1.39731,0.4927 -3.09342,-1.26224 -4.6317,-1.86046 -4.89722,-1.52252 -10.70322,-1.90644 -15.16573,-0.35985 -0.86291,0.85056 -2.91117,-0.7844 -4.78195,-1.94395 -4.846822,-3.64734 -6.727111,-4.78492 -9.550909,-7.08203 -1.173014,-0.95944 -2.817874,-1.95465 -4.405404,-3.33327 -3.000924,-2.54187 -6.47838,-4.61759 -9.426639,-7.40293 -1.524666,-1.3004 -3.409172,-2.49782 -4.885825,-4.27556 -2.05232,-1.68246 -3.592043,-4.04808 -5.171483,-5.81699 -3.181783,-4.39582 -7.354483,-8.65218 -10.897579,-12.6041 -2.097076,-2.78768 -4.189581,-6.19998 -5.859651,-8.66798 -1.214653,-2.45713 -2.095968,-4.52457 -2.377994,-7.35655 -0.645111,-3.83971 -0.481542,-8.88395 -0.856963,-13.25147 z"
       id="path4763-7"
       inkscape:connector-curvature="0"
       sodipodi:nodetypes="ccccccccccccccccccccccccccccccccccccccccccccccccccc" />
  </g>
</svg>
