<?xml version="1.0" encoding="UTF-8" standalone="no"?>
<!-- Created with Inkscape (http://www.inkscape.org/) -->

<svg
   xmlns:dc="http://purl.org/dc/elements/1.1/"
   xmlns:cc="http://creativecommons.org/ns#"
   xmlns:rdf="http://www.w3.org/1999/02/22-rdf-syntax-ns#"
   xmlns:svg="http://www.w3.org/2000/svg"
   xmlns="http://www.w3.org/2000/svg"
   xmlns:sodipodi="http://sodipodi.sourceforge.net/DTD/sodipodi-0.dtd"
   xmlns:inkscape="http://www.inkscape.org/namespaces/inkscape"
   width="240"
   height="240"
   viewBox="0 0 240 240"
   id="svg2"
   version="1.1"
   inkscape:version="0.91 r13725"
   sodipodi:docname="yak-front-outline-closed.svg"
   inkscape:export-filename="/usr/src/G1/yaxim/asset-graphics/yak-front.svg.png"
   inkscape:export-xdpi="100.07505"
   inkscape:export-ydpi="100.07505">
  <defs
     id="defs4" />
  <sodipodi:namedview
     id="base"
     pagecolor="#001900"
     bordercolor="#666666"
     borderopacity="1.0"
     inkscape:pageopacity="0"
     inkscape:pageshadow="2"
     inkscape:zoom="5.6"
     inkscape:cx="165.83611"
     inkscape:cy="91.358804"
     inkscape:document-units="px"
     inkscape:current-layer="layer1"
     showgrid="false"
     inkscape:window-width="1920"
     inkscape:window-height="1029"
     inkscape:window-x="0"
     inkscape:window-y="0"
     inkscape:window-maximized="1"
     units="px"
     showguides="true">
    <inkscape:grid
       type="xygrid"
       id="grid4730"
       originx="20"
       originy="20"
       spacingx="10"
       spacingy="10"
       snapvisiblegridlinesonly="false"
       enabled="true"
       visible="true" />
  </sodipodi:namedview>
  <metadata
     id="metadata7">
    <rdf:RDF>
      <cc:Work
         rdf:about="">
        <dc:format>image/svg+xml</dc:format>
        <dc:type
           rdf:resource="http://purl.org/dc/dcmitype/StillImage" />
        <dc:title></dc:title>
      </cc:Work>
    </rdf:RDF>
  </metadata>
  <g
     inkscape:label="Layer 1"
     inkscape:groupmode="layer"
     id="layer1"
     transform="translate(0,-812.36216)">
    <path
       style="fill:#ffffff;fill-opacity:1;stroke:none;stroke-opacity:1"
       d="m 42.933594,20 c -5.137858,3.2719 -9.298846,8.438093 -9.613282,14.101562 -0.03098,2.243922 -0.891776,5.213921 -1.408203,7.9375 -1.21668,4.150321 -1.759892,8.435004 -1.912109,12.484376 0.294523,1.57064 0.78484,5.120515 0.849609,7.541015 0.705685,4.09194 1.810589,7.761147 4.017579,11.529297 2.228065,3.61322 4.297572,7.300977 6.478515,10.998047 1.438041,3.77525 4.748316,7.48415 7.75,10.681641 2.466488,3.2241 6.474086,5.407652 8.871094,8.546872 4.499957,3.53097 8.959337,7.13546 14.667969,8.95899 6.904701,1.46041 0.718062,1.91338 -1.091797,4.60156 -1.133296,1.69922 -2.755465,3.84875 -2.699219,5.7207 1.32881,1.92324 4.46513,-1.63068 6.75,-0.75 C 70,130 73.575903,160.2219 79.003906,173.37109 c 1.906641,8.71774 7.883057,15.10734 12.261998,22.92774 3.5053,5.7296 7.982952,9.90625 12.910426,15.24051 5.29459,4.3079 11.60434,8.61455 18.98187,8.45285 9.54703,0.043 14.09222,-5.1774 21.42857,-11.8538 2.50668,-2.2396 4.10869,-5.51436 6.41463,-7.89676 3.94688,-5.1767 7.69296,-10.91615 10.75446,-16.53488 8.93813,-15.59267 14.32776,-46.3616 6.86719,-62.04073 -4.32076,-2.83716 -0.60698,-3.19512 2.74804,-2.69922 3.33642,0.31752 1.27225,-2.8497 0.14649,-4.19727 -2.59804,-1.44226 0.35209,-3.10779 1.77539,-3.13672 5.14624,-2.42175 9.57612,-6.17747 13.64648,-10.00976 4.06112,-4.332622 8.32866,-8.561813 11.21289,-13.687503 1.17402,-1.47612 3.03211,-4.361133 3.31055,-6.007813 2.03784,-5.37251 4.68806,-11.671036 5.73633,-17.566406 2.47517,-7.30997 3.88835,-15.353335 1.76367,-22.703125 -2.21942,-5.96095 -3.40499,-12.115667 -6.99219,-17.779297 -0.99625,-1.27745 -3.35291,-4.417409 -5.11328,-2.474609 -0.30587,1.75116 -1.54051,3.330197 -2.1543,4.960937 -2.11671,5.73211 -5.6318,11.314222 -8.26953,17.300782 -2.61612,5.10293 -6.43615,10.332111 -10.13281,15.269531 -1.71614,1.61789 -3.86668,5.415041 -5.75195,7.488281 -1.71271,2.28054 -4.87819,5.297638 -6.29492,7.142578 -5.91297,5.20377 -12.56145,9.908631 -17.78321,15.800782 -2.27579,1.318189 -3.25054,4.405355 -6.43359,4.103515 -5.24808,-0.10634 -11.04439,1.196641 -14.96094,4.400391 -1.4713,0.51878 -3.25722,-1.329085 -4.87695,-1.958985 -5.15653,-1.60314 -11.26996,-2.007386 -15.96875,-0.378906 -0.90861,0.8956 -3.06532,-0.825935 -5.035158,-2.046875 -5.10347,-3.84047 -7.083322,-5.038291 -10.05664,-7.457031 -1.235126,-1.01024 -2.967081,-2.058146 -4.638672,-3.509766 -3.159823,-2.67646 -6.821411,-4.862092 -9.925781,-7.794922 -1.605397,-1.36926 -3.589688,-2.630073 -5.144531,-4.501953 -2.16099,-1.77154 -3.782242,-4.26243 -5.445313,-6.125 C 60.634115,59.469076 56.240469,54.987352 52.509766,50.826172 50.30165,47.890882 48.098345,44.297899 46.339844,41.699219 45.060876,39.111979 44.1329,36.935075 43.835938,33.953125 43.156664,29.910115 43.328892,24.59878 42.933594,20 Z M 124.3826,190.21315 c 1.28205,0.02 11.14022,1.19991 12.43768,1.77291 3.82685,1.7247 4.59373,3.68005 -4.60043,5.11992 -7.99404,1.29515 -6.06238,13.00412 -6.12397,18.90486 -1.22265,0.038 -4.30714,-4e-4 -5.74793,0.0293 0.47024,-5.747 2.25462,-16.71098 -4.5132,-18.40747 -3.65512,-0.83909 -8.72697,-4.46379 -6.08151,-5.29279 2.58788,-1.29 11.80885,-2.16903 14.62936,-2.12673 z"
       transform="translate(0,812.36216)"
       id="path4763"
       inkscape:connector-curvature="0"
       sodipodi:nodetypes="ccccccccccccccccccccccccccccccccccccccccccccccccccccccccccc" />
    <path
       style="fill:#ffffff;fill-opacity:1;stroke:none;stroke-opacity:1"
       d="m 103.85352,955.1981 c -69.23568,64.776 -34.61784,32.38802 0,0 z"
       id="path4759" />
    <path
       style="fill:#ff8080;fill-opacity:1;stroke:#000000;stroke-width:0.42007688;stroke-opacity:1"
       d="m 185.42498,915.37004 c -0.82466,-0.22618 -0.1417,0.24035 0,0 z"
       id="path4238"
       inkscape:connector-curvature="0" />
    <path
       style="fill:#000000"
       d=""
       id="path3427"
       inkscape:connector-curvature="0" />
  </g>
</svg>
